<svg xmlns="http://www.w3.org/2000/svg" width="1200" height="742" viewBox="0 0 1200 742" role="img" aria-label="Coupling between SCN shell and SCN core">
<metadata>
  <fig:figure-record xmlns:fig="https://reprofig.org/ns/figure-record/1" schema="reprofig/1" encoding="gzip+base64">H4sIAAAAAAACCu19XY9jOZLdXxESMKYKzspm8JttjAF7tw0/eNeL2QX80DUQrqSrSm0rpYSkrOraRv93nxMSKbK6Z/bFxr5Me117k7qXQQYjTpwI8t795WE6TPuv59354ftfHtb7affy8P3D3+1O62mzmw6L/3M8/bSaD+vnxRp/raf9+m0/XebFdNgs5p9fj6fL4vI8L17m6fx2mhev0+70ZXeeF+vj2+t+d/i0OM3nt/1lcX4+fjksnufT/PTw+PDpNL28TCdIuuxeZtw3P/z6+LA+zeh6s5wu+MEaGz+Y8sGkfzH5e4v/Cf/ZyPfG4PHNdJmW58t0ecOoH9bHl9f9fJnrD5dptZ/xw4+Yz3H/9nJYYjAH9Gkfbw3XHzeXr68znn87/HTA4PD4YXphQ9PI48Pr22q/W6us663Q0Pm82+7mDUb8V/q4Tnv5r+fj4d/r5s8c1uEyHy7nTvhj18PHQ1Xn48eHXz4+fHzYT6t5f+bV9z/y33/+u3+Eiuf9nn881pb18TTz+s/asp+nzVIf1Od+/7H99Gn5fHw7Xfv+YJ8M/nOpGFtiCiKp3bXeLffHL91t3kkIJiTvixlue959er7eJ0+llOi9DcFFE5wN7b4dNHD6PO2XZ0hfz22I/zqtf/rpsNvOy+Pn+bRcf11jcYfh7jZQnepSH7qc3mb97fV5Os8Y4/onKG6Jrt+uvRoOAv/lkEy01uXbYHHjrYvttD/PXeNyfdphdDusRB0WjR7CFy8Y1Wax+rowUMHiefEO//s/LY7bxbSwHn/reN8vpvXpeD6rq5xmLMvmUT2If5/3x9d5sd1dYPoLznGRF1+ej/v5+uwZbrbev21w8W/z6dhmrou0fDvfhvyji0/mEf+ER5d4lXiVeZV5VXhVcOUxQP6DK+GV8MryyvLK8crxyvPK8yrwKvCKMjxleMrwlOEpw1OGpwxPGYEyAmUEygiUESgjUEagjEAZgTICZQTKCJQRKCNQRqCMQBmBMgJlBMoIlBEpI1JGpIxIGZEyImVEyoiUESkjUkakjEgZkTIiZUTKiJQRKSNSRqSMSBmJMhJlJMpIlJEoI1FGooxEGYkyEmUkykiUkSgjUUaijEQZiTISZSTKSJSRKSNTRqaMTBmZMjJlZMrIlJEpI1NGpoxMGZkyMmVkysiUkSkjU0amjEwZhTIKZRTKKJRRKKNQRqGMQhmFMgplFMoolFEoo1BGoYxCGYUyCmUUyiiUIYZC+C+vRa9Fr61eW712eu302uu11+ug10Gvo15HvU56nfQ663XW66LXKldUrqhcUbmickXlisoVlSsqV1SuqFxRuaJyReWKyhWVKypXVK6oXFG5onKtyrUq16pcq3KtyrUq16pcq3KtyrUq16pcq3KtyrUq16pcq3KtyrUq16pcq3KdynUq16lcp3KdynUq16lcp3KdynUq16lcp3IVMEQRQxQyRDFDFDREUUMUNkRxQxQ4RJFDFDpEsUMUPETRQxQ+RPFDFEBEEUQUQkQxRBRERFFEFEZEcUQUSESRRBRKRLFEFExE0UQUTkTxRBRQRBFFFFJEMUUUVERRRRRWRHFFFFhEkUUUWkSxRRRcRNFFFF5E8UUUYEQRRhRiRDFGFGREUUYUZkRxRhRoRJFGFGpEsUYUbETRRhRuRPFGFHBEEUcUckQxRxR0RFFHFHZEcUcUeESRRxR6RLFHFHxE0UcUfkTxRxSARBFIFIJEMUgUhERRSBSGRHFIFIhEkUgUikSxSBSMRNFIFI5E8UgUkEQRSRSSRDFJFJREUUkUlkRxSRSYRJFJFJpEsUkUnETRSRSeRPFJFKBEEUoUokQxShSkRFFKFKZEcUoUqESRShSqRLFKFKxE0UoUrkTxyipeWcUrq3hlFa+s4pVVvLKKV1bxyipeWcUrq3hlFa+s4pVVvLKKV1bxyipeWcUrq3hlFa+s4pVVvLKKV1bxyipeWcUrq3hlFa+s4pVVvLKKV1bxyipeWcUrq3hlFa+s4pVVvLKKV1bxyipeWcUrq3hlFa+s4pVVvLKKV1bxyipeWcUrq3hlFa+s4pVVvLKKV1bxyipeWcUrq3hlFa+s4pVVvLKKV1bxyipeWcUrq3hlFa+s4pVVvLKKV1bxyipeWcUrq3hlFa+s4pVVvLKKV1bxyipeWcUrq3hlFa+s4pVVvLKKV1bxyipeWcUrq3hlFa+s4pVVvLKKV1bxyipeWcUrq3hlFa+s4pVVvLKKV/w3/LnR1TOI5HzuSPaPSovBrn2E64Zsi+THW1spmH1IOUTjr20g4cUHA0Mxwd/uS9GCy1rclHIK17bssskuApyKt/HWFrwpMJmSo3fXpmKzcegAYO7SrbviswP4JjB6R7HK7oGQxQTo0KSQb22uGB+i88HleGsqoRSHFcAQ/a0NI/UBtyUEvJJubdE5/lUA5tHd2nLyzkeYvQnXFssxOYMRpXwbB9SRi4vBe2fk1uQ9poVx2eLLrSk6jAX5RYJOamcBmswcYEy1KSbnwP+hvyxVAPpiXlCSL8HVtlx8QkNC7nJrMnjK52CSQZytbcV5TN3kXAciVI/j/5f6JGbsgk/IlzDhqjUDR/MYSDa1KUGkB60BwqaqXERl46B0oGiq61diwdJhNKAK9tbmAEcphmDjbeFVO7YE2JMXW43BQD3FJsSIkG5tNmTotoBqlFwNLjmYl8OckpVbE5SRaVZwi3yzN+gMfVFXoZkvlIrhY8QYyk0qeseCGhcx6Gq+WCwsPf4NJt6mFREcIuRhLMXcJMCyAC8FgiNg43Yf8tIUE8TArG+jCzk7YJ7DKL2r/RlMM9kc8Wvxtb8cmYv6DGH1PgeWCFW5SHG3NtgVVsdg/b2t9yWHkAIWkKOE1oZlz1wG+N1tfAmTKgFKgjpN0x7WBQseUkKyfGtjWpwcHnRtLBkjxtAS5uuq+uDeGDjQC0Npi8blBbCbbJO/6aoAGzIeg3Qo+taWMVSk8PAe46uZwS6xvvDPUp0CjxSCBFajug6sEATYZ0SzUA0bekc78CYCTKplK4pxjbBQ1akj+ykOzpabn2Bt4P4eEcvcbBtBBN4DNdHpaxvsIsIKHDKDUF3WF0uHSnUGwJqoejIYYG0DRmJmUHC8P2hpkB6AkGxoWIKVQBgBWts6NBuhTRhfCbUz+CLc12Htc50BZkoX9AYjNnWmAdrJ2WDEuSKkEPmgAxixrzCHzrFScDQDcK3o6o23AEOkJSY1xIUJQr8257r6BUYMF4UL+ZIqVidAAp0qNaPj3KmPWByWqRoOQwGg1OuAbxEiA+ICJDipEQIJEFYgQIHOVXuFO8GnYV0mNbsOiEMxG+JYjtXWYdoegcMAQGobSGp0kcvtfaltyMoyXMfHZq8YaiSgqpPF2lagAozF8ucKKalgjWBUuQVEqBadgZEgEUq1DbEpq5qRcd3agHSepSeHLnxzT5ghLAIDrtADm4Hy4K/I4WwNsIkFq4wQJm0a8H7AOmZnCCJVpQhrhYGlVO0B1B2wCLgHR3HNYzFLLq+tkwXYeyANJsHJtOUmBMBik7gWAoh+Hur3Um0HFgFIFZppNTFG2ICQgKlVS0Tv8H9MLdbbYGz8A6O2pd4WM1UGEmKqF9J6OVj+YqtnIk/DEgA5sUTVT+BLwFNArWnxFSuToiG5kHKPpYwUsLNUZ4BJ0zFdgepcc2FG4ACLjbG5MPAFf8PwqIbaHRYYhCPD8hqWeFYrYfFQROuPVMLArOVqdFfPBkOAD95ih04WK4L1An0GeDRnh+GDnELruamOqEBoALzGFsUhkuuVbIvixFK6HiGrIi6ABGsMhGrexHgXbKKl5BpNgGqM4TCdEMW3wI64mYjrYkNzdkyeSkq5OnZyWGhFSl85XfaICBANsmLafUQhapSeUq0f9g/1gqQAMFMDAAhJCMRZmtchKjpAG8wk1UCEC2CQAk2qQZaUDq1kWNnYRh9gZ74w0NZpJCAggn0kIvsGMoieiDJCL6vgAQpL97KJ9LZ6J5gzmBaigFTugTEzYgUkz6bGSQwekRMiS66PZgtmwKCNbn312EBCkGllpjl2UgiH9ZRKMwp8AGETSsFA6qLR0BOSVqJ89WxESETxRKS+eRnczjjGGHBF1yIATIDECHdWCogIgbWHNl2NbGIYgkG87D3GILA58jsEwBaIWak35NK+WieyeVJ4GCJGV12bXAKxAnCCBalujKAOWwespxYCEf6wPFxXmGnzbUAR9AF7Kc21PZlmgLE0CAhYeawaqWfz2cAtBdwKWtMoNlmCJGIRHrlzfRJDgMM9tCNfgbEIjMRWscCTRNLnqlB4OdkPbds2NRE3sAzoydY5wC3hdDB/RKw6OFgbMB6TAoGqy5X5IGlsVPJ49WwMIMAPSbSqt0MBBDGw0VK9k0wKeQfWptQsrNBBRN3MVnMtJMXklLC0SosB6YiRQpLhqttpikSoJIlorg1EMNC9y9Wb1Kyx4gRBV80fJhYJxQgKzbGxBpFJAKCthTqNYRBMvthCIgUz+3F1FnR2WjRRpGMFYACZGVVozxI9SURiuT8LN0e4IzcqlduAnXsuLDKXFsVzot9gHKVycWAIbJWJZ8gVEjJiQKbbwONDQztYMO4OuLW6emKUAW4EqUCUqRTESWSn0jAWd9DL4UKhYSzmCgSEN2LKlXjlHGCLFmZVcmiUDUsIuPLk7tVQaFKkexASWnxGDgi2zryqRhRDpozR+kpPcQumjzUDgWpxJ2IVEQVJ0mrIypqscXzxzmJhHcB0hvwa/5DvIb/iTy2VZtqAOTAItIgNp0CiaJk81SboElgN94r3CBsDeXcAY/OtDZmGZtz4sUoAswKEYU53/02k/ZhYujNsUXuLyBBiadDE5BKWBAXVaCrknJ65T6j1Bq5RYFoI57zHZjAk0FoEd2mBuJBcR4YKVxcBQEizwzh8q2fYTD0RNmobwwMm4pkmd4iOSWEocLkK/BGRBivM6FdqgAjMuCC02OoNwApmOLz3zrnBU2Be8DHE3Orn/BMcDMpEPKnxCwYIWwBZrayROowMI0zXqtdgRpbMOTOXrQ6HOxGSAJWhRc1AVINTICrIPbqCvcIVgVml3SdwCRZ5UktEmLh6uG8gpFS5UWs5EOyaWLJUrCkI+10E17g42nBuERdUCFhEBwt3chKZPDGzc81fA0yHS4vWEFtiA/IPFivlzqfgH/B0xGfAauNOHp7IhB/MqN4HfuULMRA2VFeSyQOVAGD3NQBYzc/hTWJrsQfUTjMiZrE1YMHpoDlY+1XL13DCegVUB+tuBTGYMAM5gKOWtRCtESENKWGrOiGGedZcMOMam7GgNCuw1JqHWxDJAA0jI20OC6/BykBcrLSeLBmGByaLYHePuAR5ere9Z9cBwQ9QDd/JzdWBh55JSIvfcPPIlcIsG2tgjYPxyt4BAXCpdTomT3WejIeMxCmWViJAJGR0IWS1igPCSGauA2FVa8gsgaswUOigeid4GR0O62JTW5gI8BCth1UoZdkAyV7w96oJDAK5L3wfIFsZXSCQQms0R3sPzB4QAGOQWsABn0GsBt1mulcdG+GLVSNQgFx5M0HZkIJjVVsBB+tJropbFXeuXuxIkgFhVEN1E60wJlYPW5mXzC+xWBVaC+k74iEWMzUizforACr55pok/1AHfMC3ihPdGbic6To100c8zqRNpov9IDnkA3DvO9+2SOdJilxsNQJ4AZNjFpfqVDX/ZohwzjenxiO+BM2TqlNHlhPBiOVemoBvOGClcOSNbhtW1lj/a2xb4YWY1UqfBHgGcMTf0sqmQHWYvyc3c/ekGfcgxWkVLQI9S4IsjldrRYIIQ4R1BXf3XXSi6UAr/EAzV67OGkkLX9AGGUdohomYrIEU9LgySwRI0jZPAMgtjgopDdJk8tqaIZMCZ2YwsXUHyGfZMxN2qhtiBS2SJogprRRu4QqF4bnV1RANYOJMme/BOzuWPTBjmxsYkKRH3t8KXxAH0EPoYoxo1TyyUcwK+m2RmlVeFmpg+C1Us1xoaMMtyDNTIkknpb9jqFMC5QlizaUBmUwCS9toANyzdh9ZdK80LROlhQXn2EykRJD2Yt09iQbH4Z4F2LtvdgnDBCQJKE61JPQMCybMmyzNfEGZkOJpuci3rJLFEc9agLsnpIUFaIWi1oZQyZKviy3HB92Fd3M9COzNV4lKLIWVxsktQMSz/NGwBe5ruV0EAh5ars0QA6KWWGGuj6IFxsB9JVdDZiJ7A2fiWBoc4GFL82ZBtKXQhbkGLPjumARmqytmS8dVsLZwy2wapQGFxNyw+qnVKYROAUqG+2OLyRipIYDdsyOWyzKLFbkVVmCUoPPUW/StSm24cyWs5tZCGOvpeFpMY2/M6z0rKT67VvRidIM6qM1GNj23cUDTXSsNMRhjeKQpbf+IqKK5170gBYMOtLLUOC/0QSbDambNPS28CGaNgAuguI0DIRSoFZX6VCLsmE0algDBXm9jY2hAl6CtJbbbGEIDE8OKVFoBY/EFubytYZq80HD7z0r1VRhlYtLNClGHLcxPuMuYuuSeJI3VjIY3xDMQObKLql7AWyCfMuy3MXJP1825sQpGZ7Id1sVbxZtEmwrnRkCl39w7S6xK5NYGZiAMkJabSPe9Da2wRq5jtST8zv3FTJ57r9ngLsMp11gD6wbFEZYv/d2i6bnQkU/3yAW+jJQXaJ/CfY81cgkxwbbtigQWMoVjry6Y1VgZe+VeF/c0xGSYW9YaOCfOzSOEwnafJYE2LFBUMLDX3RIG2ua8us3LsqyYfj+O/BtJf21iRGZ5H8lAywzwJ7wXZlna/iFCKhgrQS42xp8V8zFh10pxWHZoBX6SQzZN52jh1hAMotGlxGggWo+q4YasMjFZZgW6ITrsn9k+EqFWeAGAOM2i4j0FZtgTcu98p5WIlcRDaeHGMto71nztvRyNmM8tZWR9rkZbhCkgMzwq+lpQ16UCgY4kiLUpAquvXLlubTlWaF258oZ6X+aOAOnTfa66SQSPKgxfN7HMkZB6wJKStNuAZZgEy0zVS7zuFTHLQKLiahtQlRDpTE29oXSrhwJYKa2TiGRzjLrZ2drG6izTmuJabQtsNGqgp51Vt4ZTowOkTP6eU3juMyKiS1OAMCXGiEtLxh23OYPlBnLb7YI6LENTqXOHMrmzYriNW5tEt9TAPVPbmeRYI1PZ1GJtEa0IgWRCzXI9PvG6/3w7PnE9OHF42+8f/wP+aSeIBSTT6s5u15RZJEXovjdlZS6ha2HeTki/N1lmBcoz700I0YVJWtfEPejMrOPelOhMgIquqdDwc9/kkLlyq797kIc7mMX3d3EXHjjVDR65Bog3jKRr4s68VrjuTSzlG7pG1wSwIQMa7iLaYtmHvghz/bgi90ZI/LtBwFsEmXA/VKbeMNZ+QoA9FrK7FiBTAh/qm7jj7folA/gbboL2d/E4DG7th0UE58mLvul67GIYvCONDHloYr3MDk3wdQxiUAT8FFxYxibPYlTfpMzI9EONrFaa3uActECe29/F/I0UtWvC+EGBXf9gwR2WXLxr0gJGv2aeTIs1pq7pelKn74t1EaYdoW9CVsBY0DchCmiO1DVBpQqpfV/FK0fsJAp3N3rrBYIq6PfTzjzvw+3oThOkon40aGbMebDLQJCWwZZYect9TzzHEXpfdDzDZJ3rbQRRmaG+HxTLZCQDfVfc5wHv6OVp0bzv3XPLfHAo7pEDT/uBc4cfqDRoPXFLpwMbcAihb/TLlVnPMd2YAosmwPdOXgha8jVdV0GpF6Z4b4osSpGAdE2kzYl78fcmICBP43QKTTxlhkyoG0Riqcj43p9YKSEN6lqoc2YJXVPgKYbBUViG4n516ZsKyGqS4S4GMNcPHgMIrFyEoQmWzWLg0KRbBENTZgm4b2G5nnX0rskzJcpD76AecN/+rsTeRYYmLbf0GJWS7oGmfopIWrlV1U+RiE6+2Tdhyt72BoG4S//ydmhKJY0T4hEAPT/VDYKxmye++tGz1iqDJoBZJAa96j3PLIn0K5sMqV7fl9OC8jAhWimAvr8LDkXCFwZTMuDsPczrCQkzREWeuXDcPOybSKGCDE1Ilpgd9BK5q2WHB7GsDM79tD1LEr0fkAiwap4HDWZyt/45bitjabuRcj/Ajy1oYCLQN3meUUGw7ppg9CCMPZgyX8foe8jlSSY6o++baL22d89cWEYeuuK2PgzV9k2g9DzIMd41mDw6imjqnRNt3Of1uW9KJgduOHdNYBTRu+Eurfb5NDSxBNhrVGs+oFfDXdz4tUNX8CcS+mGkmRy57+qKZq4zXB6CilpYvzchDcYEXd+C5/zAdLhhjQn1K4EUFh7FDZSuKfJEYu8pLJoAK/sIwtMIBmw/9U3MEgY2VwjfMfbWDT6OmDkQz8J9eW6z9EMFs/e9m7O4H5ix9VNkUEnDXYh9wQ4RA9lHAPcd9KeVgeEeuR4kGZoCD0L64Tme5uvDNFObpAXybghIyM1AfQt790PsKerOedSyZU7T437R9D6WfhDQsGfRsmti1RfEoH+Qh3tK76w8CcvCQa9keI5ngWlo4jng8a5ALytDX5Y7A8OyQiCm2KNdCay4GDcMHtgqQ4rBc696KGiwQGSgzgx2CujksdbBRLiJP2gQXSFZ74eFzIHn8MrYpJt8w3PAzoFH8bwxtDoaM9E7x8GYEYtCH5Z5sDrH2If4wqIQyM6gLcj3o9kgO+cxpb6vRHMwg07hAXaIFoWnfwbEKGjgMNPQxMJEz/a5l4us3I2dh8D63zgEHkzygz2wnNnzAPJgYMGwYIEVnDC4q79ufw9NiB9ZzGAPrP2FPNgDZl1GnfKQNw8wDk0kkD6MuMWKztA9U7Q0wI/uYA08AKjFUumAp4F71cGNTkbw7NO9Qh8YTYSvNttSRqXykO/gGMlwBzLL0ITUdeDRhYW/MmRVUHxkJjKonudighlGynNHMtip4wEAOyJz5gsKg68kr68j9E1GruccO3jj4YGBsCLJhk0MqRcPE1pTRkA1PEYzxG7WVYfIxs0zkIoBdB2R344gz0OjIQ44zMPdw6hg3Hz1YgAI3TsaDJz7zQmqHsIkUcoP2oJxlYFj6vkabpkNTVn3+QYY4f7bENp4mtCMuCWeZ5rGaIdMcij+FB5h5KZ1r0AenYo9XSUDIyPveQbpCpjoSNMYBMvQJFHfuu/5Hbg3D4/2TQZGEvtwiukY+lnfkkTfiBhu4km6MPQEUhh7/SFc8LzQwNN4Ujf3mSPfONJKaT9B5Djw6WHO100NGdRQWJYYSBnfM4oysFWkYyX2Fs/yP7nGqFLu/fSxgOfruWE2qBQMDGRxpMzR6e5u1wQaGAc/RwLFevpAa/mKgYxkkUdE3MDj4Tp5KG6Q2vPkUK8HHiEk0+yb+CZA7M2bL3NZNxABNjExHJ6zWAoZnkvcnxnGKXyzaUiXyYV5HLxfREFiBAFDk24IfnMX349Iw+BzHKgIzDHz1ZY+Fyt6ImtI4sFymS8P6TlzqAHHEgNB6OtyLEZyXP1NwkMog0vzTD6PUvbFjJR4qqvncuC4joXv/kHSvTzQY9bxsdT9skam5mWgFKBVPC/Zd88zSTJmR4E0mkdohya+Q+TGUgypSO8XfO8o6DHmTiJITQg9kYri9PWhoYaD1ddTkV0Tt9lMTwS4IQYI71GEfs4NT+mbvNcEuW9C2BryOPhuAlCmoQkgwvN5vUCeMHLD4Pk2RB6qBkyOEG8HgXxzxo+aT3xjZ5g0tzV48ndQM0/i9CyDIYwY369P5n6XHZpSup7B65uCkp++e27ZpIEH4C5Eap+GB/memxsWltVvXwaB+kJGGnrnTudQ1+RrHNaMFbzAavQANoG7VyOcBp4C4Qmfrok77bFHU+5e5yGt8oGWlPvaoyCBAW4NlWh6/pAkOr6EqPtIfSUVfDL2wRU2xNp3GHZIPI9c9bshojlbzzuQ23J/t0cD4TjJbLomnmgwprdu0BUe++oNV7e/41DxJ+AjRvaIxLdU8uiIYJyRmNj35W6w2w8Cy2Bij4HAAr4rMQxeT6r0OQcV9U0NCeBDEthvVnHDOsSePfCdS3hAH+p4KNjyrHzXxNeecq+Z67sLri9cOKK+98O+imYqQ7kQ0UqPGQxbR6ychmFfwugZ/GFfgoCUhvo/tAy277+9Kw+7RAROP0A1j8JdX2/ttwTEhYFzgjmCaA/AyRPGIfQ3Wa24jtt4PDcfpUcV5qMwJOj9P2gL87qfejnNh+vng/SjUvolouuL6cvX+bTcTF+vn20y1zfPwBcTD0YUzzT/+umm82U6bKbTZjmfTseT3u6enL4CyjDDU0UyfzDXm0/zp9N8Pu+Oh+XvPGefuJOJPJlv+DDRSu3B+0egTvPrfreeLrct4Kw/95+i0rFaPZTA91p4NAarf7vr/iUq/5RZhudLyAAan2OT9Tp8Kup6ZoYuFxg+8MBt3rtPGA9GcriMX516OW7m/Z7fjHqeDp/m7j1/HRkCh/DVBOCW4QkGfWZ7mtYXauW4vX7gSu/3Tzw5C5jiTiSAosROkefd5o0fy4IqLliqb6Rwk4FvCXJnjVtUNzW1b2fd9Haap/Ptm1Y0il+18bDkN9lej7vD5Xqvd/b2Q/vaVG3qe3xioh3v/12Vya9mbbrh6VcleLXC+vcfQdDPVvBbEdU0dy8vc3+Hfv+BV9P+9Xmqc73q4+2wu1B59eNpw2e6dJBPi/9+vDzrB7fql8YWx8OifsarfowLdnXh17u+PM/487TYXRab027LT3NNJ37V7uX1rX2nq/9K1+PiMLNNf7gr8HGxmtcT9La4fDku9Itki81uu53heev5vNiy7/mweNkd0O95Mb1Op4uKOhwv+sxxdeZoaR73z57R+pbr4+Ezv3zWfZWsfb1tsTsv2sfdtPfr3/wiXJ336zz99IFDXdx7+h7T+ARhn/WTfoe+E95+XszTab+bT4+L87H7jZ+Wu48OQ68nNK6LudlNnw7H82W3Pt/R5t/x6fvPvwMVVyMnS9Lzk3q0Kl9NYXfYzK+ANcznbsi/10d54isGljkh0d665l3XLwsup6bW4093zV9/W33z26+/4l9+6W9+Wc2bzby5IcLD9nh60e8ZXuafL9+tz5//ywLAcDrPlz++XbYf8v2Lgdvdp7fTvOQnDNk4f9HPIn7/8L/+h35A8PR6PPPP1/3xsqTvcCQ71Sl+Px2/1K8cyuPD+XlChMHNeVNW0yaGsknIWraSNiA4U14jr2PEs2kOm802bFNYFT+H7cQ3HMpqE1egxtM86ccJN5By2q3eFKFeT8ftbs+BvExn+BGn/PNlPhDU9ROSOr7LM+f8y8Pq7bDRm+v3C6GoxzrT3YbfSdx+mGNizcmlDV8hWm3LxpTVOugHOyRNK4g4nnafdgfi3WV+6buDZk7HzdsaA4G47dtBcfSmpqfXr7hhDxh+mz6p7vj3Kwzr9ifu+aBDba1LuO/52oPlJylhmtr/tdc6oeV++np8u/RdfGepicPn3el4eJkPOnssPH/f71a40z2VJ95zeHvBMND9kzwZFQzDPGuD1Rtev16edQDuSXAT79FRQGtoNE/hSdB0nqfV8XTQFnFPOtj5Z4SR6+cvR3taVn09wQAfhhuX/+9s5fEBWEDe0HVpt9sNiFSJqwhGN+H5tZmK53H2VGYXwlw2cRs3fmPzSuIML966kgS9SlwPy3u1rDaT61refl3+ZpHrD20sMiWZVpN3m3kLTrK1fgNeNruZbzbZuC5bniIMm+A2XjdkvYurdbZbWW34yYWhU/1EJTr9qP/vTzcjmRVW/+Evfgp1c1y/0TYUzBfX9Xm6dvHx8PGwPR1fFsvl9u3CdVsudi/6edXpADy94T/uurViIdv19ROh+vjrdHmGvdVn/wl/ttvOX89NzLp+4HX5pX3g9Xbb9auuy+vw9ImPQNPtYnmaMJslBC/3u5fd5d37xYf/uvjH42H+/uNhgf+0dfFHynl6mX4+7/5tvv7w5RmIsfgX4OHtTv53OX3t/uJ/6Plpu5v3gDY8ehOi/74fbzzN0NDh3jb/vJ5fL4v/Dd/dggf+QIj/pu/r2L777o8LMdcp/c8f/vQDBksNvYPSMcLl8v0TZnzcf57fvX9CIMZSfTz8dtofD192oBLvtIfvFh97T6ODfXx4/wQifXh3w/A/avBYQMfHDcwAfyry47bFdF6AJQJRbsN9nb7uj9MG4+KaPvH6jG5+vryjcv5+t778CZF2Pr27PvX+/Y8f+y/Nfnz4M0ZHUg9+cUIvn2ZYzuX0blzTx8Ufrvc0b1qeP3/6Ax6tc/pDczP94ekLv3+6XH1FiH5Xu393G+z79xr4wCU3Gsf+9MN/+/t/+OHpZdMa705oRLZwwy1fKUhp3hAEJpbW10yN1znZKZmNmdbTZGycyqq4OW/nydq1vrTCLt/IfF5eoAB1doLl4neg4bw+7V4vf/PRv/no33y0+uj5p91+f/dGl91mmkv28+x1G0zWM8J1tlbfiM0z8kgzb3JE1FyXsI4bbsrDGcVvZhsY8a+RcEnS/TN6vP55vtGM/seOFIQJfZm08jyyvt4YD48vyNTxu1mleStulZ3Bv2vxPNIOFIjJrMtMhJgKOqY/UCOb3WleX44n8qknMqDz+nl+mfTz21fG9J20cVw/+v0CbSvFBj9rrPLGwMcVIIwoA9xrPrSk23KKp/XytzeSgSvr2h2QID50FBzcdhMmHzfQX16nVcZ8XNmuMhgWZsS9zbCNaZ6muFmXaQviO+cU1ytwlM0qJ/ZFV9OFRf5sign+rtvNXxwSP0/+12YLpDvjsYkfT/9rk/3NfX95rmJmF7duCy4X/dqltYt5Cpbvx2ztSrazm8oaLH8LBrmegPkgZTGvVqsJt4GWfTNXvkInv53q7wz8l9+OfLDE24AHa+3GbdPK8B0uvuRig6xXwo27zZbHelZbO7lcptUaXBYZp2wwP74Bm+fkV2XNOu834w4x/N6Q7inJbTiN23ZDMSxpOglQ1mYDJu5XsIi1D1Ne+XVIJWzztAJLLfy809blLVxYvw+JBHaTkv9mKCna3xvKEKOvgxkCXz+i9Xq9ctlvthPgwcBYXd4gLdiCE3tfJr6FN5mAlDfDPWcW6PmWvphNsfDy+TfKEcukssteWSXo/lYYv2PUJoIZ8Dj4DAuaszXbsp1jnN02lSmsWOeOW76/tJnXq2jCarPlUOd5NbtUiBZd1+3/ZsCBSfSrlh2YLT0+XHYXVcP/3//LB7/+X7eQjEtvYQAA</fig:figure-record>
</metadata><style>text{font-family:Arial,Helvetica,sans-serif;fill:#000000;font-weight:400}.title{font-size:20px;font-weight:700}.axis{font-size:22px;font-weight:400}.tick{font-size:20px;fill:#000000;font-weight:400}.legend{font-size:15px;font-weight:400}.grid{stroke:#dfe4ea;stroke-width:1}.frame{stroke:#000000;stroke-width:2;fill:none}.spine{stroke:#000000;stroke-width:2;fill:none;stroke-linecap:square}.tickmark{stroke:#000000;stroke-width:2;stroke-linecap:square}</style><rect width="1200" height="680" fill="#ffffff"/><text class="title" x="82.00" y="38.00" text-anchor="start">Coupling between SCN shell and SCN core</text><line class="tickmark" x1="82.00" y1="608.00" x2="82.00" y2="619.00"/><text class="tick" x="82.00" y="631.00" text-anchor="middle">36</text><line class="tickmark" x1="233.60" y1="608.00" x2="233.60" y2="619.00"/><text class="tick" x="233.60" y="631.00" text-anchor="middle">79.1</text><line class="tickmark" x1="385.20" y1="608.00" x2="385.20" y2="619.00"/><text class="tick" x="385.20" y="631.00" text-anchor="middle">122</text><line class="tickmark" x1="536.80" y1="608.00" x2="536.80" y2="619.00"/><text class="tick" x="536.80" y="631.00" text-anchor="middle">165</text><line class="tickmark" x1="688.40" y1="608.00" x2="688.40" y2="619.00"/><text class="tick" x="688.40" y="631.00" text-anchor="middle">208</text><line class="tickmark" x1="840.00" y1="608.00" x2="840.00" y2="619.00"/><text class="tick" x="840.00" y="631.00" text-anchor="middle">252</text><line class="tickmark" x1="82.00" y1="608.00" x2="71.00" y2="608.00"/><text class="tick" x="70.00" y="612.00" text-anchor="end">-2.18</text><line class="tickmark" x1="82.00" y1="502.00" x2="71.00" y2="502.00"/><text class="tick" x="70.00" y="506.00" text-anchor="end">-1.51</text><line class="tickmark" x1="82.00" y1="396.00" x2="71.00" y2="396.00"/><text class="tick" x="70.00" y="400.00" text-anchor="end">-0.84</text><line class="tickmark" x1="82.00" y1="290.00" x2="71.00" y2="290.00"/><text class="tick" x="70.00" y="294.00" text-anchor="end">-0.17</text><line class="tickmark" x1="82.00" y1="184.00" x2="71.00" y2="184.00"/><text class="tick" x="70.00" y="188.00" text-anchor="end">0.51</text><line class="tickmark" x1="82.00" y1="78.00" x2="71.00" y2="78.00"/><text class="tick" x="70.00" y="82.00" text-anchor="end">1.18</text><line class="spine" x1="82" y1="608" x2="840" y2="608"/><line class="spine" x1="82" y1="78" x2="82" y2="608"/><polyline points="82.00,578.42 83.76,578.43 85.52,578.54 87.28,578.56 89.03,578.68 90.79,578.70 92.55,578.82 94.31,578.85 96.07,578.96 97.83,578.99 99.59,579.08 101.35,579.12 103.10,579.19 104.86,579.23 106.62,579.27 108.38,579.30 110.14,579.32 111.90,579.35 113.66,579.33 115.42,579.35 117.17,579.31 118.93,579.32 120.69,579.26 122.45,579.26 124.21,579.18 125.97,579.17 127.73,579.07 129.48,579.06 131.24,578.95 133.00,578.93 134.76,578.83 136.52,578.79 138.28,578.70 140.04,578.66 141.80,578.58 143.55,578.53 145.31,578.47 147.07,578.43 148.83,578.39 150.59,578.35 152.35,578.33 154.11,578.30 155.87,578.31 157.62,578.28 159.38,578.31 161.14,578.30 162.90,578.35 164.66,578.35 166.42,578.42 168.18,578.43 169.94,578.51 171.69,578.53 173.45,578.62 175.21,578.65 176.97,578.74 178.73,578.77 180.49,578.86 182.25,578.90 184.00,578.98 185.76,579.03 187.52,579.09 189.28,579.14 191.04,579.18 192.80,579.23 194.56,579.25 196.32,579.29 198.07,579.30 199.83,579.32 201.59,579.31 203.35,579.33 205.11,579.29 206.87,579.30 208.63,579.25 210.39,579.25 212.14,579.18 213.90,579.17 215.66,579.10 217.42,579.07 219.18,579.00 220.94,578.96 222.70,578.89 224.45,578.85 226.21,578.78 227.97,578.74 229.73,578.68 231.49,578.64 233.25,578.59 235.01,578.55 236.77,578.52 238.52,578.49 240.28,578.48 242.04,578.45 243.80,578.46 245.56,578.44 247.32,578.47 249.08,578.46 250.84,578.50 252.59,578.51 254.35,578.56 256.11,578.58 257.87,578.64 259.63,578.67 261.39,578.74 263.15,578.77 264.90,578.84 266.66,578.89 268.42,578.95 270.18,579.00 271.94,579.06 273.70,579.10 275.46,579.15 277.22,579.20 278.97,579.23 280.73,579.27 282.49,579.29 284.25,579.32 286.01,579.32 287.77,579.34 289.53,579.33 291.29,579.34 293.04,579.31 294.80,579.31 296.56,579.27 298.32,579.26 300.08,579.20 301.84,579.18 303.60,579.12 305.35,579.09 307.11,579.03 308.87,578.99 310.63,578.93 312.39,578.88 314.15,578.83 315.91,578.78 317.67,578.73 319.42,578.69 321.18,578.65 322.94,578.61 324.70,578.59 326.46,578.56 328.22,578.55 329.98,578.53 331.74,578.53 333.49,578.52 335.25,578.54 337.01,578.54 338.77,578.58 340.53,578.59 342.29,578.63 344.05,578.66 345.81,578.71 347.56,578.74 349.32,578.80 351.08,578.84 352.84,578.90 354.60,578.94 356.36,579.00 358.12,579.04 359.87,579.09 361.63,579.14 363.39,579.18 365.15,579.22 366.91,579.25 368.67,579.28 370.43,579.30 372.19,579.32 373.94,579.32 375.70,579.34 377.46,579.33 379.22,579.33 380.98,579.30 382.74,579.29 384.50,579.26 386.26,579.23 388.01,579.19 389.77,579.16 391.53,579.11 393.29,579.07 395.05,579.02 396.81,578.97 398.57,578.92 400.32,578.87 402.08,578.82 403.84,578.78 405.60,578.73 407.36,578.69 409.12,578.66 410.88,578.62 412.64,578.60 414.39,578.58 416.15,578.56 417.91,578.55 419.67,578.55 421.43,578.55 423.19,578.56 424.95,578.57 426.71,578.60 428.46,578.62 430.22,578.66 431.98,578.69 433.74,578.73 435.50,578.77 437.26,578.82 439.02,578.86 440.77,578.91 442.53,578.96 444.29,579.01 446.05,579.06 447.81,579.10 449.57,579.15 451.33,579.18 453.09,579.22 454.84,579.25 456.60,579.28 458.36,579.30 460.12,579.31 461.88,579.32 463.64,579.32 465.40,579.32 467.16,579.31 468.91,579.29 470.67,579.27 472.43,579.24 474.19,579.21 475.95,579.17 477.71,579.13 479.47,579.09 481.23,579.04 482.98,578.99 484.74,578.94 486.50,578.90 488.26,578.85 490.02,578.80 491.78,578.76 493.54,578.71 495.29,578.67 497.05,578.64 498.81,578.61 500.57,578.58 502.33,578.57 504.09,578.55 505.85,578.55 507.61,578.54 509.36,578.55 511.12,578.56 512.88,578.58 514.64,578.60 516.40,578.63 518.16,578.66 519.92,578.70 521.68,578.74 523.43,578.78 525.19,578.83 526.95,578.88 528.71,578.93 530.47,578.98 532.23,579.03 533.99,579.07 535.74,579.12 537.50,579.16 539.26,579.20 541.02,579.23 542.78,579.27 544.54,579.28 546.30,579.31 548.06,579.31 549.81,579.33 551.57,579.32 553.33,579.32 555.09,579.30 556.85,579.29 558.61,579.26 560.37,579.23 562.13,579.19 563.88,579.16 565.64,579.11 567.40,579.07 569.16,579.02 570.92,578.97 572.68,578.92 574.44,578.87 576.19,578.82 577.95,578.77 579.71,578.73 581.47,578.68 583.23,578.65 584.99,578.61 586.75,578.59 588.51,578.55 590.26,578.55 592.02,578.52 593.78,578.53 595.54,578.52 597.30,578.54 599.06,578.54 600.82,578.57 602.58,578.59 604.33,578.63 606.09,578.66 607.85,578.71 609.61,578.75 611.37,578.80 613.13,578.85 614.89,578.90 616.65,578.95 618.40,579.00 620.16,579.06 621.92,579.10 623.68,579.16 625.44,579.19 627.20,579.24 628.96,579.26 630.71,579.31 632.47,579.31 634.23,579.35 635.99,579.34 637.75,579.37 639.51,579.35 641.27,579.35 643.03,579.32 644.78,579.32 646.54,579.28 648.30,579.25 650.06,579.21 651.82,579.17 653.58,579.12 655.34,579.07 657.10,579.02 658.85,578.96 660.61,578.92 662.37,578.85 664.13,578.81 665.89,578.75 667.65,578.72 669.41,578.65 671.16,578.63 672.92,578.58 674.68,578.57 676.44,578.52 678.20,578.53 679.96,578.50 681.72,578.52 683.48,578.50 685.23,578.53 686.99,578.53 688.75,578.57 690.51,578.59 692.27,578.64 694.03,578.67 695.79,578.73 697.55,578.78 699.30,578.83 701.06,578.89 702.82,578.94 704.58,579.01 706.34,579.05 708.10,579.13 709.86,579.16 711.61,579.24 713.37,579.26 715.13,579.33 716.89,579.34 718.65,579.40 720.41,579.40 722.17,579.45 723.93,579.43 725.68,579.46 727.44,579.43 729.20,579.44 730.96,579.40 732.72,579.39 734.48,579.35 736.24,579.32 738.00,579.27 739.75,579.22 741.51,579.17 743.27,579.11 745.03,579.06 746.79,578.99 748.55,578.94 750.31,578.86 752.06,578.83 753.82,578.74 755.58,578.72 757.34,578.64 759.10,578.63 760.86,578.56 762.62,578.56 764.38,578.50 766.13,578.52 767.89,578.48 769.65,578.51 771.41,578.49 773.17,578.53 774.93,578.53 776.69,578.58 778.45,578.61 780.20,578.66 781.96,578.71 783.72,578.77 785.48,578.83 787.24,578.89 789.00,578.97 790.76,579.02 792.52,579.11 794.27,579.15 796.03,579.25 797.79,579.28 799.55,579.38 801.31,579.39 803.07,579.48 804.83,579.48 806.58,579.56 808.34,579.54 810.10,579.60 811.86,579.57 813.62,579.61 815.38,579.57 817.14,579.58 818.90,579.53 820.65,579.51 822.41,579.46 824.17,579.41 825.93,579.36 827.69,579.29 829.45,579.24 831.21,579.14 832.97,579.10 834.72,578.99 836.48,578.95 838.24,578.83 840.00,578.80" fill="none" stroke="#0e8f8f" stroke-width="2.4" stroke-linejoin="round" stroke-linecap="round"/><line x1="860" y1="94.0" x2="888.0" y2="94.0" stroke="#0e8f8f" stroke-width="3"/><text class="legend" x="896.00" y="99.00" text-anchor="start">Lag, SCN core minus SCN shell (h)</text><polyline points="124.21,106.39 125.97,106.39 127.73,106.39 129.48,106.39 131.24,106.39 133.00,106.39 134.76,106.39 136.52,106.39 138.28,106.39 140.04,106.39 141.80,106.39 143.55,106.39 145.31,106.39 147.07,106.39 148.83,106.39 150.59,106.39 152.35,106.39 154.11,106.39 155.87,106.39 157.62,106.39 159.38,106.39 161.14,106.39 162.90,106.39 164.66,106.39 166.42,106.39 168.18,106.39 169.94,106.39 171.69,106.39 173.45,106.39 175.21,106.39 176.97,106.39 178.73,106.39 180.49,106.39 182.25,106.39 184.00,106.39 185.76,106.39 187.52,106.39 189.28,106.39 191.04,106.39 192.80,106.39 194.56,106.39 196.32,106.39 198.07,106.39 199.83,106.39 201.59,106.39 203.35,106.39 205.11,106.39 206.87,106.39 208.63,106.39 210.39,106.39 212.14,106.39 213.90,106.39 215.66,106.39 217.42,106.39 219.18,106.39 220.94,106.39 222.70,106.39 224.45,106.39 226.21,106.39 227.97,106.39 229.73,106.39 231.49,106.39 233.25,106.39 235.01,106.39 236.77,106.39 238.52,106.39 240.28,106.39 242.04,106.39 243.80,106.39 245.56,106.39 247.32,106.39 249.08,106.39 250.84,106.39 252.59,106.39 254.35,106.39 256.11,106.39 257.87,106.39 259.63,106.39 261.39,106.39 263.15,106.39 264.90,106.39 266.66,106.39 268.42,106.39 270.18,106.39 271.94,106.39 273.70,106.39 275.46,106.39 277.22,106.39 278.97,106.39 280.73,106.39 282.49,106.39 284.25,106.39 286.01,106.39 287.77,106.39 289.53,106.39 291.29,106.39 293.04,106.39 294.80,106.39 296.56,106.39 298.32,106.39 300.08,106.39 301.84,106.39 303.60,106.39 305.35,106.39 307.11,106.39 308.87,106.39 310.63,106.39 312.39,106.39 314.15,106.39 315.91,106.39 317.67,106.39 319.42,106.39 321.18,106.39 322.94,106.39 324.70,106.39 326.46,106.39 328.22,106.39 329.98,106.39 331.74,106.39 333.49,106.39 335.25,106.39 337.01,106.39 338.77,106.39 340.53,106.39 342.29,106.39 344.05,106.39 345.81,106.39 347.56,106.39 349.32,106.39 351.08,106.39 352.84,106.39 354.60,106.39 356.36,106.39 358.12,106.39 359.87,106.39 361.63,106.39 363.39,106.39 365.15,106.39 366.91,106.39 368.67,106.39 370.43,106.39 372.19,106.39 373.94,106.39 375.70,106.39 377.46,106.39 379.22,106.39 380.98,106.39 382.74,106.39 384.50,106.39 386.26,106.39 388.01,106.39 389.77,106.39 391.53,106.39 393.29,106.39 395.05,106.39 396.81,106.39 398.57,106.39 400.32,106.39 402.08,106.39 403.84,106.39 405.60,106.39 407.36,106.39 409.12,106.39 410.88,106.39 412.64,106.39 414.39,106.39 416.15,106.39 417.91,106.39 419.67,106.39 421.43,106.39 423.19,106.39 424.95,106.39 426.71,106.39 428.46,106.39 430.22,106.39 431.98,106.39 433.74,106.39 435.50,106.39 437.26,106.39 439.02,106.39 440.77,106.39 442.53,106.39 444.29,106.39 446.05,106.39 447.81,106.39 449.57,106.39 451.33,106.39 453.09,106.39 454.84,106.39 456.60,106.39 458.36,106.39 460.12,106.39 461.88,106.39 463.64,106.39 465.40,106.39 467.16,106.39 468.91,106.39 470.67,106.39 472.43,106.39 474.19,106.39 475.95,106.39 477.71,106.39 479.47,106.39 481.23,106.39 482.98,106.39 484.74,106.39 486.50,106.39 488.26,106.39 490.02,106.39 491.78,106.39 493.54,106.39 495.29,106.39 497.05,106.39 498.81,106.39 500.57,106.39 502.33,106.39 504.09,106.39 505.85,106.39 507.61,106.39 509.36,106.39 511.12,106.39 512.88,106.39 514.64,106.39 516.40,106.39 518.16,106.39 519.92,106.39 521.68,106.39 523.43,106.39 525.19,106.39 526.95,106.39 528.71,106.39 530.47,106.39 532.23,106.39 533.99,106.39 535.74,106.39 537.50,106.39 539.26,106.39 541.02,106.39 542.78,106.39 544.54,106.39 546.30,106.39 548.06,106.39 549.81,106.39 551.57,106.39 553.33,106.39 555.09,106.39 556.85,106.39 558.61,106.39 560.37,106.39 562.13,106.39 563.88,106.39 565.64,106.39 567.40,106.39 569.16,106.39 570.92,106.39 572.68,106.39 574.44,106.39 576.19,106.39 577.95,106.39 579.71,106.39 581.47,106.39 583.23,106.39 584.99,106.39 586.75,106.39 588.51,106.39 590.26,106.39 592.02,106.39 593.78,106.39 595.54,106.39 597.30,106.39 599.06,106.39 600.82,106.39 602.58,106.39 604.33,106.39 606.09,106.39 607.85,106.39 609.61,106.39 611.37,106.39 613.13,106.39 614.89,106.39 616.65,106.39 618.40,106.39 620.16,106.39 621.92,106.39 623.68,106.39 625.44,106.39 627.20,106.39 628.96,106.39 630.71,106.39 632.47,106.39 634.23,106.39 635.99,106.39 637.75,106.39 639.51,106.39 641.27,106.39 643.03,106.39 644.78,106.39 646.54,106.39 648.30,106.39 650.06,106.39 651.82,106.39 653.58,106.39 655.34,106.39 657.10,106.39 658.85,106.39 660.61,106.39 662.37,106.39 664.13,106.39 665.89,106.39 667.65,106.39 669.41,106.39 671.16,106.39 672.92,106.39 674.68,106.39 676.44,106.39 678.20,106.39 679.96,106.39 681.72,106.39 683.48,106.39 685.23,106.39 686.99,106.39 688.75,106.39 690.51,106.39 692.27,106.39 694.03,106.39 695.79,106.39 697.55,106.39 699.30,106.39 701.06,106.39 702.82,106.39 704.58,106.39 706.34,106.39 708.10,106.39 709.86,106.39 711.61,106.39 713.37,106.39 715.13,106.39 716.89,106.39 718.65,106.39 720.41,106.39 722.17,106.39 723.93,106.39 725.68,106.39 727.44,106.39 729.20,106.39 730.96,106.39 732.72,106.39 734.48,106.39 736.24,106.39 738.00,106.39 739.75,106.39 741.51,106.39 743.27,106.39 745.03,106.39 746.79,106.39 748.55,106.39 750.31,106.39 752.06,106.39 753.82,106.39 755.58,106.39 757.34,106.39 759.10,106.39 760.86,106.39 762.62,106.39 764.38,106.39 766.13,106.39 767.89,106.39 769.65,106.39 771.41,106.39 773.17,106.39 774.93,106.39 776.69,106.39 778.45,106.39 780.20,106.39 781.96,106.39 783.72,106.39 785.48,106.39 787.24,106.39 789.00,106.39 790.76,106.39 792.52,106.39 794.27,106.39 796.03,106.39 797.79,106.39" fill="none" stroke="#7755a6" stroke-width="2.4" stroke-linejoin="round" stroke-linecap="round"/><line x1="860" y1="122.0" x2="888.0" y2="122.0" stroke="#7755a6" stroke-width="3"/><text class="legend" x="896.00" y="127.00" text-anchor="start">Phase-locking value (0-1)</text><polyline points="82.00,578.94 840.00,578.94" fill="none" stroke="#B0B0B0" stroke-width="2.4" stroke-linejoin="round" stroke-linecap="round"/><line x1="860" y1="150.0" x2="888.0" y2="150.0" stroke="#B0B0B0" stroke-width="3"/><text class="legend" x="896.00" y="155.00" text-anchor="start">Mean lag -2.00 h</text><text class="axis" x="461.00" y="658.00" text-anchor="middle">Time (h)</text><text class="axis" x="0.00" y="0.00" transform="translate(22.00 343.00) rotate(-90)" text-anchor="middle">Lag (h) and locking value</text><desc>Lag -2.00 h (95% CI -2.00 to -2.00); SCN shell peaks first. locking value greater than 0.999. not locked. the lag moved by 0.00 h (0.0% of a 24 h cycle) across the record, and the slope fitted over 8 whole cycles excludes zero</desc><rect x="0" y="680" width="1200" height="62" fill="#ffffff"/><text class="legend" x="82.00" y="711.00" text-anchor="start"><tspan x="82.00" dy="-0.55em">Lag -2.00 h (95% CI -2.00 to -2.00); SCN shell peaks first. locking value greater than 0.999. not locked. the lag moved by 0.00 h (0.0% of a 24 h</tspan><tspan x="82.00" dy="1.1em">cycle) across the record, and the slope fitted over 8 whole cycles excludes zero</tspan></text></svg>