<svg xmlns="http://www.w3.org/2000/svg" width="1200" height="742" viewBox="0 0 1200 742" role="img" aria-label="Sleep across the folded day">
<metadata>
  <fig:figure-record xmlns:fig="https://reprofig.org/ns/figure-record/1" schema="reprofig/1" encoding="gzip+base64">H4sIAAAAAAACCu1abW/juBH+K4K/XII6WpKSSCmHLXDobdEPvbbYHtAP64NAkcNYXb0YEp2XW+x/7wwlO3aSzbmHugW6l0CGNRwOn2dIzowof1roTjcPYz0urj8tTKPrdnG9+EM9GG1r3UX/6IePFXRmHRm8M7ox20Z7iHRnI7jf9IOP/Bqi0fQDRHXb9lXd1P4hGhuATTTAuG18NK77uy5awwDxYrm4GXTb6gGH8XULTd3B4vNyYQZAu7bUHhsEE/KKFVdM/cjya5Ffc/U7xq8Zw+5We12OXvstQl6Yvt004GHX4HXVADZ8QDJ9s2270vTbDm2K5SyYGq1/2AD233YfOwSH3TvdkmDvjuVis62a2oSxJlV0zzjWrgaLiF+xMdEu/zn23S+Z+YlgdR46Px4MvjywsOqCL5erxafVYrUInrb07doPW1jSN9973ZRBrWzrbuthDApCpixmQWVqdIM2vkab1MpiIQouD/+CalPfrP3r1qwePr6gsWueLKz77TDJuTjs94K86rd+mqhJPgFpQXdlaDochMts7tUCLdHXNJq+u4HRv6CS77CiS25adL8mvwTFsdzAEFDOpBJ5/J/NXB4mWx8+Tbcewi19TOs3u2Kc7g4m4BBDkhz76zWNX3D4E/+JILzVTW2Pp5z/2gnajgdrDtf+lxmLr45x8tUxTr86xtlXx1h+dYzVV8c4/79k/NN+0MP8jOXX4F9I0KHAZHtHQGdfUuL8UOnlSqLuyoD8qe+/ODLPrpNfHjnHsvflkbNfObI4hbM4B2dxCmdxDs7JKZyTc3BOTuGcnINzegrn9Byc01M4p+fgnJ3COTsH5+wUztk5OMtTOMtzcJancJbn4KxO4azOwVmdwlmdg3N+Cuf8HJzzUzjnv5LzlK83Q+/qBg7S+wfqwmKR4QddKltShcBJwmO6UEIlgCCJiOlCSYKShCRJTBdKUpSkJEljulBC5wMZSbKYLpRIlEiSyJgulCiUKJKomC6U5CjJSZLHdKGkQElBkiKmixASaB5Qc4LNJ9wB+IQ8QA/YQ/3CA3pO8HnAz4kADww4UeCBAycSPLDgRIMHHpyI8MCEExUeuHAiwwMbTnR44MOJEA+MOFHigRMnUjyw4kSLB16ciPHAjBM1HrgJ4iYCN0HcROAmiJsI3ARxE9O8hImZZiZMTeAmiJsI3ARxE8TteP5fOKiaF8L/9uL/5vXfHPPM3KcJGjWdtJZ152HA4v34OG2/u/cnwMdHh7t2mtVbavXrAcZ139j5SWE6U4N702wt2HJ/uDZ1u4XB1uYxMD0egobmn6H2N1DBsFfYh5jj9tI8GOTQ6AqavS6dXwf9KLTue5mhRqq7RUgf30XDtot6FwkWzfSifohaOvu+q/062tGLtKcGHKW/i4hcVHfR5MAx4o+d9QbD7XI6PbeRHudjc4d9az9Gd+ggxAbdjV9/G+ku2vlnthVhHEYjAdWgkccQ+TWqVUNtb+ruBo3E0Y9Iz9/10Vo3t4TXhQN7dHCkEfa4wcmKqofoiRfivRu6fn507LZN8xm/0Zk2tBVYBDIfQi8QcRtO7j3c+zdmvP02Mms9jODfbr27yh/Pxl19sx2gpMN6EsJdeAFwvfjzH8NR+bDpR7rdNL0vdWfDsXk9+trQifzQ3+3O8/lyMa61yCTZVLpQ1gFzGZdCsdzZpMiUKSputOZplhqeGSGYsyYpUitcZgrDJPAkhULxcAxvcZShrrbhHHiORmi71SOuAqJ876EbsTG8KQn40NmebqptZ4Py4/K/CjO5+Px5uWNcW3oz4K64Srg2zjmANEXEumDMVsxKawRU1uFQ/VDj9NGRvof2JbNLCpd2axAYDu+2XQiWs9vizQMqNLq72eqb4Eu632jzcb5FnasAfS8tcYONkwVBL2MGmOxPVncEcd884FP1oYk3gjzT3dZD39EpOinjQqD2pq5QM4kxi9BEb1uEgeZjDFhh4M7qMQhEUNg8+HUAkMSYBznpBBToPRTiHoo5ikbQVT90QUI5ksDCPW676cXP8foqn/otxoW5OOpQ/ufW0HKxhobeHOxN5qjkrOBJISspWa4t9mG6SGWqUlVAkmVQWOmkRXN5xSWIPHMJGrMS78zRNE8r7hmjaW5nrfLZpO8aHmkmSjkQRcU4l1mSuqKq0tSkBRTSgNMZwqmKxDGhUi0Yr5RiNuEJJAhPVtWRUSzVDI21Cv/v50UDIZb8/eU3grY32/3rlmiarHjqv+pWnRv6NipLt/U0iSX2D68YdYdRKHQZSWuW4mzuv09vykL3DUZCXHy7vn/D273a+DDuhzG7l5zl3f4l56w2vdksJ3ihx6qz4KJy0PUIJQ6MRWxb+4vL6Or30V/6Dq5XXYR/QRq9pXHiVt+P9c8wNdytMZxEP2KwnDXpzw8PB3f0h5ZjV0ODcQ+7zoOEz8tjxQHQQ92jDDMDbHz0V9zIDpPOu2Hohye2J2xv3rzFDDRR+tO79+8QLHnoAp1O5Vd5GSPjHlPFxWWM2QmnatU9p73qQr67CBbeRKvDbUe7bLW4jPsNdBdzgH8b0gnmK9NbTEx4G9ICqlHWw5yF4WWGu9EPTa8t4qI5jen7iGbu/QU553ssA96DtjBcTL0uLz+sDl+4rhY/ITrEjSqYD99GN4Arxw8Xx3O6jL6ZdOaCc7y9+Qb77Qh982yjBYX4jmqCsnrA5H2xG+NiRnx5GVLjgOhCpnv/7rvvf3gXt3YvfNyGuPuc4tplQhVKgaVwoAuRY5BhqTC5Ehr3HdMYevDxShe4JSF3oIUwQqoiRMctvdtuW/RC2O4UPqNXgsSI9czG/7Zbf9utv+3Wx906fqyb5nFfJnliNRR5isVZkRdJyjEpYnIWmMVlVuTAeM7A5lKniSkyIy1TKsdtyVMLIqOSdsqK+Jxk4R4tTrfjXHocNh4UClgEYmWgqlTljBvLUtz7WHwwbGeVAseTKk8YfhqecpXmGA+kYqYAihW6QMO0KXCqSlsPYHw/UK0VU3U0mjW0OvwoZaqm3vA9jumnMC26PJTjWLvtK8+5Wj+eBgokoTpscHffQkl7lygOpnyuSNX6VBR3my3Vmnu6SjCb6VRa9F9uVJUjn6RwVe64QkaF4FnmpAKtsSYutDMZg1xJUwnubJUrskX7LUwsPVwWLEsffWu/CIl+tPMaWwx3I3abntNeIftM78tcOYNEusRhfSdTkyiTyFxngjPGnKi4g0QXxorUVUVqNEZ/rpXMq6rSqAZOPuHKi0Tx51RfAP7pOfKjlTgDPlqtB7iFqliRFqpIilxk3FQ8z5PMOi5kUTmhk7zQlcH6VsqUW+SnlEhyUGlVIEX2dI4ymb0E6fFxZYazr3cPl0slc2ZBiQqL0gzrZFdx4WyaWq1doXEB0c6wKZbrHPeM0LhSpMPNCJl2TLInUJRMX4JylK0nMEfZ7xAR1vCQ81ymFicT3aKThLmK4cMb5vJUCrDSZHmau8LaROfCCUhVUlFGr1Ko+FPncE4PoAdPutcfju5DLH+MUVZijSDQ34ArCHJ8JCkcSAmJU4XOqpzLXLqsYLkF9ATLEJd1mgNUkKiCosWB6f0v6Tp64N5smtqEJ6nlwtc+uOGMPwb8/C9mpNirfygAAA==</fig:figure-record>
</metadata><style>text{font-family:Arial,Helvetica,sans-serif;fill:#000000;font-weight:400}.title{font-size:20px;font-weight:700}.axis{font-size:22px;font-weight:400}.tick{font-size:20px;fill:#000000;font-weight:400}.legend{font-size:15px;font-weight:400}.grid{stroke:#dfe4ea;stroke-width:1}.frame{stroke:#000000;stroke-width:2;fill:none}.spine{stroke:#000000;stroke-width:2;fill:none;stroke-linecap:square}.tickmark{stroke:#000000;stroke-width:2;stroke-linecap:square}</style><rect width="1200" height="680" fill="#ffffff"/><text class="title" x="82.00" y="38.00" text-anchor="start">Sleep across the folded day</text><line class="tickmark" x1="82.00" y1="608.00" x2="82.00" y2="619.00"/><text class="tick" x="82.00" y="631.00" text-anchor="middle">0</text><line class="tickmark" x1="298.80" y1="608.00" x2="298.80" y2="619.00"/><text class="tick" x="298.80" y="631.00" text-anchor="middle">4.75</text><line class="tickmark" x1="515.60" y1="608.00" x2="515.60" y2="619.00"/><text class="tick" x="515.60" y="631.00" text-anchor="middle">9.5</text><line class="tickmark" x1="732.40" y1="608.00" x2="732.40" y2="619.00"/><text class="tick" x="732.40" y="631.00" text-anchor="middle">14.2</text><line class="tickmark" x1="949.20" y1="608.00" x2="949.20" y2="619.00"/><text class="tick" x="949.20" y="631.00" text-anchor="middle">19</text><line class="tickmark" x1="1166.00" y1="608.00" x2="1166.00" y2="619.00"/><text class="tick" x="1166.00" y="631.00" text-anchor="middle">23.8</text><line class="tickmark" x1="82.00" y1="608.00" x2="71.00" y2="608.00"/><text class="tick" x="70.00" y="612.00" text-anchor="end">0</text><line class="tickmark" x1="82.00" y1="502.00" x2="71.00" y2="502.00"/><text class="tick" x="70.00" y="506.00" text-anchor="end">0.21</text><line class="tickmark" x1="82.00" y1="396.00" x2="71.00" y2="396.00"/><text class="tick" x="70.00" y="400.00" text-anchor="end">0.42</text><line class="tickmark" x1="82.00" y1="290.00" x2="71.00" y2="290.00"/><text class="tick" x="70.00" y="294.00" text-anchor="end">0.63</text><line class="tickmark" x1="82.00" y1="184.00" x2="71.00" y2="184.00"/><text class="tick" x="70.00" y="188.00" text-anchor="end">0.84</text><line class="tickmark" x1="82.00" y1="78.00" x2="71.00" y2="78.00"/><text class="tick" x="70.00" y="82.00" text-anchor="end">1.05</text><line class="spine" x1="82" y1="608" x2="1166" y2="608"/><line class="spine" x1="82" y1="78" x2="82" y2="608"/><polyline points="82.00,608.00 93.41,608.00 104.82,608.00 116.23,608.00 127.64,608.00 139.05,608.00 150.46,608.00 161.87,608.00 173.28,608.00 184.69,608.00 196.11,608.00 207.52,608.00 218.93,608.00 230.34,608.00 241.75,608.00 253.16,608.00 264.57,608.00 275.98,608.00 287.39,608.00 298.80,608.00 310.21,608.00 321.62,608.00 333.03,608.00 344.44,608.00 355.85,608.00 367.26,608.00 378.67,608.00 390.08,608.00 401.49,608.00 412.91,608.00 424.32,608.00 435.73,608.00 447.14,608.00 458.55,103.24 469.96,103.24 481.37,103.24 492.78,103.24 504.19,103.24 515.60,103.24 527.01,103.24 538.42,103.24 549.83,103.24 561.24,103.24 572.65,103.24 584.06,103.24 595.47,608.00 606.88,608.00 618.29,608.00 629.71,608.00 641.12,608.00 652.53,608.00 663.94,608.00 675.35,608.00 686.76,608.00 698.17,608.00 709.58,608.00 720.99,608.00 732.40,608.00 743.81,608.00 755.22,608.00 766.63,608.00 778.04,608.00 789.45,103.24 800.86,103.24 812.27,103.24 823.68,103.24 835.09,103.24 846.51,103.24 857.92,103.24 869.33,103.24 880.74,103.24 892.15,103.24 903.56,608.00 914.97,608.00 926.38,608.00 937.79,608.00 949.20,608.00 960.61,608.00 972.02,608.00 983.43,608.00 994.84,608.00 1006.25,608.00 1017.66,608.00 1029.07,608.00 1040.48,608.00 1051.89,608.00 1063.31,608.00 1074.72,608.00 1086.13,608.00 1097.54,608.00 1108.95,608.00 1120.36,608.00 1131.77,608.00 1143.18,608.00 1154.59,608.00 1166.00,608.00" fill="none" stroke="#0e8f8f" stroke-width="2.4" stroke-linejoin="round" stroke-linecap="round"/><line x1="82" y1="58" x2="110" y2="58" stroke="#0e8f8f" stroke-width="3"/><text class="legend" x="118.00" y="63.00" text-anchor="start">Sleep</text><polyline points="629.71,608.00 629.71,103.24" fill="none" stroke="#d98a17" stroke-width="2.4" stroke-linejoin="round" stroke-linecap="round"/><line x1="272" y1="58" x2="300" y2="58" stroke="#d98a17" stroke-width="3"/><text class="legend" x="308.00" y="63.00" text-anchor="start">Light phase ends (12 h of light)</text><text class="axis" x="624.00" y="658.00" text-anchor="middle">Time of day (h)</text><text class="axis" x="0.00" y="0.00" transform="translate(22.00 343.00) rotate(-90)" text-anchor="middle">Fraction of samples asleep</text><desc>44.0 h of sleep, 22.9% of the record. 44.0 h in the light, 0.0 h in the dark. 16 bouts, 0.36 per hour of sleep. A run of 20 minutes or more with activity at or below 0.5, in samples 10 minutes apart, scored as sleep for its whole length; an excluded sample ends a run rather than bridging it. The two halves of the day are split by the light cycle.</desc><rect x="0" y="680" width="1200" height="62" fill="#ffffff"/><text class="legend" x="82.00" y="711.00" text-anchor="start"><tspan x="82.00" dy="-1.10em">44.0 h of sleep, 22.9% of the record. 44.0 h in the light, 0.0 h in the dark. 16 bouts, 0.36 per hour of sleep. A run of 20 minutes or more with</tspan><tspan x="82.00" dy="1.1em">activity at or below 0.5, in samples 10 minutes apart, scored as sleep for its whole length; an excluded sample ends a run rather than bridging it.</tspan><tspan x="82.00" dy="1.1em">The two halves of the day are split by the light cycle.</tspan></text></svg>