<svg xmlns="http://www.w3.org/2000/svg" width="1200" height="725" viewBox="0 0 1200 725" role="img" aria-label="Normalised recording">
<metadata>
  <fig:figure-record xmlns:fig="https://reprofig.org/ns/figure-record/1" schema="reprofig/1" encoding="gzip+base64">H4sIAAAAAAACCuy9a49jR5Il+FcCuR9ahZGi/P3Qoheo6anBDKaru9Bduz1AqRC4JC8z2GKQOSRDUnZB/33PMb9kMCIjr1vtftgPS6lKKZGX5n7d3Y493eyvH4bdsP183Bw/fP/XD8vtsHn68P2Hf9gclsNqM+zu/m1/+HEx7paPd0v813LYLp+3w2m8G3aru/GXT/vD6e70ON4d8Q0+vDuMy/1htdl9xL8dn7enu+Pj/ufd3eN4GO8/fPvh42F4ehoOGOG0eRq3m9344ddvPywPI0iuHoYTvnDGpe9M/c7FPxn3vUvfe/ufjP3eGPx8NZyGh+NpOD1jth+W+6dP2/E0nr84DYvtiC/+jPfYb5+fdg/L/fMONN230wfty9Xp86cRv3/e/bjD5PDz3fDEDy4r8e2HT8+L7WYpY7VHsTLH42a9GVeY8QyN9toP/37c73pk/sJp7U7j7nS8GvzbKwo/7Hb7w9Ow3fzH+O0PH/76w4cfPlwWmP/xvXzEkeW/+I+XnRt/Gbg+/PBb/uO4fz4sx4dXTx/HcTWuvvbomoOfXh7+vMNWn/A+q/3y+PLwaTi8PNS2z+J/fzIGu3Z5bNytvnjIpj85/71/eego83jYYFUOPw3bh6fN7vk0ylh47N40Stvh0xHHZX/YfNzsHi7TkqfWw/Y4XtFqv82pyGdPG6z+7uPD9XeN6NM4HJ8P4xN3Qz7+s6ztj+Pny6yH5Wnz0+b0+TLb7bAYt5evf/f26+fd5mVd5Ci+LNrw8eNh/DicNtjky/o+P73dgXZs353Br3/5VZ58xJPTjLlA5j5+a/GnxZ8Ofzr86fGnx58Bfwb8GfFnxJ8Jfyb8mfFnxp8Ffxb8WfFnJR0StEJRSJKmJVFLqpZkLelaErakbEnakrYlcUvqluQt6VsOYDmC5RCWYziO4TiG4xhO5i0T5xiOYziO4TiG4xiOYziO4TiG4xiOYziO4TiG4xiOYziOISfHcwzPMTzH8BzDy+rI8nAMzzE8x/Acw3MMzzE8x/Acw3MMzzE8x/Acw3OMwDECxwgcI3CMwDECxwgcI8geyCZwjMAxAscIHCNwjMAxAscIHCNwjMAxAseIHCNyjMgxIseIHCNyjMgxIseIHCPKTstWc4zIMSLHiBwjcozIMSLHiBwjcozEMRLHSBwjcYzEMRLHSBwjcYzEMRLHSBwjyXmSA8UxEsdIHCNxjMQxEsdIHCNzjMwxMsfIHCNzjMwxMsfIHCNzjMwxMsfIHCNzjCynVo4tx8gcI3OMzDEyxygco3CMwjEKxygco3CMwjEKxygco3CMwjEKxygco3CMwjGK8IYwB8coHKNwjMoxKseoHKNyjMoxKseoHKNyjMoxKseoHKNyjMoxKseoHKNyjMoxqnCgsGDjwcaEwoVG2NAIHxphRCOcaIQVjfCiEWY0wo1G2NEIPxphSCMcaYQljfCkEaY0wpVG2NLIuI35J+5v7C/jNgBoCNAgoGFAA4GGAg0GGg40IGhI0KCgYUEDg4YGDQ4ED6wAghVEsAIJ1jXcacAj4wosWMEFK8BgBRmsQIMVbLACDlbQwQo8WMEHKwBhBSGsQIQVjLACElZQwgpMWMEJK0BhfUO8BnkyroCFFbSwAhdW8MIKYFhBDCuQYQUzrICGFdSwAhtWcMMKcFhBDivQYQU7rICHFfSwAh82NKxtYCvjCoRYwRArIGIFRazAiBUcsQIkVpDECpRYwRIrYGIFTazAiRU8sQIoVhDFCqRYwRQroGJjQ/kG8zKuAIsVZLECLVawxQq4WEEXK/BiBV+sAIwVhLECMVYwxgrIWEEZKzBjBWesAI0VpLECNTY1+dIEjIwrcGMFb6wAjhXEsQI5VjDHCuhYQR0rsGMFd6wAjxXksQI9VrDHCvhYQR8r8GMFf6wAkM1NsjXRJuMKCFlBISswZAWHrACRFSSyAkVWsMgKGFlBIytwZAWPrACSFUSyAklWMMkKKFlBJSuwZEuTqU2oyrgCTVawyQo4WUEnK/BkBZ+sAJQVhLICUVYwygpIWUEpKzBlBaesAJUVpLICVVawygpY2dqkeRPnTZ43gS4SXfDKCV45wSsneOUEr5zglRO8coJXTvDKCV45wSsneOUEr5zglRO8coJXTvDKCV45wStnmybRVAkZV/DKCV45wSsneOUEr5zglRO8coJXTvDKCV45wSsneOUEr5zglRO8ck1/aQpM02CaCjPpME2JkXGbGtP0mKbINE2mqTJNl2nKTNNmmjrT9Jmm0DSNpqk0gldO8MoJXjnBKyd45QSvnG/aU1OfZFzBKyd45QSvnOCVE7xygldO8MoJXjnBKyd45QSvnOCVE7xygldO8MoJXjnBKyd45QSvXGh6W1PcZFzBKyd45QSvnOCVE7xygldO8MoJXjnBKyd45QSvnOCVE7xygldO8MoJXjnBKyd45QSvXGwaY1MZZVzBKyd45QSvnOCVE7xygldO8MoJXjnBKyd45QSvnOCVE7xygldO8MoJXjnBKyd45QSvXGq6alNWZVzBKyd45QSvnOCVE7xygldO8MoJXjnBKyd45QSvnOCVE7xygldO8MoJXjnBKyd45QSvXG5aclOTZVzBKyd45QSvnOCVE7xygldO8MoJXjnBKyd45QSvnOCVE7xygldO8MoJXjnBKyd45QSvXGn6eVPQZVzBKyd45QSvnOCVE7xygldO8MoJXjnBKyd45QSvnOCVE7xygldO8MoJXjnBKyd45QSvXG2WQTMNmm3QjAOxDgSvvOCVF7zyglde8MoLXnnBKy945QWvvOCVF7zyglde8MoLXnnBKy945QWvvOCVF7zytlklzSyRcQWvvOCVF7zyglde8MoLXnnBKy945QWvvOCVF7zyglde8MoLXnnBKy945QWvvOCVF7zyrtlDzSCScQWvvOCVF7zyglde8MoLXnnBKy945QWvvOCVF7zyglde8Mo3G6wZYc0Ka2ZYs8OaITZZYs0Uk3GbMdassWaONXusGWTNImsmWbPJmlHWrLJmlgleecErL3jlBa+84JUXvPKCV17wyodmAzYjUMYVvPKCV17wygteecErL3jlBa+84JUXvPKCV17wygteecErL3jlBa+84JUXvPKCV17wysdmfTbzU8YVvPKCV17wygteecErL3jlBa+84JUXvPKCV17wygteecErL3jlBa+84JUXvPKCV17wyqdm9zbDV8YVvPKCV17wygteecErL3jlBa+84JUXvPKCV17wygteecErL3jlBa+84JUXvPKCV17wyudmcTeTW8YVvPKCV17wygteecErL3jlBa+84JUXvPKCV17wiv+MfxGfyU/D9nl8cZqYUCEcTIIkBlAGHOpvzT3U4QqTARydgODV4iMgT8a/QyHGXkbLpwIkiQmAM19LNdVkOmACtg7/kaOJEY/joxRCihn/gzEQCj7IQPMCTRzKO/g+eH5UTYqhJuiEEOuZTxXsNQinhHMXiiGlkoKBRVSg5WEqgZ9kEDYh4S8Q81k+wkwwXubbZC+fmIhJYp0AsfKrGPAb/L9Az85FnsG7QkClGKG6ToSMSTXivyJ2pAa+cU4gUgDIodZUsnwE9RNICSYINRbr+MIpQKdOpXAAaFlcllpglhb8FByVE1+GS2yyKRVYE6K1sqAJClfFzIpJMB8iPgNyASwCBq5YQMfHoGxi7vhVTalCU+KYJuGlInYTVhkEg/32O3yWjYGgwnJhdgZrzQ+hDcLQSBVvlqE1yWd4Q8PNwmYUzCrys4DXgySB0MOsYRbzs4Q/sTZQiGEHVuP5Gd4/glRJOAMRu8PPMPtaIOLxKAyTNpmSfQkhG7wqQN0nflZhGuQKeWtKwFESetXXiheQ18fOCz28boFmnBI2FpsqH3HumKGBlVLaLwtWCBPOAecWa9pmEoJJGaNgYQ1OpcwYh9X4ChUhcNNkJjiSULeT/DDK+2OwmKDeYbp4rSSf4WBjBfAS7fAG+QzmHCRH5e4asJmsHdi2YII4pXj7HNsaBxzsCLBJ+KeX56ApAayAMzhesOayEMS/lMDjhH8CittscBywN9DEcLbAIMJqJoJxcbZrxTrCCE3CuRmrC1YFVTA2Xl9YtwQTuVgRhzm6xro4ohErnXB2cxXOrcFzP3BWowxArsrgXYNxozXCpxmafwY3QWHF3JMwJYxeY4zliDHwgFaI+YpVh5QoWEQ+VcGOOKwJRiL4M3rx0+JjfB6jJycEHFYnTzouScWThbPmR5gtlgxKdc2YufAr5h1riDUBj/AX5wZmA4pU8CP42/OHoFIjvueRzUXmFnlEwEA47ljfKjhGquATx5OHPSTXYfrYMMsDXGKpsoqANUAY+AGQJOTl9AGlArgOz0bZABwb/AynEFtVs+fMcPKwF2A3qJ+wAp0wkwEZnLiKEbieSU4EbF+cOWyI4fkHDvKU4LNkcVZxbACN7eh4/BorgBfAzrSTGAAlCWccO+i48LkdWZwbk3iUsP2NUVKpxQCQcNpDBJ41piBpzNEGcGSSz7DGAcecYgGn2NfGd1g5nnZDYMyNFxNWCweVIAeFVg4sX9iCTyzkSqmhsTH2FCeqAHvwtAntt7ECCSlJPEGzwQI2F7yBd8b5b9ADZgC8QpXBkcAQQi9HjGYwNxzvMs0F7AW8oxyJ+L9vLIqVAoAS67HpVX6L+fMvg+3Eb9sC4gxkGKcUBQYzco0bLZkWZy+3VZSto0QTgAAswUwxSRAYawndGCwAeZWFg3B4CpcB7wI+sDxZeC+OmSLgkEDOn+K8WvAljmGg1DM8M+BFYBFwj9InOS8SA5KWoA90wHaIuMVSGGwsTlLMYGfh2kI5WsClsJzl6OJhg38D45KlBQAgm7A1BccEONVOaSFz8kAkPI3/kfFw4sE8EF1QnrLABPYS+40Fx9TBSMKxETsKZMLrZ4v3k49wkgDF2A1ChTzleYpj4B7gsIk8B9CAAzBhwC/YmR/h/DkRW/gH+EXUBU9BjJ2B5oUF4TvinKUMwgmHPTfZCVwJAQcbzIc3CbKsOKjkaVgUkIVcQk4KfAmcA5SGJLoHzkDkzAN0EEy/ToALZoO+gv3HscyNcSxWhQoAIAqnP7WT5HmGcLxwugPBRk4XxERMkNd4XeBukWNN6VgEaXDeSnswUnB6KjA2YnlKO8LQwnIlpsZJJkBcNyZMoJFr41j8CAwLnQCb2EbIBAWoTA7agYFuI4wDBMwCIPi/y42XcAZhBTlPBrdNeCaeTzwEcinbSWRjicFxIQOMoGFPn+HgQukS5C1NyPJ4G6JqnIQnnsaC44hDecGRmBCGOATwpOICZa2JXag7ZE6on+BmoZYwEobF8YX2h7PZONhSIoITsCih0cMaE0sT1TVsUYPKzOMLEUUhiaWXTQPvQlLilOE8JDlklN/QZMBzQCIuWONVK4cCW2YgI3h+gNuOssyI/pqELSEGCiUCpJ0D/gtfAqVwuku1MucgOq+DmkUlCSTwknKMgQFQ0/DqQDZRHcncmC1fv4Smz2KToKwAN6mdNTWUwgyvDrjFy6fGqZAFCSKtQicAV4uOi6WmYgfYhTLQRCQZFDBP4WFE+OFnOJjANiiymLQAAbVL0AHMAYu98CAOP7AfywsWcSLVcqbYp2KGY14F73jqoT5hHjheDQKp7YjuQ40Jm8iPwOkYwllfyKBcLbxiBT/CfKOyWQTrAJsUKVTJqTly8bG4lfo5NEjwVhG9F/yPBaXKbAFoAro8/VT7TKPY9F5gDrAab0710jVdyxE9OS1oEhHLLbxLIWogPwABAIumvAFgsfZgEZ5VW3LTfKkXYZZc59ggApAF7sO7AjagcjX2MDRIIpV2wHfTpPETC1UFjAX2wGhNxAHvKGqB0Xn6LfcPBw1WSqJojtNnFkcZLEQrx+f2W2401NoM1AcYNd0XL10LDwlWrYl0SDOwCNkJVhMYqjEh5F+g7JFD3F4DGl6m0km9tElCIAvOM6Re4UjtORwPABL2CUIee9z4EpgMLQlLguGnz8i6hlKRc/MTCpFbIhCIYhe2QUyNWzEKVQecbJyFBrGZRqIhByaaDLmBMUxOw/9ONCic6FR4UQgErB0hoNlFOKGFqBTApTixWXiYD1HMQD0U6wwHI5KJIU/A8E2wQkvKRElgQIkiDBNWxOJgiILq5ZQKAYwHsQ0p2gxJrBpNIRqlkyEGAw9HDiiADwECUTTaIiKtULO2cm5BFmID3Itho9i2VI4cGSFRe5UBgbB4G1kjUWz5kRV1wNOEMVbQByeDqnHlQYZdVZuW7uUIYV2gJIoRjpGxIjKF0CxXwqynDpC50MKtOPsEDIKKpToi2jGsM5qlmACFnpdFxWvUpk3R/BEjA2pOpbzPsuuiPuDcY3vAC8BOML0oC+RqHBEx5bAEdrJUQQu8iUWg1dVAHxAY8a+w3bF2nHTT0UwgzoIEzLwmz8CD2JZI2U9rvslCnnOAScI5hKUyyeVIMQpbwtA+8M30wxt7riA4r3ArhScqLQ+aadCtwpmNoaESehwlYFNUoQ8CkqhyY6TJVhVBjffFysJUbEoukFVWB2wI635ShiGlYc3S/KH0b8ow0Cxwx/DjJiHpSuEuArihSrpJuAZCc+VEysTEODlgex4fHK3arHVqKClCVQ0E+LYA1O8t9x07UNvi47QBGjFDkAWA22mZocLQInMyxUkVhr2J/aXVDWPINVUYawWOAGcaQV1hTTIcfk0ZMpldVOmpgEK6UQn0ooxFnloIFrpQKNF4tMC70JioF2G4Jh1c5bA45oaSTWxVzJjLjDWEDJUzDxYGbgMmaGRBE2maME49VzOIXkTOoHkF3sVG83QI/9AxAxuCDgzXDF9sdSAiBXormmCGoKpkHagNkIlCHiopDBK6shylqjB/KjTpA62C3FiKTAy+wYbx/wIQOPdGtCCAhGAG9eDKlYTRBNwTSW3pJgGgQfhZ2kD0tFBzBSJBoQN2i4VuRPTS4+aCkXWA2MLUE41Z6A9eYAoYbSi9KJgxgDi8HFU/bETKYC28QHMiYRehpVD80V3W7NREzR52bo20whvTQAfAONAiIdDoKApNE4aWAuav1B7ojWmnC6CAeUOzpiwPk4zFDovLkGe/6X2RpgI/xn6XyVlFLYX6Ez2UmGVTj3Fso+iBPGZh0oVxOMBckC/UBEITdZSbllYJTcxJF8Yi4qeQQTZOqiqElecJpAwC/DVWp6GOySSanJOAhZGD3QY7hLPyjkNJIQUwtKKIT24uQLv4KAEzzR0EAQdQxyrJF4058ZoAaxwRmJwEgCaJMRcoKTSAQDNO2nCiRo+9rLS5GxPDcIU4ztgU/LwZ/4ZKTaH1C06YmBjgB/mNLYPATpMfiooH2djT1snNtYHDk2mt0RfMQyJyBXAMCxLsCq0P4maSps2moQnHjWqGKvcWK4eNBlnbFGIcMpwVasZWfL4QWbCOwBnYdQhKK+dZXGaVQmuSusB0sAYxoNJpI+4lwE6lf4R+DS+4QflO1y3nRsdvcwdhRSCamyiQT3CUoCxgOIjo2tzHAG/aQRTtRk48fYxFrFfan0UGxHRAPdAbSjCVOXganBBOOLdAHVEG6LOkyxAL6mTBKBZMNKK00g0pUpe6ganiLQwi+YFq+J+nlwVmoPinI6Yl/gDoDbmtKNYv0qGLGaTmBOahEAcU3rA5mrAv2FeQhbBwpulEdMFwDQxN5tCcFTiagH1D1x3/tbk6YDLRwKQI5VltchTHHm9MHZmSfjJa8Xehlc3nJq7kkQL40YeI41Cms0vdDINRd5scsoauPHClEf2nmaMAF/qaIWyxlJMvl5YihA84Hb+c/EdUrgF1Xhznk9IMbQEvSxaBWtEkdaVthCMCJZTBizKxL+UsoK0ZcE1o4gH60Ckjs5/MZSd+x0BbeVotxibIVJgxBUR7X1ggtBShYIM5m5sJ0ox2JZSIwJVpRirUBaKrp1/bNPSDVhk5RQzBJWrLjOUTZRv/lppZLYo2tTjapASYpgCJI8fRdijNF0hnNg4iJIfF2jcnjYl0tYvbi6piY16q0HgGRw+MAfCRQ2QJJuAxKKZWmCRQKwd3QQcE3jTPKh6xzd4MVNzkzNKvACSFDMbe1uZspf4HvYImaPMM0bcBzSxTYaaEE1kH/Rbf0w3LI9UcwRAPYGBD40EsXIo9SltwryWM8SMgWcawwltVpk+nIedOf7xvyn2lcgbcF+GJAy3YQJ6kiQj5JtOCPkbfeaGqQIVLlHtxdZPJ6AHngABCcBzYDMCDt/TNLUxfNXV9LrHox4aqGV3DQIFQ26o6hknoMkt074gqXEk50DvLqYkqTJQHQpMg9BrRrA3NaUuFhKEg2H6pbTEWytE6iFAiJ4OMTi06umDSMozVJKYoOuJgpENh8jJhcakvkpcx18kko/c70najD6jJ5cTglKW3LNAJ0dwx4Aa+DH3Xkx8M5wjTSIz28ERMmjCQFnyCd6pNmlX6N7lbhc7BKZBT6MfPdGTjqeazwh+VYjE0f/jkKQZkYoHxtGX0RT6LNF7pjSRaTL+FXgwhEJvneZLA4LeEd6A9F2tTymFUGu4NZIuxE15l8T1iFWCZtFEj42QUPsAywKyMgIOWiLrgcWCWmTxKmYIH5wVyykyC31KUZ+4jhjbnEE0EKc65iAPZSHCE7+VEdaIXCBIwtugqFPpMbyVWy4t+ScTC7hrx6AOM5Gh5CiDsJvaCzqYWc7VReMWLsdiCizAGDJ03kP/0WbbjTDMVwEm9T5iFaIj5WzGqkviRYOBVKtoS9MNpFFHHyBXdDgzf2BZPpfZCrQmYK8YkNg/IzEOSeHZFGcYRKuKsMfRoNrMX4AYkwS5aHmV5qtKxylgwcLIZx7A2qRHjHBIkRAJj8zNgVaLISVCjYDkzQ18MIQBmOXlKdjr1Ah23wrGRcAQJ56g8NzlN+4wupUpVq7mY6f+hdwNqhbhbmjCl1UlDCMhF6BFt2IgLCI/TSWEmAIa664mqZFw3acNi8gaiDH08zTJivAjPwmrEdGBEt7ANlEOx0hl7c2mKtGI23Lkk/9b0PqpoQCwyH+Vs84wy7AxiDHHSqmuxHB53yGgnemRjgEhdSMI4leqRiDqwumWsgyZ7MyNBiQ5Ww+hLE+y0soFmgFnG7dLZs4Q5iQMYJyG356CJWTqNgN9iDMlnjKFSdbAXlsVG4qBKkgC9ldMYVrwzOIng5AY7ooAFKo3ArLMuTOM1M7hIp3GYrAHG2Yjexk46BviK7mzsJERWaU4uwq4jg1kemcl6pc+TCQFUlbCwDVXFsKDBUiViLDoUBokgFxlPgYCxwrEUPFQcALPgxnIGfm4cwxJAn9h04UAbnhoneMr4lhHhkoRzoWlQ/IoyjEWhjuUiD4woj+AuajEUcm6y96jQ0GFuKbRdi9ok2S3PBA0fWpoEA1ZeEhqo/YtS62hVSAQ/tt8l8fCB8ZJvZiJDJIwzw8SGtSeaaRGQAi864WGhRJ7EYtPv55ouIKcSyBkzdbamCxCaIyNHnrAaBFmKSF0vskj864kAyoMEM9s0762oPNxixySCKma8Z0yAAUaaHbktKpVqnOXAiJAV+p5xA5AKhWFgk5rOQ4EBbRsHyZcW76HVCB0BukulIt4UYsYcsR5kbkZym0JMjzv1Cwn1xbNjCaYnsTsyxGimeD+2k0YeJDI1s8aYhfFJynCmnZwzCsBe2FbK1MlxQy8OsQ8nE/raFHehhwlMH6m+lTMrMeBO+UlImmKinpFAzyydpgrSygOjUvxVEQ7yS4mK8B0ANA1eCj1FVCQgx7Jvko7hZtmIRJk2cSFjYp5pJeJ2nF6iWvGjJ06pvRj9r4BsT9WReR5TYoi4y6xEUJubGucePEAYd9VNsR0gq8STGcgq02/pKMdseHpgz0zhYycJRXSJ4iSl5ta3TIvAkjKObWjsnrUleg/Bd01BEqFLxwROIGAIp0NcLPTrYpPE5qFK3DiYtiHdaInWv+h8OD+JQov0ozhPaEaCvZLkfJimP+JMSJCUeS9FPFKZKlaiG4bKRnMsZXEQYKnwhs1Ao3NEAqqAZmNzk5LQg8mvEi4XTuG5Z9gcyIcxhTyWnz4OyDdDWBBFmoYFlVEoGNgbYVfmX3j61OiOLy28A7ilrwzA6tq8MtQoyZ6A3ojNsi1wQwZ0lEzYG2HEIuF/qGqM5Yh3C8sOJHAM37pJqcBxo/Oc+nyaUrIYWKT2hukBI2JzDtP5TScVg2y1+a4slTgaBfg/g8cNfKk8FAbAGKyb+JXBDtpLYjGGc1w+0xWGCVZG+5pOi5NVODaThKjGteNFdzyAnlqnMZNR62g743jIWO1YWyeqGxNb6uSPBacCcmge830aUBSCId094lUOU+KRpSwVW9m3RI5K3wazvygoYRA0jZjZCck0dyTdwEyCkS9osgMZMg349izYpLZIAmbT3MiFliEh1DJhqBmYhU5BnmKoVmcLQvK6qK1Swc1NtYchSXORkS5Qab5lej081ZAkHsPaZCeUUMnBw4mFwR+ndc2MGCYCRCjTBjBTril7doo40VUvaTT0bGM88SkGaE6ZShU9aEX0TqpKTDcDRAbxevKIiLlJBsIITT0F2NHpJmpxaqYVPejQ0cXv4GLTsbm+9B0E5mgEifFEuvMM/fyYy2TyAWQkKstgjXhmwWS0+sHqONJe+JMZVjQeaOHUprISJemeYg4YzrqduJhBZqqC+J94eXnewWFMuYK9K/wp4hYjZmpEk0YMqCPvYTdqkUAxVQ9aOmADSQ6UEakvMqYIHbMFqJghR6eCHG8vuAHJYBgIZKCsmRUADMdMJ6YYYYsFzXACiRgMzLjJC+DEIYE3ZHpVbNov3tGS9Zjg1nxszLajNyfKQZwSgpiGQU2Q3FWYZNlgWewA4BrDHJMK5iSrkS5G7Htt7htGgD19UDBheAhbmIZRW0ahAvmsSYRIpYdgT/33ImFoazJkzzhAbvpwZgYVIJ1hO6Z8iPLLPD+uDFgnXCSbZ9QPCwjMm+QuTj7mwCygwPDKlO+Ug2RWOrptJhW2MBmI9grd/ZO7ivEj2KjUEfPkhuJbMUBGj/qUZlGdJIVQeaDTtGm/dETBrGHICGehqQVMz6TLzzO1aXKnSagkSuKXT1NiBFAsSXKfZXhiyj4sFOw42tCO0oR4OJMJgETswjFqGxLohBFlgXkkjV8ZHqZqxBgpRIAoYIZpinRrFVoDpclOCetDXNBr4pr+RUcCLSoTwpSnw5dk1DYx9IrFEm2OXuokASawlRedj0Yd45iGiX9VxGmhtmgpXnKLHEKgR0xdAmk0O5qE5Ul3UMQYmBZupWOfx9szzU30Vf4KXGJpdjXVV6xp7DtziVvcCYvC3El60MA+jfEBAgwy0cPIHA2hxbTRxEw1Ogbkh442Cd6JngojWMCEBGwIVTvBIJk7M7cAGHTU5ZaaCIiCZOaWJCYDyDrg/EHbyFQgsPZiKZjamIFKcwu+StooHaWW4GpbRjBTEzgEI3syfYA7I47RSOJMEJ8xsZ9uqtryK1sExBpxgmYmbfgw2ZpYigSZyZTNbKdcOE8/Pf2MTK07+z2YqMfoIR34kkotp5I4TNOLPs5yPr2MxYBiotrchBe1EiaqmiyR6cYNkUCLXZVMyInhaHSJfGQKrb84eZm9DdnMzW+fyRQceRBbdQ7S4MjQAU9XVxOG5LjIULOVEHGbC0GZyJ+9pxt+AgmmlxJWYW6cXUnMEaD4oU085UAzfdjRFDc0jRtnMv7pxHEYGb9oBjyz5S35hU6MFmmlGQnNj75BpuNNAleQgFqWPScY0uigZwbGhsG65Sk3lE48Qiw0nlQbBhrRl+hMA4RSDH7bxDBWOjJVhpk1YhxV2rBYKsZHeKBEFOAc0XfByEdqEoNAnhjVE9QXRZOGAn3JdKzRgJbzTIWPzh8G3hpvSBY0FokB5xZOZDyv0sVJU8E3pdWLrsSoHKCzabbCcVRL6K7yIjlxSAgTDNU3jZiLRt8iAyxuEpzQPwyTMDGmb74rLg9DhzjxeZLnbkoPy5KjKtxJFYXOT+hHpSm/UNGKuK6hGYvdS+WXucDE95QmLcMnAij+kRneFGUk8zBXppNRwZUlrUxE8nRPyLrTEgXDMoAjTi4RtxQJXF6uH1BWuJVZoQR3nv/UNtzwbNN9ipljQ5pksEnCFXhJDEMLYPJSGgl2UqEr4ewGAQdRKtHV25w5jHFKhEfyc2pjYCrlcqkjUjXNZ+8LhQ0Pa54OahGjn9FBIMCU60NLlYF/hqQYnWuaK/UkJi0kZsy0lCUoTJEJY7Axznn+lRDEOKdlGvX0GA4LpCbEMoNfTbLyKgBenxIIh3VSuCOT6OmrwBzLdOWAuQs0K4M5R4DFW0QwAB+WZltDmDOhG4qhlxsJbVVoEAayBU/6JESZuxhosUTGQadVJheIe8VMsSaKT9pXhAQ8ORksgb4n/JLRudRC657hDsf0wZAlmVtMIKb9isrMnLsollJkqrAD+jIdugX/mGaGc80onG+CLhCSwR+OyQfWtXAFUJ75H9AVM62biXVhe3vsF71LLa+Jd0nIaXhDMesyPec4tYQv2zJ66VQi/Ee6Qk1LCoSaLjE5sQtElENHyLRc6TDnewk3E0qovxveUhCfLw4JlpuexhCnuA2vYzALIkjWRm3AwONGLRCA2ZIwQBxHEmKUWfjCu5UGeODNCuC3eIHBppg1lr7Qed+UjsyAKpMDDPOVxAscmBZEW4dB6CJagEQNA7O2xY8ZRIyKF1C0Qoj02mKqWHdeC6hMgc/l7AWm3UQliVbH2QsMdqHGFZhlMN224V0BhuoTyUy5cJnuPCbIMjnYTI4RBnZEK8LOTnEWym3ZYgnKTImIdFzBfCS3T9lxievIywCJoUg/MTBZP0sAijHisw+4RTW54WVyBFFzoTCEkZnLOURLFwg/ADdNarD4fwwvXDAqPuUwBkYBLIUBtf8pdZ+ZMvRv0FCZpDd4M1JBkTyUcEkZzi0RjzJnYmEr4WHatFPYNvMGDYBCLPrY8iSTuJgdXci8jWIbC1fqa1BaeKVsutVE7zFFXGRqXFtSJ0zEl6Ff1bnJIUjLi+ErhvnDZP/QegSTibCo4ldi7gajiBIxr415PJAcur2DLkZFqDSljYtXmCWJ4yXZrJG6MXOk5QJQaoowpSkzGXgHSLxPiaqZXAvLU4JhZmoxlFLqFqkpjgzY4EWBQhKqjC1ow6sMABHYv0Z0ycIYRQyS68tARkskDnR2M1DOyxBNE2bCAJRuKv2N9aHIMD2P6+iCyCY6hpkcFsTjKnyOc86kGUfHVmlYU6i/S1Z54XmVDI/ECHZgBAP/Jq/IlNTM5AZstUkiDsX5R88+wwLtalxgcK4wyZpOH9/WlOHhSAzlVJoiTFstMwiR6WQTFpY7B/QWMPgQxVNPFYX+VKYlc4tauJ75ADxsVDR5j6eZSTRrCCgSSippCtpQ2QTO8L4M1iVMqa9A0cAwLbVrPwUoiiTN01Q9+2ISgdpRLpHRWryDd6EM9U+qr1NOPgO0OHPiG51UYawZPQPkWh73xoieui0QkHL+HHqxYkLR/syTmsA8fcNcQ7mtOBmkwJLI4yf5HfEs1enu5o04YH9jnCw5N0Fu5UFITnZ1knuiTGKH3G2ylM5rZu4TNkt7j8QhmBtkreQ4t8wuAjuVKzJye4/QHPq8RFYm6e9pCvAaUeCtA9dUcJhREK0RPEe/jL1kn8mlCyAPDb7k/jKVMTs97l8KrT1tdk/DL5eqYqtxt8dHw2l/kEeip7OgyC0sJgqm6anTYdytxtWbgmqfH4ZfNseHN1XPnj5tN6fn1Xj3zXf27rS/s3cY4YcfnpmKi7F/cxkcH2+eWomz73nBnDHrQqdMlEtK8ggGOD+SE8PY1A5pZU/1207D4eN4Ylk4eUach9eft3f9/vzxYVyPeJXl+PDzZrfa/yxf7p63W/l2jQmdxof36sS18msvxdvORfUefj6XQ7w/1+u7v5Toe/h02K83V2X08N/L8chSdafDMJGTqnLH5eP4NDz8NB6O5wJw9lbM7VbM7VbM7VbM7VbM7VbM7VbM7VbM7VbM7VbM7VbM7VbM7VbM7VbM7VbM7VbM7VbM7VbM7VbM7VbM7VbM7VbM7VbM7VbM7VbM7VbM7VbM7VbM7VbM7VbM7VbM7VbM7VbM7VbM7VbM7VbM7VbM7VbM7VbM7VbM7VbM7VbM7VbM7VbM7VbM7VbM7VbM7VbM7VbM7VbM7VbM7VbM7VbM7VbM7VbM7VbM7VbM7VbM7VbM7VbM7VbM7VbM7VbM7VbM7VbM7VbM7VbM7VbM7VbM7VbM7VbM7VbM7VbM7VbM7VbM7f/TYm674emlBtk/nGuQ3Y2/SMWyS5kxuQD7/7gsW/v1825zuvx4tXkad6xMth2Px8uD+8Pm41R3jf8AY6TvjMX//mTM9/K/y6PjdvjEsmftJw/Hz7vT43jaLN8UlLuqsvbXv+F9288eXj19HMfVuPrao2uWaHt5v8t8Hlb75csLHk/D4fTV93t5ud3qi4ds+pPz3/uXh1pRuYfN7jQesMKsWPd8mm4py+X5v2WZ3ilQ97Q5Hje7j6+K15mpAuBwfD6M2MHTdCla1vbH8fNl1sPytPlpc/p8me2bs/P261eHY7l/nijLd8PHj4fx43A617GTCbcSftc7sNxvn592787g13bYj48DUPXyhF9bO67LalhQv1yDt8pYFws3AtjiwoY1pO1yMOuFGUezXA5pBYVrCQwbYC3gm8sE1lim8fDpgK14aHX3Wr29X68ONTZos/v0fHo5iodxuT+sZIV32KTH/UlRvU95fteH83Nta05gN5y9p08q3rpeuu9Zl+DXb1VU/AwVT9W3CqzD5gYoqWja2Zll+o2Y2srgaglKijOzTJbgyXx1Xq0E9KtIurlJpnAfeGOdamClvqAkOTfLTL8GM3ItbcSqouhnJ1nvJaWPuUHUPoKS5Mwks73nzXfQY8o0RK2KZJibZXYMlCVrvUR5clWSnJulvzfUZOhIZ663bpZxdpb+Xoo31HZJKmQlyflZSjIETAQ6RZVnKHVmyeQEBnx5q714JUk/uz00RKFV0u1VlNuTOztO+xJnk+YrdkhJcv5c0qokk0fmZOl2vMzOsrk+DE0cpkd4JUk/y5CWiilVRIlPq0jWWR4HWvIyFl2SiSl8SpJzs4y8mcGoFW0a8LqGpJ2VNskzcxyTtHR10ZWopNlBdcZjKq9owFywKpLzoqfcS+YQXSaeEW8lyTkJGe95kT7yohdvh9aoojkrfKJlyh9Zh3fyU0xKkjPTDJkxed4PN7w/anSC3M6KnxCYmyBpqwxSJ50ot7PyJ0gqEiM7sGPpGVWRnJU/PtE6ZxZHsJLvoCQ5M0sPZOeFIiwmryZXFVPaWfnjxXhk0IBBON6DVNKcmaYr1DggfBma5HUQFcTZWQnkEuM4TB2gfpTA80qac/MED0nlFSYfsAyG7nDOyiAX7uUSHwOyrHbigpKmn6VJL65nqJOXvovu3WelEGutsb4DPY6BKRRKkvPLycz2SJc2S1dE3bbPiiGX6Yrglbckl/OU2147x5M5w14yfGDKaSg602EiiElekicwQQgrSc6xOnQZxqglIYM5nCr4cLNiiDXvePUYGgI0d+aoK2n6WZRjvp8EC6KEJlQ0Z+WQL/dyb5zlPSQ9T0myg+/MeYkUmbwMr2JLNy+H3D2DDrxRw/iq7mi6eTEUedWal/iDeAwVi+k6BnkooigkqZ/BPOqgpOlnFQWWT6HDkKW5oorivIYUJPXBMcDIKnFVSdLP2vulMCmL96klhqKiOW+e48UroIOhEoi44JUk/azF35KbC0Pitqgo+p7qziAyw610aisp+lmThZG8InohE7hVJEPHomTEiLm7tHqdluTcLIP48w1jVilDYqpIzlvn6Z53STJv/fL6mlOS9LMkX3URUVFMnUkyOsNkT95xsE5Jcm6SkZfLWDSLRZpS0C3lvHEe7uXCN6vjsN5hUpKcdyFUuanm5XqOySqSPeOcF00kW5xxEyXFOf4uvKLK2kbMWg1Oh2zztnmUi/FMumMUx3slST9rSDtqGrzxxpR61Sw7tjkztCDJPLNXpNyGkuY8pvPiNcO/hvdmVIeoY5vDCGCNU8sUO1a2UJKcmyUUAxN5BTBIuSsVj3dMc6aysOqJJP2bqiU5b5rLLQ5ghpUCgir52DXNeUETCiujvsA4JUk/q2UxV94yxcXQJa4iOW+ZV1ZyZB3FkMWkSkqa83owPRKOlbSksKWK5Lxp7pnGQ/cJywtkHbzNW+be3rM2E+8QMJ/FOh3Necu8MDzOi4CsQRCylqSfNfazFJcslkVMYK6oaOaewSu3qV2QOghWS3NunuJ+ZBoDzArS1Z33ecPcw+LF8WSxUFqUXklyfpqO13FgSTGhpeiUrY5h7pmJFHiNnrdygJ1Kmh1/TGQBLQ9dq7K2k4bmvGkuDgTP5CNL70GMXklzbp71nmmyTAbhYhqdit2xzd09SzVlXnMm2GUlyTlmj/e08o1cbOcdMxXJnmVeLa/bMZGa1xWVJDv4HiKT6OV+l1dJoY5hHnlp2bAeC8u/Kmc5L4UKa5TQP8oiFtiiPknfi5RbyctiThsNNU0w0ffs8nAvJdchzK3PRmPx+p5hniTjVEpCOF4FUZKcm2Wlr52xKidFRHQke3Y572zy/pxlpDsHJc15lZjVP6XcO+8TeBVJ31PcY6H1x5t6KWlJzkf3mYjISnSsgmB0JEMnvJ/l7hZUV17fdkqS82HUkJmvxooZrA6hItkLnDOPgxdl5GJ/VpKcdyCwGC0EuvHKMJ3v2eYMMfBiK4VQiUqC85a5lMplRWlqRrqDnjtzjGBwnnWV+eN7Znlg7wDe62E1o6iBX98zyz34mxcIWBLKpRiVJOePJLSBIpWAXIBypCJZO4zjWKaRd/urzlTxPbs83TNrlz0igtwx1ZDs2OVO7rqzCixOOkvvKGl2IF3uM2QW8eFleBXNnmEOrGRl/hRZI0bHPR3L3N6zEAQrskNjBx7p5uk6DnbesGC5giAVvJQk/awZzWt4TGz2vJWvE+Qd09zyAr5lJRjHm5RZSdLPaoPFQe4wD1lu0apI9oLmgUWlHGsb82KZkqSfjXrxKik7pfAWUVBxZccyd/fS8YL3d3gJwClJzlvmcseTFwdZDU334vOGeb1n5wXLgvrMvg9amvOx08zCZOAhyxpmulOUOxYa60b4dheeJXSUNP281cciMqx6QaerTjvoGOaJvSB4IVaaxjgtyXk/h2OboyCurayKBvieYU6arPLA8KmUyFPSnJ8nm7lElhGhDC6qd+8a5qyRTJ8EjelQk5JmJ7JfpSlWtlLoVrWeHcOcl4pZkrGw4o3ucHbscse6mFUq5/PGmtHRnDfMoxQbr6IkMLlQSbKD7tIphCUivKlON81eyBxqHCw/djeBjuSVJOdkJTQkU+WWf4msQNAnGfo57C6x6E9gywLo2Fqa86Y5SzXxGhl9WyrFPfQz2lmtwUmWBEuvKUnOJz8GqW+SxCDQnKOgSGmvUsSJLbhc8kqSnZR2lnuocoGwKkn2ctodi6pWFpVhFXolyfmoOe9p8m40LwQW3Sx7Oe28wumtXGVTGb2hZ5pLHrZlmV5pjaV78Z5pzgvnvIfpLZsVKknO57Q73iHNLG8VTdZxTy+n3UoXoSIlHJRr2ctpZ7ky1oSQ+qNORbKX0063G28+V4ZCrJLkvOXL9imVhf54w1hFsRc1Z7cJ1snkjVublCTnU9pbvT/WNWWRMxXJXko7lpB1mwu7SRqnJDlvnrP+CAtjsQGYVc2yY54HdgzlVVEWzSq1Kkl2QN0z2FfkWnVVnaF+Rjtrf0uvPhbqU5Kcz2i3LA9hK4ubakn2EtojM+RpC7AekVOSnI+as/0Q2zcVlgHRreW8UuRZ3IrVNtiQohQtyfl0R2ulHhUrPFTdsewZ5pEuPdaeZwO+mJQ059PZnbStMZYXtZUv3ktnB5SzrhFL5LPUlZJmJ52d/cOKtIDxKjnRTWanaGS5NLy+02lZ3Vx2Lz2WWNKUdQyiimYvl52lHit7dDq2UStKmvO57IXlsVnwlI5s3av3UtmZRCgloFmuRkmxY5ez6pqRsh0UbCqavUx2aZAl1fnZSzgqaXa8MewH41mQJUavItlPZWeZSJbuFTmpJDlv77LgNxsdsa9hMaod6ljlnnl67EEYpWR/UZKcD5ezQK90CWO9XBWfd6xyurYipBpr1rOAi5LkPLJLcSpWLkrG6Fiya5QzeUVqAUuNyaikOZ/IbquU1JW/syYIFPuZ7FIiDcDB9L+YlSQ7iey09th/gP0cvG6a3VR2tkxlhXhWk1TT9LPqFssKhSgeHtrRKpq9mDk7B7F4CiPmmvtpsZ/LzlKXkX0SWIRGR3LeLuebs9C6laqvXkuyY5dHtr2ShpRGo7THfjY7m+6xEFqWgkpKkp0oKsvNSqPV5HST7CazM2WYtb2Ns1qK87nsiZ7bwBoyOp0w9pPZo7RRYFsrCKGgJDkfMs+RBenZIZKX3lQke8nshCDHKm+JJf+UJDu+A1ZZYwlnb7wmTzwqzHK2PmcxNFautEqS89nsjpVj2ZCAdbR07NjLZs9FCtNbXfp1VOSyMzk8OlYrV/mtYz+XnSKXjcaYfO6rlmYH0xmeYukpVgNVUexGzME0zENlfE754r1Udl7ihWqAPWd/IhXJXio7C19Jk1LWYbRKkh2jnAm4vNbJWI1uLXs5hKztWjxL+eMMJSXJ+UxHdjs10uuaNdBUJLuZ7KwFz9JivBugnGYvkz2xlBghU7R2FcleJju7bULHYGNjlW0a+/Fyy3oC0ozIO1XGSexnsic28GEfCPaSTk5Jc96UDCWyKDFLEUKoqUj2zPIMayIzvSpJA2olzfkUcWZPBqY18IKJTnXrZrJLtWYWXmYnFSVbdlPZuePsAWTZUlZFsnaW09CaMKxAz4qRUUlz3htDUGfnHVZfVuUZRUXAnEXPpdWtZeMhJc35TPYqBS1dxHEHa6q2qJvJzsbT7EvElosuKEnOm+aFFwNYLZQdrHVv7jrIyStK0k+bRSerkmQH31lJgX11UlCqMopMdknGzbw+qDyb3VT2SAeUkRqhKg9C6qeys+RqYdRY+o4oSXbi5cw0YklbNhEKKpK9VHbedKNxnugwU1KcT3tkT/VcjDR+qxpTP/XNciZH4LSXLP1GlCTnFWLWz6+ORS9YllxHs5fKzqLOiYVhoXIFJcVeJjvdb2zwUYNuKXuJ7LApvPRzLUFl8aZ+Ijt7j7PiM3slZd1J70bLqf9H0GS9tqwkOe87gCBniV/LqmVRR7KXyM4m45lNLFkkOClJztvlRW4EsDIW27mqSPZS2aUdLpuZp5SVzJM7s2QrRPbVYE9rHVr2k9l5dc6yMbyvSoqdUymF3dkDmnWLVSR7uey0duUaJpQNa5UkO8Fyxg8dq4JbVVQy9XPZea2Ep5JNQX1WkpzHdMOLEEwiZLsm1Vp27XL24gSHM5HOmqokOe+4lnrtTHL0Rpf2lvqJ7AZqJVt6ZSmzHZQ0e5ns7MsrVeZVenDqJ7JnNkigA9c5a5OSpJ9XBtnsprIZAwu3q0j24uWJvQ9q5i0qJqopac5nske2YEyRvfWScn96mezSm036JAdVKb3Ut8yxkjT3mStdVbeeUj+Vna2T2FlG0kOCV9KcD54Wz6727PeL46Qj2U9lZ79c6coG1Toqac6nsrO6Pns2UIXLOjzqZbKzh5OULTZSN15Jc97PYUSmebmSV50Oinup7Jggyx1K723VTaXUT2Vn9zbqWlJ+v6i2vWuZSx1BK92a2ChMSXP+dLLmA5uWsANecSqSvUx2tlVk/1gHpctkJcleKnulJenZ48jqSPYy2dnfPrK5ptzpVZLswLsLvMTMcm1QulQkezFzlg/Ei7OXnXFVSXI+kT3ywiR2hx1bNdlQuZ/IHr20orIWarHVSIysuGMuvVikSkPQYEfuGeYM7FdWzYwBdDUWUO7nsUsLycTcJSYiq0j289hxMJM0d1PVbc79PHZafLDRKjsFVhXFXhq7yV56kbPHpPIQdYu/xcCOtThJWFLdhs+Hy6HCsfmr3JZl518lyfnwaWT3kgDDnHeKiopk7KRe8z5r9dL8NAerJDmfxm4deTswpuStbi17aezQhqu0Cq0uGq8k2QlFV+kvH9kFPOr4sZfGTkiXqmqWfcSUJDsXuKG+BfbQgT1ZdCS71d/Y0ZcynN1EtSTn89gzW+hZ5nSzwaKKZO2kxDhe/pD4NvsHKUnOm+aBLcQKkwV4xU9DspvHbtn03EshFlW6Y+7nsUc2Zau8EZ1UhQWyIo+dPaI8r5knVXw79/PY5YYKey1lb1R11XI/kZ3XKqJURbImWSXJTvk3Nllli2rHG8K6afYy2XlvLLLRSGJATUtzXnlrXbXYHky75z3T3LH/uGGXuaBjn24iu8TQpOw3u/ypSPYS2X32wAxpcccKqUqavbrslt2JWUiPbSVVNHup7HRvsHlZShHqtZLkfPCUF23Zp7Jwn3TCol/9LWf2Ea3ZZp3XKPcs80i1la3fYvZsIqej2ctlj5Ud8ughzaqAUu5b5sEx/9hFblFVHvheMjvscVa9yKweb4KSZMcdEyMrIzHRk8afhqaiLjszbor0+87BKWnOu7cqq5IAP3jqi1e9ezebPbF+k4N4o82flSTnQ+Y00YBIbDSjasGQ+9ns7E7smWXFAstakh1wd+yLS1iitqDb9J5p7g2MKd5nTbyjpiQ5n80uncjYEYa9jxXit/ST2aERFtbSY79jzS3MokhmB+tU3jDJTBJXkezlsrO3KUPcnt6tqiQ5n/bIDsBsWAxVTnXpq/RD5vSRsbVy5kUlryQ536vIkndYLJUOrqgi2ctk94xbeNa9S6qLnaXfNY2KZgG8ZbCRJlWv9DPZWebCQKRBCqkSXUvPNKdCzGRCmmqqbnFFkcnuWD8DIsgnlR5T+qnsERocOxzDCFJBcOmnsntnK+RjYpETl5Qk55cygmmY/Fd5w7yoSPZS2aXVVWUtPe1S9jLZpXsF28/RL6xjx27PtJpYWYzdsHNSUpxPZJcSEmwIgkNkdKzTTWRnUSQ2nZAiBUqSnVR2qMLJsSVxUkVkSz+Vna3C2caB5dmtVZLsQHrk3TneuK3Wqza8GzJns84qUR/GqpQk53uKOs+sGCiugHYdsnVT2RPva8Ayt56t4YOS5nx6HnuMQ3x71jdRcmQ3md2xSHNx0F5gCfiopNnJdmxR45IYtVCJs342O29PgRujrslk6eeyR/IiQzWJnelVJHu57ImNztlb1NsQo5KknzVTmCgMPZjXMGPVyfFuLjtzZdmPi+lL3ipJdm5Fu2yL4Q2TqpOQ3Ux25psHHs7ApPugpDmfIR4KfeGBHcxhpujm2c1kZ5EpyHLPmHHQ0uxksgfp8+RY7MIq+byXys5qAgZqsNxaqUqS804O5o76LE0CVSH40g+Xw9oNMHXZ080ptZiOVW7ueW27wOC1vB2tExhdq9xYqB14cfZGVF0OLop2aewHWaKNrFWt04a7qeyENtaTcAGw6ZUk58GdhcSTKax/VnXnvZvKHph8UNi9MSWdRdXNZA+SdYE5pqSqVVD7mezstCFXYVLW7E5VtDJ37KhTeWdH1RSx9hPZA6/58UK4D6peI7VvlZdYs7Ro9UETl6x9oxxKjIFalGCXGw1D1n4eO/SDwgKpObHAmIpkN42dGc3EOGgImhvMVZHHLqWRPBjHq4IBtZ/IDgyq0FoLK8Rqwj+1n8jOS7eFLnZY0Mrt6bYy5+0cpu/L9X8lyU5LN7qto3StVHVSqv1EdggKU2AAUdl0UUly3ndg2fiGzYMdy1CqSPYS2WFAY4KwgKrxapIdNwzzcAsDSklVErcqMtkt/gqhlaAsSpK94nSV/WMNHXoqgr1oOVOqYPxYVjyvQUnSd9o48GKJq5k+I9VB7yayQ7ek2GHhXiUAd61ycDdIxlAlbK4i2bPKoQ04aNWOtc6djnm6meyR18GlemAxGhdzVSSy82FnqWwwo0FJs5PITn+jZYvs6JLuzXuJ7MXzbl+rpFCTkuR8PAX6P5dSqvYa3Sx70fLCmA8zdyhzs5bmfCI7O9c7Zn9FH3X807PKmfNGLyaLiatqTNV+Ins0Ug4K9iTL6amgY94sp51ia6y2ViP3YJQkO4FTpqGmKp1KrU4d7CeywyRnzSEY6DbpFOGOYZ4o0ngvi2VXo05b7yayC48XVh1lm4iopDlv8BbeLJc7oiyurCJZO0F9KckHjR2qh+6yTu3nsUMCwYZmF1nWaVPR7Bjm2CFeLs+SHxJ1572bxs6KlnRGsNRjKDqa3Tx2XzBFNq3M1mlJzuexF+lTWtnFg0dfRbOXyF5YLyYnyRI3VkmyA++sUQB1mFVonNdNsxcur+xmwJ7oTOKJUUlzPpWdDa0h2RLEJdtGd2la089lZ2NRkcCUv4qck0ZzPped170cb/IWWxSBY5LsJRRC17SGXd1YdrYkJc1O3iNkeowsGpqtwotNkt1kdjanLSlEC+YsSpLzOaSlFAoh3lnxRkeyFzKn/kYPFIvO+qQkOZ/NHqBkgsXZM1rhHCbFXjI7zmNmnBdWfylKivMBVFcTb906VhFRkuzlsrMYo2RnwjrPWpKd7tvV1RJwLtnL3KlIdnPZrWWDvOTZb6MoSXbK2wfJ2YFmqCk2RYq9VPZQWOGEqrvReB0byXmjt7KbEAvGAIqzbpalcyoNWwfj/5HV/qKS5Hwqe2UJI2cge0oOOt7pGeehAiOlricbTyhJzsNQkjMULZDNedWLd1PZYVDhvQtt1KwDy34qe8yG/vXiPH2aKprdXHb2e/KAdR+r7hR1jHP284bxw/t4OUCk6abZy2WHQWGYE+Miy4ckJc35ZHb62BM7erMOnIpiL5WdBf/oMpJ990qS89obtECGJdn9J3nlYvasc8m3Z80/RgOSkuS8LlyzhzZEE92nouLJfjI7C1cB36Cz4m+vpDlvWYBxwOUs6umiDuC6ueyZhfhj9QHaQdDJn24yO04kbN7C9+edPBXN3C147rCY2dfomVWnpNmpHw872kEZZGMHTZVU0uwls5eQMt6Zl82jMV5Js9OKDABnoRdZn4zXTbN249EpJ0NXBx09Wpodp0yFigDVQ6K8VXWUutnsDsaUc2xHXK3RWVXdbHZeR7QwUW2wql5kpNmLm4cIUyDA/GNv3hCVNOfT2cULR1WuOqWi0E1n98yidI4tzXNySpLzCB8lgEqdi8ypItkzz1n+gImFlka6VZKcd2Wz7Y+H0ICBUTQWqlVkszPHl/Xv2ErJa2nOBwa8L1CLJWNN03yCJHvp7Kz4AIz3Vm6uKEnOR1lAJxi2yGDxpaKj6TrBIFajCcw44s2dqCQ5H7KSRrrQE6BrG6Pbn55xDssvVx7LVDS5j43kvB3kcrDMRGYbQ428sP18dtY8t1CIaaUq17Kbzw7VFXZacSEX5VnvJbSzjgQoSs/sXJQk54PSELtMWzLMudEAh+0ntFtT2FGIpTRK9EqS82vJ0CyrVTuIIUX0jyRzZ8elmDhblUqlPiXJjkPGYKuTjwGKXNBtTy+j3VYY0TVHNqELWUlyPvGEteOpGjEBzurOZS+lPWElSY1ZvtYrSc4n8Xjj2cXCJktDVUOym9LOGvfeMKs78K6FkmYH11l4Ncr9p6ADTNtL22IlZIF28JCW4nxuWWSuuGSdsEasbjF7Oe3VsIITtj3ZXLQk5/P0nIEu7IHEtAVUZ72b0S4X4jNbxVVNG6lGspPz6CWtgS39NFkdJNlNaAcOpVYHruSsJDmfQOozO8UlV+jPdSqx2w2es4SRpA173i/S0pxPyE1sCcLmLbz2lnU0ezntUNhZWQ0A550WO3r2eYV4BKPHmFj8W0ezl9bOW/tiBQTWdMpKmvPp4j6xYIMzPuHUqwRlP6vd2JZQ6WLRRBMbzc40TXHRSsWciM1S0exltTN9lretPfTrqKbZifL7lGxNbBGSnFeJ9G5eO+vzGSiG0JB0KNfNaueFkGjYMAL2io5kzzh3sfpqAgVlrSYqac5jkmO5j+wp2UtQnc1uTrtnZ6FiPdunRSXFHrzzKjwzUyHSdWvZTWl3kD41UdWMLilJzotK3jBh99cAXU4TanD9lHYTnVzmLbykp/GUun5Se0rFweC3jC1pWs2QZk89sjT7kiRABpV7y/Wtc9ZJMizLn1T380iyl9fOKstMmobmlRTJa41kRyWOuQRowwUmi6J0Jkn28toTtHZ2jWa3eZOUJDvmBbveemy601wMJ8XQsYFMqdHmyK6QJkQlyXlLzTC7LtJllDTVPUmyl9bOljWAIcs7MSErSfY8CJ5dESnPg47Je1ntQCFob9DdvarjbyM570BwzAziamajaS5Kkrnn5pB+PZlFZ7VnqJvVzjZFBsheeStTRbKX1R55cQWvXh1sc68kOe/YYspWAV02doi6M9QLnWdjTWQhuMhSj0qS805C8A6r1HmWqMiqtezmtZO9g/VMTA3ZK0nOYzpXEIakYf5SUmG67fmFweBGur9Cdc1RSbLjvWar9Rqhr8P0U06zm9fO9mHesj671+FGN629sM5w8dCNvBIvu2ntvBceMkPIwTolxfmwCuxcY0Pm7f2qUzY6lnm+tyEEHHbHqjE6cOtY5pEVJdhMKFGJybrd6Rnm2BbIcJhpRqNWu35KO7vnBsa8ashFR7KX0e5gQjpeM2euWlCSnA+eVuMNU+7pLopKfuxltLOuAJUsRrhtDEqa87HoDAMgU0aYrOpZQ5q9mHmtQW51RmoyOlzvprSz1S0MNDZzZ3RFRbOX087mWRFiAgohM/aUNDtGudhRUFmdDZoiPKDZzWmne8ey4FKMoeo4vZvUzoYBVlKci6ZNIEl2c9odMK6ymi33KCtpdhJ58OoZhMHvWZPZTZq9pHaYE1nEZOJNYSXJDrpHqXXiDDVYFWO6XvKWM3RIsDJl1J4j38kwsxYURdHMVeMr8wrD3IUaazKZRW2DluZ8wh5rmiY2LMJ5V7T8JcleWiELivNOs2VOh+LSX6PZSX9MMFAz62nkUrKOZi+lHSiUeOmclUQ0wWPfT2nnFWF2OfNsBFtUJHtR8xQcq5AWSel3SpLzKe0sU5GlRocJTjfLXk47q3dBl3HsYmKdkmTPMscMsZJQPIJukr2cdhasLhS9rG8alCQ72eJy3RraDGSbxnHvFTntbPlbQ2GGqkZ59f2cdohJ5qs53txJurXsJbVDezO8p8QKIsYqSc7PEjI8O+eLy1A/dPzYS2r3yUJ79byKW1JQkpxnHojdTJ8E5G/2uhfvWuaeyYmwetkpIylJdoCIPbg9ILMko2LHbk47LCpp4o5Nr7ql7Oe045xjv6vn7TQdya7swa7EVDxs6ZKikuS8hMxMLSrMW8qqWwxeETJn0cwspn70WpLz6oYxzABjDqWzOn7sZrSzcnxKdDVzl6KS5rzu5hPDNIVZpDiaqrPeMc2hYlp23mPBaqZjK0l2rndip9nylhGGqNugbkq7C+Ry3rKJzipJdu7KWsZOqwT9ok7R6qa0Q7nC5jiWPfe+eCXNXsjcBRZ8h34Qi9UtZ+7WPcffAHVjsqbeYyPZqVwWAb+BbaRKVW567765gWXabuXVrJxlL5+9UP0HtmVTolHJ8m4+e2aOPDAuSRdUr6TZc8kYJo+y/3jKWfXq3Xx2Fj0sbA0ptpWSZMe/5ZgCB/s8a620fsDcMcuV9YdgmHslyXlPoZEW7tJJWOXY8/1kdt5XkQIQYHTlWvbsci+ua/aoBX7oXrzrGoY8Y5V/ejRtSEqaHQ82S8g7W7zEJvskgyab3bNIrmVN5KjxaYZ+Njtr8yUm5LKyrVOR7FXj4U1m9kxjhFsVYgiKgHnmHdTKTnlWA5qhn82ORQyVl6OZrxaUJOcDVYn94oL07tR0MiTJnl0O3Zq9idlNy2hOZuhns4dA/ZrtzKEV6ra8l80eeRWkJtD0NmclyW42ezAtO1OVxBJ6hjkUBKn6V9ghPhirJNkJRjOrjNTYOU53iHohc/aChNS1pbJCh5LkfLk6hvysDwmWn6bdIkn2stlhU3nDTuEQapp7ZEFx2zyzf4nl3VZrdSR72ewwJT3mWWthHr+SZCfdpHmvTQhJuZT9ZHZsjWVFEqdF9W4yOwucZB8jZho0BmroWeZs6uCYxZEdL0Z4Jcl5VGcTKYbMM32kOknRzWaXIAiEJOSEcU5Jcj6rLCcmLfGyRQo64dO/bO6LoW8LepFVlRAJ/XR2VriEfVbYg0IHb9109hArUIM6DK/QJSXNTsKji9DUsaRsfKubZi+f3bMvIla0hFqVmNlNaLdsDcK+KBVGS1WR7IXN2XqQhl9g7DwoSfpezalQjJFrx1X34qlXY429QKN00eXdSSXN3m1za3kpQs5S0XFlL5vdMZokRV15kdsraXaKn2fa+y5Cdde0fSLJfjZ7kXJOBrIyVyXJTil5Q98WjlHCBkUduveS2QNzd1KCycsrUEqSndbrWSLcGUq7NzrB1gmbF3Ali6zBqLQJm+SUNOd5KBufE6ueAJCMDuT6d80lgAj1lbVtQ1TSnEek4D3Mi8iqQVlHsZfNHogeLBdbktZS6+ezs6Ye7GhWLNcZLN18dvYQDgwzuJS8kuK8qLSwep0ksziq7n2asV8IrtAVE1qZDo1ci/10dtoVNCfZMFxz9Sv2jXNwd4YxyTx5p+kl3GjOq3FswQAhySbkVWP9xZ5xjsUEZtDh7iE5jFWS7PQswgnn/3gTxulIdrPZ2bXUS8daq5FAsZfNzv57Nkp9Ct7W0W15L52d5SgLu7tBrmlC3FFTCS5DRQjWsJ2JjmTs9PtinQLPoh9VZQTFfja7Zzk0FmmAxll1S9m9ad7KIlfY0b4qKc47EGBQYJIhs6VH0rFjN5udOjurxgCJrVWS7DhjCntGA4bJPLr97mWzBwYnPSvxsFqskmSnTIOBDmw9WzwXq2PHbiE40ItswVBUVdobyXknoWekJrLvry063uma5ixGWUNNufKSkpKk72VXVct1lD6oOprdrp3MYmG3X0rJqiTZSWe3BLbs2OEhqLa8n81u2T0tuJBr9ToJ2U1nZz5dzawpaGLW6Ru2W4EnB3o5mCKfdCKyXwmO4jEaz9JgKkdh7Ge0M509sypYDE755r2MdtoTLkpVrKgk2TPNWUID6mpmya2QgpLmfNCvROiB8uJBqRZ1k9q9Yck6Br9gBTktzV6d9kDThzWccUJ1r97Lak8sIx9rdjZCT1CSnLcmI2CYdxGpHVmVNO/mtLMGHvtlAENYL1ZJc97TQe+oYViW5eSDjmYvp915dqhygOKiypWIivZp2TA0acBITHDW0OymtCdeuWX3nsCy90qSnYx2U3jHpDJT3Ot2vZ/SDnNXuuom70pVkvSdjmyVpctKhT7sdYvpOgU0GYl2rHRCJ1dRkuygOzTrIreDGaBVkezlbgXIIKZvSS3FpCQ5n2Hms2HFbl600eQgJEXvtCA1D3HQTdbYP6mfzi5NyeiQMDidSUWyWyUXJoVlNVJpmaEk2Ul8DMEUnEseTo1PL/WT2V30IYBzkgG3KynOp5BGn1icwwdD9VVFstvRvLKSBHXM6mNRkpyvMV2yLcwHMjla5Rnq5bIzAVvuWqcYbVWS7DVPA2BECbCUqtueXjJ78KzcxUJWRRMLSIpcdlaLabmuRjfHbio7887ZBjTRPFWS9PMkwTnYmCLdiXX73UtlhwUZs5XmtzFYJcn5pfQw/JxlCY1UNR6O1E9lT+wnS7Ug2axRWlM/lR3yO7HYn8tFlcqeFM3TAi/jFcCGUe5OL5O9snMJVGEP88+pSPZT2RNvGzP7jcVXlSQ7iO4LDTQpK6ADy24qu4NQZBDN80a8U5Kcl45ypRGaAf9pdLPsdjQvwHQp31trrEqS881gcrDSgS9V43TQ1jXJCy8Ric/EqAoMp75JblnMUzxvtkbd9vQS2VnenuXaWGhKlbSUFJnslofSUL3MVsXj/Uz2COHtQoWRr4pNpX4mOwt8BMP08FRVCXqpHy43rKkWxEGo6pGRNA3Nof/SZWRZ1EfHQL1EdmY5shg/bIAUTFTS7CTcW+tZJzTxNrzXLWe3dVplRXo28GRoLilpdjq8RYZjKXfZB1WlIHST2QvbBlTLFFetCdAvzi6eTMfaYqr7c6mfy25YV4AhFV7iqFlJc96vxQQ9if0kwxqKKprzRrljucPILPFaITWCkuR8M0do6tkmpiB7pfXTNcozdsiwPrunLakk2cF352Dysae5hURX8WU3nT1jktieGGOtOsWjm82e2b6GKd1O+rj8+hd56ghy2/FhszuNh5+G7cPTZvd8Go+Xw9ce2j8fluPDen94Gk6XwY+fd6fH8bRZPqz2y+Nl3Onh3fA0vjw6jqtxdTf+IqNdHn0ah+PzYXwad6eH5eOw243bNvJfv3gB+eTH8fOF5PW3Qmw7LMbt5evfvf36ebd5mfpy/7w7vUx5+PjxMH4cTpv97mXKz09vX2m53z4/7d6dwa+/yoPjdvh0HFcP+8Pm42b3cFkh+c162B7H6cFPh/1yPB43u48Pj5vjaX9oL/bny4tfzWTHZd9u/uN63U6P+9XlAezZ0/DL5dtPw2F4ulrH5X633nx8+W8coUNbit3zdtvmvVu9+eCX5fb5iFk0On9uh2XYDdvPx83xvFlf34xP42GzXz08YuGO5/wkc/0N5nz1rS1vvh1+ufr2cg4X+NH1AbVRPl7tnxc4w5+2+/Zap8PzeGaB/UcsxoO88hXFM8HLA0/71dVpXQ7bcXXNSO2h0+NhPD7ut22t7Fsa/+t52J0222lu8fWXnx+E6mWMdTuNrx/6NHwcH1bD5+ntgny7xKT3hy9eIU3DT19jB99bz8X++fSVectXT29X9Po7bMLH4dN73+NcjKeH/Xr9zoSm73Zf/eoynQfs9hK8L88U8/r3P42Hw2Y1Xp1j+aL9Z2MijP/ySfsIdH/GxA8/jges5unx+MJ5X3yPLXj7NT6yD+/wh3z+BZPgU/eVp92XT396HI7jw/Fxsz5xj998Kee+nYJhi0fPx9R+8fUb5t/unxZv2U79yMTd1w/95Wqyh3E9Hsbd8uXY/sd42L+QkocIrMfLA5dNvx5sNZ4O5/VoiLYbv/LMw8+b3Qp79HXkOD/4ab/9vNs/bSC0ViPwu03Sv/coTzmE22b1sD5cgau5j+89vRh2q583q9Pj1STebNTl2S2muny+5ssQ35/u4+bj49tH339yvdlCGEOGrMZDW4GvjAwB8vqFZmbJZzcgK0Lu+PWlGo7b48Pxab8/Pe7wm4np5a/3Zys/GI6fn3CiJin25ti+fvTNJCZA2W3xFQFnuX/6hNMxSecJReXb5eawHFabQQDr9eu+/b4Jwzffb54gdH9qysYrFouTTD0OIga2D9tx9/H0+JrE8nHzcATCH8DCn7ab3ZXK9M4puXp6kt7HN9rF/sf9FrN5WDwfH8ft9kW0r0ENAPLwOBye9rvNcjoqr788nsZPr8VZe4nj4cv1Neb81eVgv54svjkdNk/thK4P4/96Bst/fi1J8cxHwDGYbnPeGhfT+Suqd+0z6KOmTrv/76cfH9oJmGDG8QgJO7Pi+l8uD51Pz2Z8s4xCocHm6xd+0VOmQZ6eT++9NL9d7g+H8bVGtXi8rLeM/+Vp4Mdffyse1KuVqG0heACftwNWE1r6ZayryV0GvTz5xczdeeaXR4hdkJfP29MwSUpzn18/8s78L99dXuIN2XdW5bhZDT9e5rjZHTnisBv3z0c5Om90tssevPfkK/3tK0+OK2g7cvKWn5dntcmeMfmwfEf87PbL0/MBWuiL9MBzTZ5fHrroCS8PYOLy6TWonL8YdhswaPumXL55zX728vlqHFYP/wGEesV+LxSJX8Nhc4T+8862vHmiuwnb/e7j5vS82uyaafZwfF78O35xDeBfPDN+2i8fv/rEO7N69f3fNqfjp0dw+PJspfEfFMU7LA649uO4OR7bzjSoAHKeTjR6OM8XRfdiZ776/jjSkuFM3lnrl0ffeaGXL0XNvAzk3347bfLDab8Fap5P2llDXu3xDpzJdvzpbJmGl2/eGVg+X55e6F3rMddUFxCwx9Nh+PSa6yGbDgOsOcqoL0+/sAm17suCXj//H+Pm9HFcXDHCFoB+evfZWY559eD1PsUvvn5nCbj7Lw8sD5RH3MLj6tUqvH7svW16/cR5Ig/jsHx8wIkcr+XicPyR+wlL93TYb18o5Vdfk8YXj/hXj7zzQuth+FIp9dNr8Mv3Js/Pv/ru/PKdheXH6+F4evl8Mrv5xXunfDtCKG6envaLDU7059eG2pml5KGzff7GFDzzHYTL4aJavXNkr75/Bezl3d83l9KRwq0h+8yzh3ELDocexN8QVcY3cgxgOe6a8tREC3TZ6ZHylSeox0xr4L585D2u3ayF1U4bwT/C8yQ0/zxphvsXDHs10Rcz6MV0ekUN6tQ4KUFvTM1Xjx0eP58enwBEvdlxzV4MLv/e9Dvw/erp90TUsMHbf03YTN92R5mee1cEjquN/PTh9Pa4XUyMV8+8OnKuvPfMF/qwffuM2BYvakb6ksg7kH0WNqef9w+Tx06mjBO8O26utbZ3H3vD32+/lnNzLVVePYD5vlHlL1Li+rnDKA6Ir5GRhXntwLn/koh4DEcancdPw+6VHnb92GnzRIx8LSzPa/367Y5Pwwk4fdpc+Lmx4hGc81leDucHFi7oXV7u6oH15uPz4exwvnJSHH/6+MJox8+75eNhv/vcgB1W1CuT8s3XxP3N4ply/2pPXh56V40YLkx3pe6nV1/O/O7r2v35ieV+S1sS+rhs9JnMZGos9880Nd+VSpfv5OVeDvZZMF2+n0TX1SPujSG/OeLfjsIk79P68sH3+Hr/M8/P5ul5e/XGYXrh9i33fTflVlx9jAP8cTy9QvWX5484J7vVmWsvCCHfX0zwr8/ntfmzXp8eFtth+eMT5A+0P6jhbz2AeAKvuYTl+/Riw5HWBdt+HqANjqdXcDJNSzSu48MEi/nNp01x+97W68+5R8fl47h6ngTlJPQv6ty730LjeMfxiE+/cDuu3n1y9c6TFzf0RVvA8dy/aIn/m5W/vnRby3u8fXgtf3358Aqq59tnV4l/X55tHuA3zyyNr+7Fjdl8v28fciWXRbyy/fanPR4BMI1nT3HzmR9Pe9ne5jU+R1iahjAfXWmH9eKD+u6saJ0/n3xP9qLnTlo8HZDP4+sVf/nyrXf/nUdee/jfp3HaHM/Rpim+9uJ0oOmNxac77qdNe9PVar++4o7JTze+VVXGHQ78/hPweLvfH976UO3keR/FpjoSaX9qMPFKid3sPj2fro7idfjSvNMHuj1/7TWeC3ZiihvA+NM5miABg1fTkE8+Qc260ln8vWUb7Fd+GdFNv/t5f/hxgVV9vDzLYsj3L4/unp8+vdi8oHL13Scu9PHqS/z9sg3LzdUP7b0N9/Z6j05HcUIerwcOV7//4+d/a/hzvCJSr0Y/B+m++/Eq4GleTRBClcGy7WZxtRT1apDD+Gl/OG2Hl+/jvbkiADl8/WO+obn+8WF/jji2wWN7x18n0bRiHGRwMV0FKS/e2y+X3vOiXVpam1xZr3NMwSx9SONi5cI6+fWwWjtjzdIls16vVstFXdeFL2ZlbF2ubfpiaR6ulybbRXC+DItc3GK95IWSVNd5NViIG7ewZVwuYk4Lu1yvlymsva02LwFYZpniMCxm3nu5WA6DB50xR9BdFseLWWa5smVdTQp5vViMixjsIi5Wq7AaR2ft6Bax8h1WL0s2/jIuny88Jwu2oZHF8/7asfwPf7wc8UnBgQr4Isn+TbSB49VJWD5udi8uht/94b+kcI2f1OeuEFa+v/uvw9Nm+/nOxbs/8KzeFXP3r1A0P4H/78y3d797Pj3SwFji6RfchOU5UOq8w6j//Ic/PvzT//mHhz/9t3/5/e/+y7++Brh//uPv/+k//+Pv/vXrT/zhf/zj17/8v37/D//43//zwx9+9z//+x++9gx+/Pv/+cd/eZfIr/jrL68Q7hZJv0XSb5H0WyT9Fkm/RdJvkfRbJP0WSb9F0m+R9Fsk/RZJv0XSb5H0WyT9Fkm/RdJvkfRbJP0WSb9F0m+R9Fsk/f9PkfQpnPEwe1Ozd93yq5dRf/0V/7r78O2H8WkxrlbjavKrfGjw9uH7D6fxl9Nvl8ef/vc7zOSAmf7982n9XcFPeB8VD0x4uBpOAz8cfyZq4PN//K/4z0/Ph0+wKfCfjIA8UAW6BNWP+P5A9ufVUdqxH1oIEw+HIdYyLtgmarG2SxfXJo4uOFssCzTzSngoZmlHv0xxYV1OdTHyJr9lUatl/PDrX76FNnGcYBWoIIHELScCdRqLwVf+5QTNi3Dw4fu/tvmdHvnOf/2weN6ttudZH3kX9fyaG6zQh8P6u3Hwnh0GVja64FdpGH0IZRXDiqUy1wvQb1dWaYiexif86nLrlOty2K+el5gGBls/70TMnxfp8tz9p894dDvsPj4PH2U2/O9PgIjpP/H0dzLly6cPU4Qe3zocoBZBxUiN/vnFHrbD5/3z6ZrEbx1X5CWUyIdfgtp4UsLZ3GCG6Ume8W8ZmKF5+cDJAy0jQH4huQAfvr3EcfGhRK7x0XEcFvvDTj6x/l4mO/4y0D4dFts35+pqSXASP7x68uFyaBYLV8tgQ15EExcx5pSqc4sYwliW1ZgVdqykxWphh5WProTVGMG4ebX0vsYxgu7juKVlcCFZVm69XrGaUFrwPvqwWselGWpILPJWRx/jWFdpnVZh5crCptGVuAZNu0r4r+WrnX53d89fP3yxzecvXiYT/SouxpTjuLS1LjIO/7qu8crVsOWSL9aMy4RlKMOwXAe/XC1Xa0bC1/jblldE5f41iP4gf//LdEzGu9PjePevjAbeDXcXNehutV8+XyLjd21n7ttPf9j9sFsf9k93Dw/r5xN37OFu88RkhzsA1/6sYuCp6VPs4OXf//24P/+cETGctPNv/4j/vDx2/Hy8DPNOWsP5N+Mv/GNS0OQXP+xW4/oOCsyGvo/jTxAHT5vTN7+5++7/uPun/W78/ofdHf6ST+/+nuPcQ64feTNcvvj5EZhx9ycg4vQk/zodPl/9F/8C5fv1ZqTgw0+nQeSfv3n94GGki/Dls/GX5fjpdPfP4No1jMffHw77wxvabW6//e3f31nTXum//f5ffo/JcoW+eWBEBkv+m3u88X770/jNb+5pIu5OP+y+fO0fdj9vTo933wiF39798HUe++HDb+73MEy/mfD870WU3GG19zwQ+E+RAnjsbjjeQUQBVaaJfxo+b/fDCjPk7t7z348g88vpGy7Tf4FJ8y/jsBoP37Rf/eY3f6Y/hU7kBzkOH/6CeUrW1GE8gArUr+F0Onzzene/vfu79szLvB+ggf8dfnt+vb97eSP55v5nOj0eFp8hAL85D/DNNN3f/EbEIDMqRKoxZeEPv79/Wl0+fGFEY+0622HN5ns5jysiwVABKEuWPllCOA3ZrMywHAbj0lAX1Y9lPQ7OLV3KVRDxmWr/E1S9lTA8IfPuPXw4Lg+bT6cbo94Y9cao14x6/HGz3b6wJDTF1TDWEsaRVeB8sMsRgrs4NoGiLmlsMeOqpAFiscZlWpmcCzjSQgtwkZrrVJIEJun4Cyi2/zxOCsf1l9cSeQAtkxfsWG2XKxPA9jVmg+/NIo9r6xfFG/xzaYPNoQAKUjbLOhImhgrC5A2aWasNnVb7A1WreypDtKyeBiqbk/L0W3uZx5F1TVizZBCtG6raRdeclPLXe0AoEWVwcmiShfmKh+XDlw9SKRcFTPJFP1xp5VCmkguL9RpKSFlV5vKlEAe2I4EOnBK1kbCO61RrCOtltKvlIgEnc2bB/BX1XmE72Vgo/Nnh75e1XX11Sr9+O/+2rJbzMJXCmXvZL577+rsWt3ZDWpqFX+Hvul6m7FMxcZXXJYUxheXSDiNechjcuFyu8P5mDYMemlgYcATfvKvzLpcvX/Wdic+/6TnLbXrJJzA58Gz1IKZaS+et35nMqm+sqBakKKS3/0kygT98ZVVaCgRO4XdT5s3D9TBfX6NFjWUd3GqoeTRhDe6KNpoSFyWN64IDDnOMlcvWKUEi1hxXYZ1Xo7fjAIZM7u0aJWvSO4v0+p3n10dE6PH0eTvOrFD5zhWWlYxVagxXG1yYXaHXVL++IKmMYVkWzrGLRfCAA+jmQIFlGDxWIgGA/CKvVxn2h1nF6gEVa+/Wg4GJUuzqLYNAq/dfrsfbd/x/cWLYYBNWA2yZ+1JcMrF8ZQVe5fP/jcfEr2A3ATegJ5lFAlqWRVlHnwewWF359RIMBERcwo5fOkCCWa3XaxydlXOGq/X2mGTna329LH/LEWk5SbPr4by5D9aVGv+25Xih/PXVyNYvs/dpFSNWhTXOFsHXIWNtVou6WgyDX4y0SvGItW6IjjLNFjCOLV4cC6/OSGIR2Tercf2G84ux3G6ggnx9LUwGd9yHhKVw4W9ajBfKc/yytOuR4tgvA7TlAUJkNSQLKekdu9qNeQ1LexXXFqCax8VQElTpMa2HMQzLL/ilQsS+Xorr95tfibOYfWgukq8uiQdepHRvbTDR1HeW5P3leIf819dlXep64etqhTVwQ8kJqFpSGfxocAjcOrCUXckLY3NerEz0A56rxi6GusqLHN6si8eBfnNE3n3b+QWi53nDbDGNWvH+w19/43E1DgSI0Q6rhQU8jNaH0a2CNQPkSlikGoZagQ3LvM5jMf93a1eQgyAMBL/SePYAlBZ69hEeTVu2kcQYE/Hk551WxJaCF7wBIWR2t2xnhoZaq4VAZkqOfOg5tWj8S5x3zrUQfgf+4d7k+msf946lwJdvXg9coV5coeV1thZthfqiP9SGoCgb0ClcRpc04FhKgFph/MkKsZva8VZYbealRs9SIg98LYRnHkNCe0fUCTWOSdJ2/puAr8PGNRmmJV08IpvctQTVZp8sGUvhZ7MZqMQgeINJxHeM6A+GQUqcQbu9wx1Z6f7jS3QexGQ0A0u/UxkmTqpMSRhmyAdJSdw1SoOvlbKVTqii7QiUvRAG49HpkghTUaNCnb6P9oePe+h0w0nfbpfeBst2vxv6ISTi8JH+7DhJf4szqy9+hd9ADIpydAGCkXHPjIy30GR+TfyVnSEAIYpeQ/Z293DuAQA=</fig:figure-record>
</metadata><style>text{font-family:Arial,Helvetica,sans-serif;fill:#000000;font-weight:400}.title{font-size:20px;font-weight:700}.axis{font-size:22px;font-weight:400}.tick{font-size:20px;fill:#000000;font-weight:400}.legend{font-size:15px;font-weight:400}.grid{stroke:#dfe4ea;stroke-width:1}.frame{stroke:#000000;stroke-width:2;fill:none}.spine{stroke:#000000;stroke-width:2;fill:none;stroke-linecap:square}.tickmark{stroke:#000000;stroke-width:2;stroke-linecap:square}</style><rect width="1200" height="725" fill="#ffffff"/><text class="title" x="126.00" y="38.00" text-anchor="start">Normalised recording</text><line class="tickmark" x1="126.00" y1="635.00" x2="126.00" y2="646.00"/><text class="tick" x="126.00" y="659.00" text-anchor="middle">0</text><line class="tickmark" x1="334.00" y1="635.00" x2="334.00" y2="646.00"/><text class="tick" x="334.00" y="659.00" text-anchor="middle">76.7</text><line class="tickmark" x1="542.00" y1="635.00" x2="542.00" y2="646.00"/><text class="tick" x="542.00" y="659.00" text-anchor="middle">153</text><line class="tickmark" x1="750.00" y1="635.00" x2="750.00" y2="646.00"/><text class="tick" x="750.00" y="659.00" text-anchor="middle">230</text><line class="tickmark" x1="958.00" y1="635.00" x2="958.00" y2="646.00"/><text class="tick" x="958.00" y="659.00" text-anchor="middle">307</text><line class="tickmark" x1="1166.00" y1="635.00" x2="1166.00" y2="646.00"/><text class="tick" x="1166.00" y="659.00" text-anchor="middle">384</text><line class="tickmark" x1="126.00" y1="635.00" x2="115.00" y2="635.00"/><text class="tick" x="114.00" y="639.00" text-anchor="end">-1.12</text><line class="tickmark" x1="126.00" y1="529.00" x2="115.00" y2="529.00"/><text class="tick" x="114.00" y="533.00" text-anchor="end">-0.67</text><line class="tickmark" x1="126.00" y1="423.00" x2="115.00" y2="423.00"/><text class="tick" x="114.00" y="427.00" text-anchor="end">-0.22</text><line class="tickmark" x1="126.00" y1="317.00" x2="115.00" y2="317.00"/><text class="tick" x="114.00" y="321.00" text-anchor="end">0.22</text><line class="tickmark" x1="126.00" y1="211.00" x2="115.00" y2="211.00"/><text class="tick" x="114.00" y="215.00" text-anchor="end">0.67</text><line class="tickmark" x1="126.00" y1="105.00" x2="115.00" y2="105.00"/><text class="tick" x="114.00" y="109.00" text-anchor="end">1.12</text><line class="spine" x1="126" y1="635" x2="1166" y2="635"/><line class="spine" x1="126" y1="105" x2="126" y2="635"/><polyline points="126.00,368.83 127.36,334.06 128.71,300.50 130.07,269.30 131.42,241.39 132.78,217.47 134.14,197.94 135.49,182.93 136.85,172.26 138.20,165.57 139.56,162.34 140.92,162.00 142.27,164.01 143.63,167.93 144.98,173.47 146.34,180.55 147.69,189.28 149.05,199.92 150.41,212.85 151.76,228.48 153.12,247.18 154.47,269.15 155.83,294.44 157.19,322.82 158.54,353.78 159.90,386.57 161.25,420.20 162.61,453.54 163.97,485.38 165.32,514.55 166.68,540.02 168.03,560.94 169.39,576.76 170.75,587.22 172.10,592.39 173.46,592.60 174.81,588.42 176.17,580.53 177.53,569.71 178.88,556.68 180.24,542.06 181.59,526.29 182.95,509.62 184.31,492.10 185.66,473.58 187.02,453.83 188.37,432.55 189.73,409.48 191.08,384.47 192.44,357.56 193.80,329.03 195.15,299.40 196.51,269.40 197.86,240.00 199.22,212.26 200.58,187.29 201.93,166.15 203.29,149.72 204.64,138.68 206.00,133.39 207.36,133.92 208.71,140.01 210.07,151.11 211.42,166.46 212.78,185.16 214.14,206.28 215.49,228.92 216.85,252.30 218.20,275.86 219.56,299.23 220.92,322.27 222.27,345.01 223.63,367.65 224.98,390.43 226.34,413.59 227.69,437.26 229.05,461.40 230.41,485.79 231.76,509.95 233.12,533.21 234.47,554.74 235.83,573.58 237.19,588.78 238.54,599.46 239.90,604.91 241.25,604.66 242.61,598.55 243.97,586.74 245.32,569.69 246.68,548.14 248.03,523.04 249.39,495.46 250.75,466.48 252.10,437.13 253.46,408.27 254.81,380.57 256.17,354.43 257.53,330.04 258.88,307.36 260.24,286.20 261.59,266.29 262.95,247.34 264.31,229.17 265.66,211.72 267.02,195.13 268.37,179.74 269.73,166.10 271.08,154.89 272.44,146.89 273.80,142.87 275.15,143.52 276.51,149.34 277.86,160.59 279.22,177.23 280.58,198.92 281.93,224.99 283.29,254.55 284.64,286.50 286.00,319.66 287.36,352.85 288.71,384.98 290.07,415.15 291.42,442.71 292.78,467.24 294.14,488.61 295.49,506.92 296.85,522.45 298.20,535.57 299.56,546.66 300.92,556.05 302.27,563.92 303.63,570.28 304.98,574.95 306.34,577.56 307.69,577.60 309.05,574.46 310.41,567.58 311.76,556.46 313.12,540.78 314.47,520.46 315.83,495.72 317.19,467.06 318.54,435.26 319.90,401.34 321.25,366.47 322.61,331.89 323.97,298.80 325.32,268.26 326.68,241.15 328.03,218.05 329.39,199.27 330.75,184.85 332.10,174.54 333.46,167.93 334.81,164.50 336.17,163.69 337.53,165.03 338.88,168.15 340.24,172.87 341.59,179.20 342.95,187.34 344.31,197.64 345.66,210.49 347.02,226.34 348.37,245.50 349.73,268.15 351.08,294.24 352.44,323.44 353.80,355.14 355.15,388.51 356.51,422.49 357.86,455.89 359.22,487.52 360.58,516.21 361.93,541.00 363.29,561.12 364.64,576.12 366.00,585.85 367.36,590.44 368.71,590.31 370.07,586.06 371.42,578.40 372.78,568.06 374.14,555.72 375.49,541.90 376.85,526.95 378.20,511.02 379.56,494.06 380.92,475.88 382.27,456.19 383.63,434.67 384.98,411.11 386.34,385.42 387.69,357.71 389.05,328.36 390.41,297.98 391.76,267.42 393.12,237.70 394.47,209.91 395.83,185.18 397.19,164.53 398.54,148.79 399.90,138.55 401.25,134.09 402.61,135.35 403.97,142.00 405.32,153.42 406.68,168.81 408.03,187.27 409.39,207.88 410.75,229.83 412.10,252.41 413.46,275.15 414.81,297.79 416.17,320.27 417.53,342.70 418.88,365.30 420.24,388.34 421.59,412.00 422.95,436.37 424.31,461.32 425.66,486.52 427.02,511.41 428.37,535.22 429.73,557.06 431.08,575.92 432.44,590.87 433.80,601.03 435.15,605.78 436.51,604.73 437.86,597.80 439.22,585.26 440.58,567.67 441.93,545.82 443.29,520.70 444.64,493.38 446.00,464.92 447.36,436.28 448.71,408.23 450.07,381.33 451.42,355.92 452.78,332.07 454.14,309.69 455.49,288.54 456.85,268.36 458.20,248.89 459.56,230.01 460.92,211.75 462.27,194.34 463.63,178.23 464.98,164.06 466.34,152.56 467.69,144.55 469.05,140.81 470.41,141.99 471.76,148.52 473.12,160.58 474.47,178.04 475.83,200.44 477.19,227.04 478.54,256.88 479.90,288.83 481.25,321.70 482.61,354.36 483.97,385.78 485.32,415.14 486.68,441.88 488.03,465.70 489.39,486.55 490.75,504.59 492.10,520.13 493.46,533.53 494.81,545.16 496.17,555.27 497.53,563.95 498.88,571.12 500.24,576.50 501.59,579.63 502.95,579.93 504.31,576.79 505.66,569.61 507.02,557.95 508.37,541.54 509.73,520.41 511.08,494.86 512.44,465.49 513.80,433.18 515.15,399.00 516.51,364.15 517.86,329.88 519.22,297.33 520.58,267.52 521.93,241.22 523.29,218.93 524.64,200.85 526.00,186.94 527.36,176.88 528.71,170.24 530.07,166.50 531.42,165.15 532.78,165.76 534.14,168.06 535.49,171.97 536.85,177.61 538.20,185.25 539.56,195.29 540.92,208.18 542.27,224.34 543.63,244.06 544.98,267.45 546.34,294.35 547.69,324.35 549.05,356.75 550.41,390.62 551.76,424.84 553.12,458.20 554.47,489.50 555.83,517.63 557.19,541.68 558.54,560.99 559.90,575.19 561.25,584.22 562.61,588.32 563.97,587.96 565.32,583.76 566.68,576.43 568.03,566.66 569.39,555.05 570.75,542.05 572.10,527.90 573.46,512.66 574.81,496.19 576.17,478.24 577.53,458.48 578.88,436.63 580.24,412.50 581.59,386.06 582.95,357.54 584.31,327.39 585.66,296.33 587.02,265.29 588.37,235.34 589.73,207.62 591.08,183.23 592.44,163.15 593.80,148.16 595.15,138.74 596.51,135.08 597.86,137.02 599.22,144.14 600.58,155.77 601.93,171.09 603.29,189.20 604.64,209.24 606.00,230.44 607.36,252.20 608.71,274.15 610.07,296.11 611.42,318.12 612.78,340.34 614.14,363.02 615.49,386.41 616.85,410.66 618.20,435.78 619.56,461.55 620.92,487.54 622.27,513.10 623.63,537.38 624.98,559.42 626.34,578.20 627.69,592.78 629.05,602.36 630.41,606.35 631.76,604.47 633.12,596.76 634.47,583.55 635.83,565.50 637.19,543.46 638.54,518.43 639.90,491.48 641.25,463.62 642.61,435.72 643.97,408.50 645.32,382.40 646.68,357.64 648.03,334.25 649.39,312.05 650.75,290.81 652.10,270.25 653.46,250.18 654.81,230.54 656.17,211.45 657.53,193.26 658.88,176.50 660.24,161.87 661.59,150.19 662.95,142.29 664.31,138.93 665.66,140.71 667.02,148.01 668.37,160.89 669.73,179.13 671.08,202.19 672.44,229.23 673.80,259.25 675.15,291.08 676.51,323.57 677.86,355.62 679.22,386.27 680.58,414.81 681.93,440.77 683.29,463.94 684.64,484.35 686.00,502.22 687.36,517.88 688.71,531.68 690.07,543.92 691.42,554.79 692.78,564.30 694.14,572.26 695.49,578.28 696.85,581.84 698.20,582.30 699.56,579.03 700.92,571.45 702.27,559.17 703.63,542.00 704.98,520.04 706.34,493.71 707.69,463.70 709.05,430.97 710.41,396.63 711.76,361.92 713.12,328.04 714.47,296.12 715.83,267.08 717.19,241.61 718.54,220.09 719.90,202.66 721.25,189.16 722.61,179.25 723.97,172.47 725.32,168.32 726.68,166.34 728.03,166.17 729.39,167.65 730.75,170.79 732.10,175.79 733.46,183.02 734.81,192.92 736.17,205.96 737.53,222.53 738.88,242.89 740.24,267.05 741.59,294.78 742.95,325.55 744.31,358.58 745.66,392.85 747.02,427.21 748.37,460.41 749.73,491.29 751.08,518.79 752.44,542.06 753.80,560.54 755.15,573.97 756.51,582.38 757.86,586.08 759.22,585.59 760.58,581.55 761.93,574.65 763.29,565.52 764.64,554.70 766.00,542.52 767.36,529.14 768.71,514.51 770.07,498.43 771.42,480.60 772.78,460.68 774.14,438.40 775.49,413.62 776.85,386.40 778.20,357.05 779.56,326.14 780.92,294.47 782.27,263.04 783.63,232.97 784.98,205.42 786.34,181.47 787.69,162.05 789.05,147.85 790.41,139.25 791.76,136.35 793.12,138.90 794.47,146.40 795.83,158.14 797.19,173.28 798.54,190.95 799.90,210.32 801.25,230.73 802.61,251.67 803.97,272.86 805.32,294.22 806.68,315.85 808.03,337.97 809.39,360.84 810.75,384.68 812.10,409.60 813.46,435.50 814.81,462.09 816.17,488.85 817.53,515.00 818.88,539.65 820.24,561.78 821.59,580.37 822.95,594.49 824.31,603.41 825.66,606.61 827.02,603.91 828.37,595.44 829.73,581.64 831.08,563.22 832.44,541.09 833.80,516.27 835.15,489.78 836.51,462.58 837.86,435.49 839.22,409.08 840.58,383.73 841.93,359.57 843.29,336.53 844.64,314.41 846.00,292.96 847.36,271.93 848.71,251.19 850.07,230.76 851.42,210.85 852.78,191.91 854.14,174.56 855.49,159.59 856.85,147.83 858.20,140.15 859.56,137.26 860.92,139.72 862.27,147.81 863.63,161.52 864.98,180.50 866.34,204.14 867.69,231.52 869.05,261.60 870.41,293.22 871.76,325.23 873.12,356.59 874.47,386.45 875.83,414.17 877.19,439.38 878.54,461.98 879.90,482.05 881.25,499.87 882.61,515.75 883.97,530.03 885.32,542.96 886.68,554.63 888.03,564.96 889.39,573.66 890.75,580.25 892.10,584.14 893.46,584.65 894.81,581.15 896.17,573.08 897.53,560.11 898.88,542.13 900.24,519.36 901.59,492.29 902.95,461.72 904.31,428.66 905.66,394.28 907.02,359.81 908.37,326.43 909.73,295.20 911.08,266.97 912.44,242.31 913.80,221.53 915.15,204.65 916.51,191.47 917.86,181.60 919.22,174.57 920.58,169.92 921.93,167.24 923.29,166.27 924.64,166.93 926.00,169.34 927.36,173.79 928.71,180.71 930.07,190.58 931.42,203.87 932.78,220.95 934.14,242.01 935.49,266.97 936.85,295.52 938.20,327.02 939.56,360.60 940.92,395.17 942.27,429.55 943.63,462.50 944.98,492.86 946.34,519.66 947.69,542.12 949.05,559.78 950.41,572.49 951.76,580.36 953.12,583.76 954.47,583.25 955.83,579.48 957.19,573.09 958.54,564.67 959.90,554.66 961.25,543.29 962.61,530.63 963.97,516.55 965.32,500.76 966.68,482.94 968.03,462.75 969.39,439.94 970.75,414.45 972.10,386.42 973.46,356.26 974.81,324.62 976.17,292.42 977.53,260.71 978.88,230.64 980.24,203.37 981.59,179.95 982.95,161.24 984.31,147.85 985.66,140.06 987.02,137.87 988.37,140.95 989.73,148.73 991.08,160.47 992.44,175.32 993.80,192.45 995.15,211.12 996.51,230.71 997.86,250.84 999.22,271.32 1000.58,292.15 1001.93,313.51 1003.29,335.65 1004.64,358.81 1006.00,383.19 1007.36,408.82 1008.71,435.54 1010.07,462.94 1011.42,490.40 1012.78,517.08 1014.14,541.99 1015.49,564.10 1016.85,582.39 1018.20,595.97 1019.56,604.16 1020.92,606.55 1022.27,603.04 1023.63,593.87 1024.98,579.56 1026.34,560.88 1027.69,538.78 1029.05,514.26 1030.41,488.32 1031.76,461.85 1033.12,435.57 1034.47,409.97 1035.83,385.32 1037.19,361.66 1038.54,338.87 1039.90,316.73 1041.25,294.96 1042.61,273.38 1043.97,251.91 1045.32,230.66 1046.68,209.94 1048.03,190.31 1049.39,172.46 1050.75,157.24 1052.10,145.53 1053.46,138.16 1054.81,135.83 1056.17,139.02 1057.53,147.93 1058.88,162.44 1060.24,182.12 1061.59,206.25 1062.95,233.87 1064.31,263.91 1065.66,295.20 1067.02,326.65 1068.37,357.27 1069.73,386.31 1071.08,413.22 1072.44,437.75 1073.80,459.86 1075.15,479.70 1076.51,497.57 1077.86,513.78 1079.22,528.63 1080.58,542.30 1081.93,554.80 1083.29,565.92 1084.64,575.30 1086.00,582.38 1087.36,586.49 1088.71,586.95 1090.07,583.11 1091.42,574.47 1092.78,560.75 1094.14,541.95 1095.49,518.38 1096.85,490.63 1098.20,459.58 1099.56,426.30 1100.92,391.99 1102.27,357.86 1103.63,325.06 1104.98,294.58 1106.34,267.17 1107.69,243.31 1109.05,223.20 1110.41,206.80 1111.76,193.82 1113.12,183.88 1114.47,176.51 1115.83,171.27 1117.19,167.84 1118.54,166.05 1119.90,165.92 1121.25,167.65 1122.61,171.64 1123.97,178.35 1125.32,188.29 1126.68,201.94 1128.03,219.62 1129.39,241.42 1130.75,267.21 1132.10,296.55 1133.46,328.72 1134.81,362.76 1136.17,397.53 1137.53,431.82 1138.88,464.41 1140.24,494.18 1141.59,520.22 1142.95,541.86 1144.31,558.73 1145.66,570.77 1147.02,578.19 1148.37,581.40 1149.73,580.98 1151.08,577.58 1152.44,571.79 1153.80,564.13 1155.15,554.94 1156.51,544.36 1157.86,532.36 1159.22,518.72 1160.58,503.13 1161.93,485.20 1163.29,464.63 1164.64,441.23 1166.00,414.97" fill="none" stroke="#0e8f8f" stroke-width="2.4" stroke-linejoin="round" stroke-linecap="round"/><line x1="126.00" y1="58.00" x2="154.00" y2="58.00" stroke="#0e8f8f" stroke-width="3"/><text class="legend series-legend" x="162.00" y="63.00" text-anchor="start">Processed signal</text><text class="axis" x="646.00" y="703.00" text-anchor="middle">Time</text><text class="axis" x="0.00" y="0.00" transform="translate(34.20 370.00) rotate(-90)" text-anchor="middle">Processed value</text></svg>