<svg xmlns="http://www.w3.org/2000/svg" width="1200" height="742" viewBox="0 0 1200 742" role="img" aria-label="Predicted re-entrainment after the schedule moves">
<metadata>
  <fig:figure-record xmlns:fig="https://reprofig.org/ns/figure-record/1" schema="reprofig/1" encoding="gzip+base64">H4sIAAAAAAACCu2bbW/kOHLHv4rQQLA2Yvfw+WGCDRDkNsiLS3JYHHAv1osGJVG2st1SR1KPxzeY754/pe52tyXSd0DywsDagx6LKrF+JKuKxRb5beUat33p6371+duq2Lp6t/q8+te6K1xZuyb7S9v9lvumeMoKXBVuWxy2bvCZa8rMf9233ZANTz7bd76siyHr/L1vhs7VzQ7/47I/bIesf2qfm+zJd369uls9dm63cx3UDPXOb+vGr77frYrOo95y4wbcYISpe2Lvif4zMZ8Z/tl/JPQzIXi8dIPb9IMbDkBeFe1uv/WDP90YXL71uPELGtNuD7tmU7SHBnWyu2PBdLMcXvYezx+a3xrA4fHG7ULBuTvuVvtDvq2LUdckiu7p+7qqfQniRB1Tszf/3bfNe9X8GrCaAZ3VXyi/u6jhoTl2Ljqn8xe9e/ew+vawelgN7rB5ag9dHy4+M7Emd2PxUmH/VFeXN9SxvPMVRqcp/FgaPpq2GA4deMLFUeZ/DjVQNm8rISeN7dZ3DpVc3ZPjvZ37uileCozNpHd64tyysXDoDn4sLrp68F2Ntp9ogo1VddcP2VhJVnXtLnt+qmGXF+bny2z/5Hqfoa9f+uy5Hp7qJgNC9pTdHGVQ6+YN6G3WVmM1/eBd+XI/jhQs/DEoarvxFgZkOIl1h+bcKUX7BVU9+s2z65q6ebwi7mHgh22djUJZ22xfMs7/4VRNcXaysU13Wd9mUzuHrO7hXRjpfRu8rcxc0bV9/0oS3K8e+uyvbeP7zHXnLkDz+qxzEAzcqHvnXX/ofDCY/kzd+2E4DcVrr4/Dg855NbNRYBrAqW82xZVZnUb+eHPf1xd37835ruuG6yfpySCrGia2aasKSJfP6jUlUjDNpVaEEsL8PZ1A9mjcKPPLtzP1ZGpTKxbVHBVc3bxX1zcX7rxpEFsT+P21VrqgVaW0iqhWsaxVLGhlC1r1WnNGJDFES2WMlnEGtmZKW2GpZYJTymSEaFnuDZ98q3dGyxdozdpIYi1nWlDFBVdxWrqmwhKiNJOGK6kEi+BGBN/wqreaZ7xigdeuhYAxWs0I4UQpFudFwAm6CdPWKsu5VhHeiOAbXv1W84xXLvJqzo2lglqumLEpXKYUJUYaorimxBId5V2WnAFfq6YzYLUIbHSwMaMEodpYkyKmLFga5dIaRgmL8i7JzWjf6J3R6kVay63kRlqhDOMpZ0OQVEQoKojkVCsmjBVR4IjojPmN9hmzWWbWlFqhbaieGJVkZsYQyUjQYNGBNG4UEdE587X2ObRdhjaKaU2otTC8JDLlmjFrCKFwKgIDjCMvi86RL3TDSefRnywjWy4U4wKxCCGGJ6GJknB8iUcQs9SbJv4tonPoa+1zaBqBhq9IgWjPLE/bM4HDCImQr4kSo38loJdlF6gv1c9jBmURaiOpYozDukjaojHWhmvkE4hJAjmFSVEvyy5QX6iXCwbCI9QWraRMM8Xle51N0HNGIxdSQkkBy01gL8suYF/pn2OLGLZSnGGQFNH8nd4mnCuNgecWShAYDE9xLwsvgV8SzMFlDNwgYiorjNLivf6mCMKcSMqZFJJbqlLgy8JL4JcEC12uYuSWYfon4ZclulyvkUrY8KuFUMpaf09iBh6XXeK+0L/EraPcsC1jLBxaJEIgBwsNHqalhhcpneCOyy5yX+ifY5sotmEhzso38eFtTqpDkEW0wnTHDDK0BHZCeJH7DCDmyQi1UW5L4RGMSaV0HNwgh0NgE5wjAWaSYWFFYvYdl13EvtA/X7CQOLZCNolQpG3KSJBKIq4xSjGvGWUT1HHZZeqTejOP3ozGqQ3MSijLUjkJRW4pJSdasLCQMlwkuBPCy+CvBHNwFge3mCcFwpCUKSvBHIygJsIaHHkSSHTUSCKiy9Cv2ufQPAEtRzNE6phaWQfbQ4RFoOLBzxLUcdkI9ln/HFsksMOyjVKdCoAMCbQ2hkkdwrEmKey4bAT7rH+OLRPYFvMxkuLUfGPXSiFEasRYTHt2jGmx3DUuG8E+659jqxQ2aocPSZEyEuR0An4jNLJjdE6KOyEcAz8SLORUTKfItUE+Y2zySxuK5AhZJqYGrSylCfC4bIz7pH+ObVLYeEKK5PKXrokQMqxlCdIfjsQ6wZ0QjoGfCObgNgVuJRxf2WQ4QYbBQ5apKCYnLiRYbNRSosIx8BPB/OsykgTXCombSdkJR65GjUaajPmYjlmSjRpKVDjKPQHMV2icJrkNVoAynVNh6Seo0EiUqSGYxBPgCeEo+JFgDs6S4FYoahMhRa65Qb1I7LHk4lwi4aCx73jjslHqST1dwOZpbER9aEkZClyMh4DFJcaTa5EATwjHySeCObhIgxskY8msCrkdI5jbgg8ZI1iCOyEc5w4Aep4OcpnmxigZlrITQzUWU5YRQTgc7fhFzJKVLEvGiUfVCy6p3iFGmpwMJRqxAWkdZQwrXfRfAjohnOAOAPNvtLl+hxuLaJuyEM6IwdQgJEYSy2aW4E4IJ7gDwEJ/m3e4LcKtTL2SYlaGRQs3yP+FCV3Ioi+pYrIJ7FH/HNu+h61TRoLeEMjYBD4wN7AUdEI4Ra2DQc3f05D3sJFzspSZCIQyGwY/ePyYbdD4y6WocIo8EMzB6XvgllOTMhM4e3ihoTizyo4Wy6NmEpNNYQf9c2z2LrbSya96mMLgK8x/+MS0lsCOyyaxoX+Ozd/FhpKUmWDqwxRMKJyeIbiJBHdCOAkOgjm4eBfcMpb6StBQGXzHcq4oHV+ii+hXgjHZJDb0z7Hl+9hKpMxESqYpV8gCCJGEJrDjsmlsJRbCiXqf26h0OAlvR4WmkhHMgSIBnhBOk5uF99X6ffDUSie+2eLv2piRxF5Y5wjzMbHth8SW5GNi04+JzT4mNv+Y2OJjYsuPia0+JvbHnCXlx5wl5cecJdXHmCV/vZv2aA8TdXPYbr/jr7Dd3O9yX5a+PO7sXVVttxs31Q/+6/Cp6L/8U1Y8uQ4sPx6G6t68bluv6sdD5zdhH30o9M/j3vzPqz/+27iLvdu3fbjcb9th45py3NFe90NdhM3yXft82mpP71b9k2NSQZgTz6z14wYx50npjSZ54ZhlXGD5nzuuma3KEu3PLc9zXGivvBfaOlcYMu6QL6Glq/PDuHl737VVvQ0gO9cPvgtN/jr4pg9bn8MhhpFveApt/rbKD005Cp+3iN9fbaJfff9+d2p4XYa9+9U9FnBOaqe9ZaVQhDlqDSlyhV61uZYCGtuufhx3LoNgl6gd/da15aEAJmCqQzPu0D524nr/AoGtax4P7nFkDNd7V/x2vITM/diQc+nmi+/6qQYWTk10fqp/qvXU3M3WvbSH4bKKTyz0U/Ol7tqJDMIwi3B/W+dhoNZ2HWSaww4YqH5N12RU3JSuHwvYKLB/GZ5GAL6mEAoyIwU6EYVkLdcURb13eds1YwnFWj7A+q8OzjKe0Li2tk2k+9aw1tXVc5v/O8O6Wz357d53r1WaklVVySi3Kg/vK11ZyYI4G17/4THPpfS2VJUqRclMTpVnRlZh51epcFVcjfZkhrGGTSN9FN7MTOB044xWccplSYqKaiU4hz1SwzzMFMtH4nSlneO+yC2RuXXe5Jx6lAnvIFzg46pSBJYi6HoYf38+mpAfTxf8afkgT9kWh/CHC4aWTUO3np5/aB6a8TjGZlMdhjCkm6zejSeDXIMINT7SB6ljKQb1/Pd0wGV8POzrhymenv1T2OZ/Eutf+rOa87GJzfP5bNJRbDqQtJnwxicemtJX2Qbt6P0GijfbelcPN7fZ/T9n/9k2/vNDk+FnLM1+DHrWO/e1r//qpxvPTwg12Z8RSI+S4WfoXi6uwg9qXle13yIm4tGjkvHz9lqw8+FQzWuZ/1r4/ZD9F9y62rbPP3Vd272pe2L79OnHjJKpSf/+088/ATb00A06HYSbze0aLW63X/zN7XrvOgzVQzNv9kMTzsRkN2MNn7KHSycMzvawul23e9/cHIP/j+OJkQx93JZ184jLccqAWOb67MmFYHPE3buXbetKcIUxXYe/e1TzdbgJnfMH2NTP3pW+u5meur395eHynNTD6lfQgRsivkMtjx6WM3Q312N6l/0wyWwih6I2/ZfHH1DTqYk/xDxwlFs/h5NGm/xl8P3NSfnNsSm3t+N82gF7nB5//ulf/vAfP6135bnw1T8JpZWmrpJMW619GcKFs8yIghLBCqOZ06QkrnCOMOUsQpI3lXeMFWGvzxhED+Gs2m6H7hnjQIiy2ftBpC+6ej/87s2/e/Pv3vw3eHP/W73dXmQRhpfOWyOQGFhjuaCFRwpgGLIAJa3xmGeJL43CHFpYWaiSaG3gtlSUnsmQJ0/T6aaGuq+ocbrsj6nL5c2LREM61EV0LsJ7pKIkArHBSk1wn+TaV5TnhhN8FlRQLQzihdKksD7EEmdRcfAWjOGmrDtfDG0XUrZ1SLL64snv3HgIdUrKPtEzx3T0dYexGHN8pIDnPPa4BLgenxBhxiRzC7f/4jfBqUMTu2IzFwxLgDGxq5v9IaSs5+ZqRkrphCrRf6bQuUF7uK1yg2zGh33IVMpKae+cKgvrqkISZHOqyBmtytzoUFdwxHFgw1ZSpDnitW/LKFI4pJtqLeJgj8dcOEKcauxMLt5WSjxXFa+QHypRcF1wZZxkWN2RiuW0Qs5mi5KJKreicJgdqNPK5HnuIOYr9aat1HJN501dAP82J7+yxCPwlbVecDOdEyustsgtmaRFTo1BxllRpmxeMceNdXmB/FgpQUu0T2vGjdcit2gieTtGctz1MUN6XfUccc758gVK8IWccq6dzJXVFSt8UTHMpTmRZe6J5rnk1Al4A1xTYd7NneRW5gJpO8vZG5RpX+8M5Wo2n2CupsVLIumKXGBFISsiKpkzog1VjBNGFMqVy7EyxMzOSi+9N8Ggc8QIXkqsGEhF3NvO4Sqsai+Wz59/uboeg/xrjCoVcgiG/vawINRPKlt5pTyvsJaROViMqqQlBhS5whKgrMrKUe9zz7UN0eKi6vPJ+Sas4vf7bV2MC7K71VAPYzf8Px7+//6/XRIu0G9AAAA=</fig:figure-record>
</metadata><style>text{font-family:Arial,Helvetica,sans-serif;fill:#000000;font-weight:400}.title{font-size:20px;font-weight:700}.axis{font-size:22px;font-weight:400}.tick{font-size:20px;fill:#000000;font-weight:400}.legend{font-size:15px;font-weight:400}.grid{stroke:#dfe4ea;stroke-width:1}.frame{stroke:#000000;stroke-width:2;fill:none}.spine{stroke:#000000;stroke-width:2;fill:none;stroke-linecap:square}.tickmark{stroke:#000000;stroke-width:2;stroke-linecap:square}</style><rect width="1200" height="680" fill="#ffffff"/><text class="title" x="82.00" y="38.00" text-anchor="start">Predicted re-entrainment after the schedule moves</text><line class="tickmark" x1="82.00" y1="608.00" x2="82.00" y2="619.00"/><text class="tick" x="82.00" y="631.00" text-anchor="middle">0</text><line class="tickmark" x1="298.80" y1="608.00" x2="298.80" y2="619.00"/><text class="tick" x="298.80" y="631.00" text-anchor="middle">12</text><line class="tickmark" x1="515.60" y1="608.00" x2="515.60" y2="619.00"/><text class="tick" x="515.60" y="631.00" text-anchor="middle">24</text><line class="tickmark" x1="732.40" y1="608.00" x2="732.40" y2="619.00"/><text class="tick" x="732.40" y="631.00" text-anchor="middle">36</text><line class="tickmark" x1="949.20" y1="608.00" x2="949.20" y2="619.00"/><text class="tick" x="949.20" y="631.00" text-anchor="middle">48</text><line class="tickmark" x1="1166.00" y1="608.00" x2="1166.00" y2="619.00"/><text class="tick" x="1166.00" y="631.00" text-anchor="middle">60</text><line class="tickmark" x1="82.00" y1="608.00" x2="71.00" y2="608.00"/><text class="tick" x="70.00" y="612.00" text-anchor="end">-8.89</text><line class="tickmark" x1="82.00" y1="502.00" x2="71.00" y2="502.00"/><text class="tick" x="70.00" y="506.00" text-anchor="end">-7.43</text><line class="tickmark" x1="82.00" y1="396.00" x2="71.00" y2="396.00"/><text class="tick" x="70.00" y="400.00" text-anchor="end">-5.98</text><line class="tickmark" x1="82.00" y1="290.00" x2="71.00" y2="290.00"/><text class="tick" x="70.00" y="294.00" text-anchor="end">-4.52</text><line class="tickmark" x1="82.00" y1="184.00" x2="71.00" y2="184.00"/><text class="tick" x="70.00" y="188.00" text-anchor="end">-3.07</text><line class="tickmark" x1="82.00" y1="78.00" x2="71.00" y2="78.00"/><text class="tick" x="70.00" y="82.00" text-anchor="end">-1.61</text><line class="spine" x1="82" y1="608" x2="1166" y2="608"/><line class="spine" x1="82" y1="78" x2="82" y2="608"/><polyline points="82.00,106.39 100.07,252.00 118.13,378.09 136.20,459.56 154.27,502.70 172.33,523.83 190.40,533.97 208.47,538.80 226.53,541.11 244.60,542.21 262.67,542.73 280.73,542.98 298.80,543.10 316.87,543.15 334.93,543.18 353.00,543.19 371.07,543.20 389.13,543.20 407.20,543.20 425.27,543.21 443.33,543.21 461.40,543.21 479.47,543.21 497.53,543.21 515.60,543.21 533.67,543.21 551.73,543.21 569.80,543.21 587.87,543.21 605.93,543.21 624.00,543.21 642.07,543.21 660.13,543.21 678.20,543.21 696.27,543.21 714.33,543.21 732.40,543.21 750.47,543.21 768.53,543.21 786.60,543.21 804.67,543.21 822.73,543.21 840.80,543.21 858.87,543.21 876.93,543.21 895.00,543.21 913.07,543.21 931.13,543.21 949.20,543.21 967.27,543.21 985.33,543.21 1003.40,543.21 1021.47,543.21 1039.53,543.21 1057.60,543.21 1075.67,543.21 1093.73,543.21 1111.80,543.21 1129.87,543.21 1147.93,543.21 1166.00,543.21" fill="none" stroke="#0e8f8f" stroke-width="2.4" stroke-linejoin="round" stroke-linecap="round"/><circle cx="82.00" cy="106.39" r="3.2" fill="#0e8f8f" stroke="#ffffff" stroke-width="1"/><circle cx="100.07" cy="252.00" r="3.2" fill="#0e8f8f" stroke="#ffffff" stroke-width="1"/><circle cx="118.13" cy="378.09" r="3.2" fill="#0e8f8f" stroke="#ffffff" stroke-width="1"/><circle cx="136.20" cy="459.56" r="3.2" fill="#0e8f8f" stroke="#ffffff" stroke-width="1"/><circle cx="154.27" cy="502.70" r="3.2" fill="#0e8f8f" stroke="#ffffff" stroke-width="1"/><circle cx="172.33" cy="523.83" r="3.2" fill="#0e8f8f" stroke="#ffffff" stroke-width="1"/><circle cx="190.40" cy="533.97" r="3.2" fill="#0e8f8f" stroke="#ffffff" stroke-width="1"/><circle cx="208.47" cy="538.80" r="3.2" fill="#0e8f8f" stroke="#ffffff" stroke-width="1"/><circle cx="226.53" cy="541.11" r="3.2" fill="#0e8f8f" stroke="#ffffff" stroke-width="1"/><circle cx="244.60" cy="542.21" r="3.2" fill="#0e8f8f" stroke="#ffffff" stroke-width="1"/><circle cx="262.67" cy="542.73" r="3.2" fill="#0e8f8f" stroke="#ffffff" stroke-width="1"/><circle cx="280.73" cy="542.98" r="3.2" fill="#0e8f8f" stroke="#ffffff" stroke-width="1"/><circle cx="298.80" cy="543.10" r="3.2" fill="#0e8f8f" stroke="#ffffff" stroke-width="1"/><circle cx="316.87" cy="543.15" r="3.2" fill="#0e8f8f" stroke="#ffffff" stroke-width="1"/><circle cx="334.93" cy="543.18" r="3.2" fill="#0e8f8f" stroke="#ffffff" stroke-width="1"/><circle cx="353.00" cy="543.19" r="3.2" fill="#0e8f8f" stroke="#ffffff" stroke-width="1"/><circle cx="371.07" cy="543.20" r="3.2" fill="#0e8f8f" stroke="#ffffff" stroke-width="1"/><circle cx="389.13" cy="543.20" r="3.2" fill="#0e8f8f" stroke="#ffffff" stroke-width="1"/><circle cx="407.20" cy="543.20" r="3.2" fill="#0e8f8f" stroke="#ffffff" stroke-width="1"/><circle cx="425.27" cy="543.21" r="3.2" fill="#0e8f8f" stroke="#ffffff" stroke-width="1"/><circle cx="443.33" cy="543.21" r="3.2" fill="#0e8f8f" stroke="#ffffff" stroke-width="1"/><circle cx="461.40" cy="543.21" r="3.2" fill="#0e8f8f" stroke="#ffffff" stroke-width="1"/><circle cx="479.47" cy="543.21" r="3.2" fill="#0e8f8f" stroke="#ffffff" stroke-width="1"/><circle cx="497.53" cy="543.21" r="3.2" fill="#0e8f8f" stroke="#ffffff" stroke-width="1"/><circle cx="515.60" cy="543.21" r="3.2" fill="#0e8f8f" stroke="#ffffff" stroke-width="1"/><circle cx="533.67" cy="543.21" r="3.2" fill="#0e8f8f" stroke="#ffffff" stroke-width="1"/><circle cx="551.73" cy="543.21" r="3.2" fill="#0e8f8f" stroke="#ffffff" stroke-width="1"/><circle cx="569.80" cy="543.21" r="3.2" fill="#0e8f8f" stroke="#ffffff" stroke-width="1"/><circle cx="587.87" cy="543.21" r="3.2" fill="#0e8f8f" stroke="#ffffff" stroke-width="1"/><circle cx="605.93" cy="543.21" r="3.2" fill="#0e8f8f" stroke="#ffffff" stroke-width="1"/><circle cx="624.00" cy="543.21" r="3.2" fill="#0e8f8f" stroke="#ffffff" stroke-width="1"/><circle cx="642.07" cy="543.21" r="3.2" fill="#0e8f8f" stroke="#ffffff" stroke-width="1"/><circle cx="660.13" cy="543.21" r="3.2" fill="#0e8f8f" stroke="#ffffff" stroke-width="1"/><circle cx="678.20" cy="543.21" r="3.2" fill="#0e8f8f" stroke="#ffffff" stroke-width="1"/><circle cx="696.27" cy="543.21" r="3.2" fill="#0e8f8f" stroke="#ffffff" stroke-width="1"/><circle cx="714.33" cy="543.21" r="3.2" fill="#0e8f8f" stroke="#ffffff" stroke-width="1"/><circle cx="732.40" cy="543.21" r="3.2" fill="#0e8f8f" stroke="#ffffff" stroke-width="1"/><circle cx="750.47" cy="543.21" r="3.2" fill="#0e8f8f" stroke="#ffffff" stroke-width="1"/><circle cx="768.53" cy="543.21" r="3.2" fill="#0e8f8f" stroke="#ffffff" stroke-width="1"/><circle cx="786.60" cy="543.21" r="3.2" fill="#0e8f8f" stroke="#ffffff" stroke-width="1"/><circle cx="804.67" cy="543.21" r="3.2" fill="#0e8f8f" stroke="#ffffff" stroke-width="1"/><circle cx="822.73" cy="543.21" r="3.2" fill="#0e8f8f" stroke="#ffffff" stroke-width="1"/><circle cx="840.80" cy="543.21" r="3.2" fill="#0e8f8f" stroke="#ffffff" stroke-width="1"/><circle cx="858.87" cy="543.21" r="3.2" fill="#0e8f8f" stroke="#ffffff" stroke-width="1"/><circle cx="876.93" cy="543.21" r="3.2" fill="#0e8f8f" stroke="#ffffff" stroke-width="1"/><circle cx="895.00" cy="543.21" r="3.2" fill="#0e8f8f" stroke="#ffffff" stroke-width="1"/><circle cx="913.07" cy="543.21" r="3.2" fill="#0e8f8f" stroke="#ffffff" stroke-width="1"/><circle cx="931.13" cy="543.21" r="3.2" fill="#0e8f8f" stroke="#ffffff" stroke-width="1"/><circle cx="949.20" cy="543.21" r="3.2" fill="#0e8f8f" stroke="#ffffff" stroke-width="1"/><circle cx="967.27" cy="543.21" r="3.2" fill="#0e8f8f" stroke="#ffffff" stroke-width="1"/><circle cx="985.33" cy="543.21" r="3.2" fill="#0e8f8f" stroke="#ffffff" stroke-width="1"/><circle cx="1003.40" cy="543.21" r="3.2" fill="#0e8f8f" stroke="#ffffff" stroke-width="1"/><circle cx="1021.47" cy="543.21" r="3.2" fill="#0e8f8f" stroke="#ffffff" stroke-width="1"/><circle cx="1039.53" cy="543.21" r="3.2" fill="#0e8f8f" stroke="#ffffff" stroke-width="1"/><circle cx="1057.60" cy="543.21" r="3.2" fill="#0e8f8f" stroke="#ffffff" stroke-width="1"/><circle cx="1075.67" cy="543.21" r="3.2" fill="#0e8f8f" stroke="#ffffff" stroke-width="1"/><circle cx="1093.73" cy="543.21" r="3.2" fill="#0e8f8f" stroke="#ffffff" stroke-width="1"/><circle cx="1111.80" cy="543.21" r="3.2" fill="#0e8f8f" stroke="#ffffff" stroke-width="1"/><circle cx="1129.87" cy="543.21" r="3.2" fill="#0e8f8f" stroke="#ffffff" stroke-width="1"/><circle cx="1147.93" cy="543.21" r="3.2" fill="#0e8f8f" stroke="#ffffff" stroke-width="1"/><circle cx="1166.00" cy="543.21" r="3.2" fill="#0e8f8f" stroke="#ffffff" stroke-width="1"/><line x1="82" y1="58" x2="110" y2="58" stroke="#0e8f8f" stroke-width="3"/><text class="legend" x="118.00" y="63.00" text-anchor="start">Predicted angle (h)</text><polyline points="82.00,543.21 1166.00,543.21" fill="none" stroke="#B0B0B0" stroke-width="2.4" stroke-linejoin="round" stroke-linecap="round"/><line x1="272" y1="58" x2="300" y2="58" stroke="#B0B0B0" stroke-width="3"/><text class="legend" x="308.00" y="63.00" text-anchor="start">Steady state -8.00 h</text><polyline points="82.00,579.61 1166.00,579.61" fill="none" stroke="#657083" stroke-width="2.4" stroke-linejoin="round" stroke-linecap="round"/><polyline points="82.00,506.80 1166.00,506.80" fill="none" stroke="#657083" stroke-width="2.4" stroke-linejoin="round" stroke-linecap="round"/><line x1="462" y1="58" x2="490" y2="58" stroke="#657083" stroke-width="3"/><text class="legend" x="498.00" y="63.00" text-anchor="start">Within 0.50 h</text><text class="axis" x="624.00" y="658.00" text-anchor="middle">Cycles since the schedule moved</text><text class="axis" x="0.00" y="0.00" transform="translate(22.00 343.00) rotate(-90)" text-anchor="middle">Phase angle (h), marker minus transition</text><desc>Predicted to settle after 5 cycles. Predicted from the animal&#x27;s measured phase response curve, not observed. the stimuli cover only 33% of the circadian cycle, so the fit is extrapolated across the rest and its zones are predictions rather than measurements.</desc><rect x="0" y="680" width="1200" height="62" fill="#ffffff"/><text class="legend" x="82.00" y="711.00" text-anchor="start"><tspan x="82.00" dy="-0.55em">Predicted to settle after 5 cycles. Predicted from the animal&#x27;s measured phase response curve, not observed. the stimuli cover only 33% of the</tspan><tspan x="82.00" dy="1.1em">circadian cycle, so the fit is extrapolated across the rest and its zones are predictions rather than measurements.</tspan></text></svg>