<svg xmlns="http://www.w3.org/2000/svg" width="1200" height="742" viewBox="0 0 1200 742" role="img" aria-label="Sleep the two-process model accounts for">
<metadata>
  <fig:figure-record xmlns:fig="https://reprofig.org/ns/figure-record/1" schema="reprofig/1" encoding="gzip+base64">H4sIAAAAAAACCu1bbY/cOHL+K0QDgWeQHpmkJEqahQMEdw7yIbk7OAvkg8cQKIma1lktNSS1Z/oM//d7ipTU6p6e2Xi9u8ltPIZ6LLJI1lMvZFU15/NKN7o+9FW/uv28ymtdbVe3qz9UXa6LSjfsv9vuY2aafMNyvOW6zve1HgzTTcHM467tBjZsDNt1pqjygfW1MTt66/t9Zxh+72u0btqHhm1MZ7zVenXf6e1Wd1hmqLamrhqz+rJe5Z3BvEWqB3RILtUNT2549COPb2V864t/5uKWcwwv9KDTftDDHiyv8na7q81gpo5BZ7VBx3uAaev9tknzdt9gTrkeG1xnMRx2BuP3zccGzGF4o7fUMItjvdrts7rK7VqOFOLp+6qsTAGOX5jDwU7/2rfNT03zgdhqBtMM/WLx9WKGu2Z4aNNd1+YQajoKen23+ny3uluV1UC/bu3Lx6op7Bt9bNvC1PSf9UgH4drOUte9sY1VgWUtH2cdg96nXdWbdNPuu952ysTzk0Akvq+kCoQI45kS4+oFpfKiJFBJ4Isgkb70o9BRboBp09ZFujW6sZTcC8MoEX4s8S+KhH9OqaHbatgXZiTnseJJHPhScnxyFZzR3+vdSCkCriTnMlEy8lXkW8KdhuXBVrq0gsS7T8B7FN4FzLYdVHvzkgjq9sF1h17Mg9iXPEpkGAWJ7d1U95uXRvc73aSdHqrWUglP+AlPVBDFSRIngZSXNDV0e6coPaQZzHuhvy/PqeUMzDNamsA80z2jSTylZBBBDQGU5/vRZTDgnytgDeJAqp+L5anhnGF5xo4mLM90z1g4sHAZxiEnyDEAP6OZ2A8CEflhouJYJeIb0Zwa9xNIl239iInD0sBI4EdRrAQPn4C6PMETVBwGCf3FcRiIIBT+N6KaXPAJnoseeYQjRCwjHvghJ0yBOkdzcfgFFcVJxMn7BB8d8CugOCym6c0Wh4jteP/597kf4vh6DtjFbewCrstbwEVYF/3rJViXTPsirDOrwXG6VGHaV38b9253CuptVR/SWnf3JjVNux/NazaK3ugu3yBkaD4Z0Jyfi2Bg0B0MB7/THkexLiaWZXT6o5YD+gUPCKOKCqGKmcTtKLdVv9UD1h6qWQxuQKEP6dCm9Kuoen3fGbOFSU9E7mQzXdUWSy0GY4/Ou3a30ScqnvqmNX8CwxaDbVyXlp3O4WyTWkXo88QXPIZdJ0GsHL/QO8V+xGPa5xpxR3fCK0KRHhKk9nTYwIGbFhZ4HoF0uukrWsux7Muz5tSCGvFMcurTfT8qbTxdB3B9BA6W1dnPSEZaJboTTnsyzHENeLhjAYFYWdVLcb4neu7JEB/0wMGxreKR9B960CLRIqlFevSgxUeLTy2+Rw9aSC8BtQQePWgJ0RJSS+jRgxaFFkUtyqMHLRFaImqJPHrQEqMlppbYowctCVoSakk8eohDYlpYrgWxLRzflnHHuWXd8i6IeWG5F8S+sPwLAiAsAkEQhMUgCISwKATBEBaHICDCIhEERVgsgsAIi0YQHGHxCAIkLCJBkITFJAiUsKgEwRIWlyBgwiITBE1YbJKwSYtNEjZpsUnCJi02Sdik04tVjNOMVY3FJgmbtNgkYZOE7cPSvItLLjFawv/uI77y+S3X/JWxfxg91KZIUNF3X/3/7atHS/jurF+/tvOQX9lZEWeRiuayhStUrG1RyUVjDOESa9qBTVHZD7bT1jfYXErpmfTif2JtycZTG8PK0nSIQuoDK7t2a0d1Jm+7Yi6L5F01UOjUzOv/11kBC6FJz4b2QXdFzwR72GA/YfpBfzTsoRo2jEpYxBlCiGZgUzxty2OFyRGSzIP5NNjVyNzoMaz+YSycuWiR6QETsP0OYR2bw15XcmsK182QOqG3bcyaZS2m2rafTMGyA7rytq8aQ7KwghoPLJbPRT0XLtoJ5/jQYz+CuKw+GTbXSbBUR22kEuBwSoEA8Wb5vbFycDKlpbdVUyGorJp7Szq521Irx9rXUkHerBEoeoy43tMn8SRZ1RRmB+igHY3C6tcFw0wjjxvYpn1gD6ausXLVTzxRzTKbEZDc6vqWeKs6RkE8m0JgzOfieYJBoXC8hoYKK3/MQWiodWFDDGGsqUtagowTSmrrT6MUR8OFWE8MF2bdOyEijL3HkpmBFq2MqbHdDSQ9070CMy5wBiF6Fky4tV/1a6u8pmVTequzCjnUgY3+NCG3kNrSWsLWY+80GeeynrjVjyn5gLax9lEPP5IUNdSpa7BDsTXLwCh8yanNuZTRgNlaFq8mliEnzq8t1MxgWmsMEP3UT/PSXNDFtoUKIKENEeU1pNZbXJdTBBpJ4qyasu2gNTJVW1Nm7wiltfVRnaBB6K+LJZ5xywAa03UtuY4dQrEBUDn/my32ymY319OSmLWul3pYJDmYkKrbENHN0N7g14z0aiGKapjNITOmGUvi8KnC9NiFMnNit7o5MIf/qeqZE0bRGqeuD7PfzJvYd6/5bb2G/U68hf1+veTLMiCcDvyf+tZkjh9Pq0S1zhyRHdJvqpL8pIc/FHtXN5wLEpYq+hk1GjXVIC4VXqRQkippYvyML5Cmx9qqFOGytHORelFqlSKSSiQ8iNxntKC3DKaAkuaHfKyRht6CGJ/iefqZqfCsEvPCGkfWkJOIQMZhNH0uBiH02CNysMMgeFc0EvQNxII+eLE6SPtIc3+xyBZHPhfh/LkkH1qYvG7yuc697LQT9afW8z0p/Z6U/t9OSn/6OfEqfIZfmcSeDCZH/vmsiOiUlfgie86xTpxryc/ZHBHR+k+bvjUl/nCyAVAGuDH1+ZcMU/e0Vf6DmMTX1jHEuZJ+QV7C/6HJnTXJX7IGOW7y09n1D6LFMz8Qv2GB6szfRPit7HyzEp9Wh2xVw6VFrv7U7RuG+JoqPGzfuMyHbkO1u7ankgsFMKw2zf2wWSOWzg1RM4N843AssyDzGVzUP1BdhGawaRZWcrUuvaU7TLaMYgNwGwLT3StKz3pXa7FfbSLutUmSzQuo2cUhWBnB+wOF/wti5qKTMRNE6I04m/akqmGCL0tpc0R7XqybjzIa6ljDEc02VGBiMsB/5ijxueJOSetSTH8MzZH5bcGWTZkebDbwfJRP6YGN9OckcTFP1QAxkiMr25dy5d+WiS9f8EkXwxCFmqIwxRgcrlyiRvfizOPwOu8//cDyDbI8M7zZD+VNfLxgVlb3yKtSuvFGjebB3qK7Xf3Hv9n7Zh1ZH153dTukMAV796zqhyqna21d+zBdihNrpC9ahoru3OnMN5HOwlJwZUwSSqkC5QdaZIjVjUyCKJRI8XkskqwM/VJliR/HPtdSCyV8e5cNwfOAPG3vvqJ1myDm3mokmB1BfhwQflPSTNcNLX8kF3rJ4D+WGIn2zZho34yChMzWE+iqoBt25Y0wSGV0GBpRJIHkYRLoKFSxLAJZ5rEmwbRddV81ugZ+s31m5jXt1cU+B3tgotw3Vm2j8LzdAQQ1XGqv761E6X2n84/jK2huLIC5NYWT9G4GSfca4ah2fjfrBDOt9QFet5zitST5NJ+qrm0o9yBimAP111UGSt9DnErq3m/BBqb3sMvZhZtC97ZBWoLdYdhYBnwPkbYgGssFBIhGHIV2WG/g+F1jWygKJ2bNI2JRd4fy1Mo8WOPqpD+dDScRppSyDIssiHnIETgluZCFrwMTF0mu/DIUmeEmErEuYliUr3NV5FkhpMjzyMe8CIMocZunjBQ3uS99riJZSBMLGYZlLH2V5HFphNSxNHkuwiz2C18VKuQZjDQuYxHmubbXRI9aXWhyakyfqHTqmFnIEiXzQmcqw7oyMLngSUnXUiIcRlkseB5mJpGF1jopuNCR4bHKSmqQKivyk0mR6uW01p399240CbcZ/+Xy1dmizfdkBrbExJwqPDf+rrlr7MaUpuV+IBWlrNrau7i2rOaqUkQ1tkJ58//dlVI7fKeHDUxrGvsXvM5k/aGfl5m/OEgf5tvAI5m7Apw69uyIO5yCJUs7qpmlWDitcQQNV9fs5l/Yn9rG3N41DD+2lb2hdbytfrSpuO1wX5L8iA1xpKSfoTss3ugHM3tlhejZZvHjIvbz+pSwM5BQc2wzj7nZDezPcNMSIfZbqnKdze14e/36Dc5BB+nf3757C2ZJQlcQOkV26bU3Vi+vrj0c5VQtaJ7CvmvsFz1XdobX7O7cqe5W1167M83VuIm/sYclg4zbAic3Xu3WDzI66XH0YPMY2d3pQ93qAnyRTj36f49pHocrEs4fYVNU6TPdlRt1ff3+bnkzGachuOuoQNzhWHvD7g0sZ+iuTnW6Zq8cTbosgPaf7l9h9ATr1YWd1bM03gMFUWl2wMl/NS12NbL+/hVO3lcf1mx+Px6crz5cX9tTkoqx9tB79/Zf//ifb71tMTcu9iBsMzoocRopPwyiXJRFmIusTFQhg6yIJS9xcgm/zEJdxrzkgkd5JrjEzhJlOXkrQjkci9sthGV3BdpD2XHroPrjbvjuw999+LsPf7UP9x+ruj56qwlUidBNRTHXAjFkqbkfRCqPuAjCXCFWMGFUGpUnsfG1yk3hJxrnbqZ0IWJFMY47UlP6jusRM7rXfgxTlp3HVWWU8SRIosRPYhkKuD+i17AoqYqOg1v7caKzXJalUoEo/FJGkfRjEwVZkvuKR5iYfMfViBH8D21HYZhHgRMV/7fa/umHC7Rei5kP9wcnyPS0jdcR1s1x6RjOn2qL9hsbONb2W5uUXJwgdnn6lJDCeRusVc1uT2HoMYaSvAh1oLARqjiPsjhOMj8ps7gUkQlkIgViKhUZrRGMJbrMQ25iKCGT2DyzmOBat7RqX91KnvAwOMq2eJYl+tOYl9BiV+wxzOWWL4B9Qvc8VsGNr0qoLM5UkPsR9AX7koJz7PuZKGFFSY6ToMySINcI5RCvqTjLMg0yU6ozrCLxI/EU6gXGPz/l/MQSR4ZPrHWZc327SS75DlV4iaXjITayM8fGC1Z+gXh3yUrM/UusnJzhjpmTQ3LJ0S9wpp8IR3LKUBep8O37k3e75c+r+4XigZSQt4EFGVotwZakjF9GiUbmgXxDlWHC48LkmeJhVpRFqYUxmfGjJFmdTD3/vVpDGfluV1e5TbLWq6EarBh+xT+5+/J3sEydPeU3AAA=</fig:figure-record>
</metadata><style>text{font-family:Arial,Helvetica,sans-serif;fill:#000000;font-weight:400}.title{font-size:20px;font-weight:700}.axis{font-size:22px;font-weight:400}.tick{font-size:20px;fill:#000000;font-weight:400}.legend{font-size:15px;font-weight:400}.grid{stroke:#dfe4ea;stroke-width:1}.frame{stroke:#000000;stroke-width:2;fill:none}.spine{stroke:#000000;stroke-width:2;fill:none;stroke-linecap:square}.tickmark{stroke:#000000;stroke-width:2;stroke-linecap:square}</style><rect width="1200" height="680" fill="#ffffff"/><text class="title" x="82.00" y="38.00" text-anchor="start">Sleep the two-process model accounts for</text><line class="tickmark" x1="82.00" y1="608.00" x2="82.00" y2="619.00"/><text class="tick" x="82.00" y="631.00" text-anchor="middle">0</text><line class="tickmark" x1="233.60" y1="608.00" x2="233.60" y2="619.00"/><text class="tick" x="233.60" y="631.00" text-anchor="middle">4.75</text><line class="tickmark" x1="385.20" y1="608.00" x2="385.20" y2="619.00"/><text class="tick" x="385.20" y="631.00" text-anchor="middle">9.5</text><line class="tickmark" x1="536.80" y1="608.00" x2="536.80" y2="619.00"/><text class="tick" x="536.80" y="631.00" text-anchor="middle">14.2</text><line class="tickmark" x1="688.40" y1="608.00" x2="688.40" y2="619.00"/><text class="tick" x="688.40" y="631.00" text-anchor="middle">19</text><line class="tickmark" x1="840.00" y1="608.00" x2="840.00" y2="619.00"/><text class="tick" x="840.00" y="631.00" text-anchor="middle">23.8</text><line class="tickmark" x1="82.00" y1="608.00" x2="71.00" y2="608.00"/><text class="tick" x="70.00" y="612.00" text-anchor="end">-0.06</text><line class="tickmark" x1="82.00" y1="502.00" x2="71.00" y2="502.00"/><text class="tick" x="70.00" y="506.00" text-anchor="end">0.16</text><line class="tickmark" x1="82.00" y1="396.00" x2="71.00" y2="396.00"/><text class="tick" x="70.00" y="400.00" text-anchor="end">0.39</text><line class="tickmark" x1="82.00" y1="290.00" x2="71.00" y2="290.00"/><text class="tick" x="70.00" y="294.00" text-anchor="end">0.61</text><line class="tickmark" x1="82.00" y1="184.00" x2="71.00" y2="184.00"/><text class="tick" x="70.00" y="188.00" text-anchor="end">0.84</text><line class="tickmark" x1="82.00" y1="78.00" x2="71.00" y2="78.00"/><text class="tick" x="70.00" y="82.00" text-anchor="end">1.06</text><line class="spine" x1="82" y1="608" x2="840" y2="608"/><line class="spine" x1="82" y1="78" x2="82" y2="608"/><polyline points="82.00,579.61 89.98,579.61 97.96,579.61 105.94,579.61 113.92,579.61 121.89,579.61 129.87,579.61 137.85,579.61 145.83,579.61 153.81,579.61 161.79,579.61 169.77,579.61 177.75,579.61 185.73,579.61 193.71,579.61 201.68,579.61 209.66,579.61 217.64,579.61 225.62,579.61 233.60,579.61 241.58,579.61 249.56,579.61 257.54,579.61 265.52,579.61 273.49,579.61 281.47,579.61 289.45,579.61 297.43,579.61 305.41,579.61 313.39,579.61 321.37,579.61 329.35,579.61 337.33,579.61 345.31,106.39 353.28,106.39 361.26,106.39 369.24,106.39 377.22,106.39 385.20,106.39 393.18,106.39 401.16,106.39 409.14,106.39 417.12,106.39 425.09,106.39 433.07,106.39 441.05,579.61 449.03,579.61 457.01,579.61 464.99,579.61 472.97,579.61 480.95,579.61 488.93,579.61 496.91,579.61 504.88,579.61 512.86,579.61 520.84,579.61 528.82,579.61 536.80,579.61 544.78,579.61 552.76,579.61 560.74,579.61 568.72,579.61 576.69,106.39 584.67,106.39 592.65,106.39 600.63,106.39 608.61,106.39 616.59,106.39 624.57,106.39 632.55,106.39 640.53,106.39 648.51,106.39 656.48,579.61 664.46,579.61 672.44,579.61 680.42,579.61 688.40,579.61 696.38,579.61 704.36,579.61 712.34,579.61 720.32,579.61 728.29,579.61 736.27,579.61 744.25,579.61 752.23,579.61 760.21,579.61 768.19,579.61 776.17,579.61 784.15,579.61 792.13,579.61 800.11,579.61 808.08,579.61 816.06,579.61 824.04,579.61 832.02,579.61 840.00,579.61" fill="none" stroke="#0e8f8f" stroke-width="2.4" stroke-linejoin="round" stroke-linecap="round"/><line x1="860" y1="94.0" x2="888.0" y2="94.0" stroke="#0e8f8f" stroke-width="3"/><text class="legend" x="896.00" y="99.00" text-anchor="start">Measured sleep fraction</text><polyline points="82.00,579.61 89.98,579.61 97.96,579.61 105.94,579.61 113.92,579.61 121.89,579.61 129.87,579.61 137.85,579.61 145.83,579.61 153.81,579.61 161.79,579.61 169.77,579.61 177.75,579.61 185.73,579.61 193.71,579.61 201.68,579.61 209.66,579.61 217.64,579.61 225.62,579.61 233.60,579.61 241.58,579.61 249.56,579.61 257.54,579.61 265.52,579.61 273.49,579.61 281.47,579.61 289.45,579.61 297.43,579.61 305.41,579.61 313.39,579.61 321.37,579.61 329.35,579.61 337.33,579.61 345.31,106.39 353.28,106.39 361.26,106.39 369.24,106.39 377.22,106.39 385.20,106.39 393.18,106.39 401.16,106.39 409.14,106.39 417.12,106.39 425.09,106.39 433.07,106.39 441.05,579.61 449.03,579.61 457.01,579.61 464.99,579.61 472.97,579.61 480.95,579.61 488.93,579.61 496.91,579.61 504.88,579.61 512.86,579.61 520.84,579.61 528.82,579.61 536.80,579.61 544.78,579.61 552.76,579.61 560.74,579.61 568.72,579.61 576.69,579.61 584.67,579.61 592.65,106.39 600.63,106.39 608.61,106.39 616.59,106.39 624.57,106.39 632.55,106.39 640.53,106.39 648.51,106.39 656.48,343.00 664.46,579.61 672.44,579.61 680.42,579.61 688.40,579.61 696.38,579.61 704.36,579.61 712.34,579.61 720.32,579.61 728.29,579.61 736.27,579.61 744.25,579.61 752.23,579.61 760.21,579.61 768.19,579.61 776.17,579.61 784.15,579.61 792.13,579.61 800.11,579.61 808.08,579.61 816.06,579.61 824.04,579.61 832.02,579.61 840.00,579.61" fill="none" stroke="#d98a17" stroke-width="2.4" stroke-linejoin="round" stroke-linecap="round"/><line x1="860" y1="122.0" x2="888.0" y2="122.0" stroke="#d98a17" stroke-width="3"/><text class="legend" x="896.00" y="127.00" text-anchor="start">Model</text><polyline points="82.00,579.61 89.98,579.61 97.96,579.61 105.94,579.61 113.92,579.61 121.89,579.61 129.87,579.61 137.85,579.61 145.83,579.61 153.81,579.61 161.79,579.61 169.77,579.61 177.75,579.61 185.73,579.61 193.71,579.61 201.68,579.61 209.66,579.61 217.64,579.61 225.62,579.61 233.60,579.61 241.58,579.61 249.56,579.61 257.54,579.61 265.52,579.61 273.49,579.61 281.47,579.61 289.45,579.61 297.43,579.61 305.41,579.61 313.39,579.61 321.37,579.61 329.35,579.61 337.33,579.61 345.31,579.61 353.28,579.61 361.26,579.61 369.24,579.61 377.22,579.61 385.20,579.61 393.18,579.61 401.16,579.61 409.14,579.61 417.12,106.39 425.09,106.39 433.07,106.39 441.05,106.39 449.03,106.39 457.01,106.39 464.99,106.39 472.97,106.39 480.95,106.39 488.93,106.39 496.91,106.39 504.88,512.01 512.86,579.61 520.84,579.61 528.82,579.61 536.80,579.61 544.78,579.61 552.76,579.61 560.74,579.61 568.72,579.61 576.69,579.61 584.67,579.61 592.65,579.61 600.63,579.61 608.61,579.61 616.59,579.61 624.57,579.61 632.55,579.61 640.53,579.61 648.51,579.61 656.48,343.00 664.46,106.39 672.44,106.39 680.42,106.39 688.40,106.39 696.38,309.20 704.36,545.81 712.34,579.61 720.32,579.61 728.29,579.61 736.27,579.61 744.25,579.61 752.23,579.61 760.21,579.61 768.19,579.61 776.17,579.61 784.15,579.61 792.13,579.61 800.11,579.61 808.08,579.61 816.06,579.61 824.04,579.61 832.02,579.61 840.00,579.61" fill="none" stroke="#7755a6" stroke-width="2.4" stroke-linejoin="round" stroke-linecap="round"/><polyline points="82.00,579.61 89.98,579.61 97.96,579.61 105.94,579.61 113.92,579.61 121.89,579.61 129.87,579.61 137.85,579.61 145.83,579.61 153.81,579.61 161.79,579.61 169.77,579.61 177.75,579.61 185.73,579.61 193.71,579.61 201.68,579.61 209.66,579.61 217.64,579.61 225.62,579.61 233.60,579.61 241.58,579.61 249.56,579.61 257.54,579.61 265.52,579.61 273.49,579.61 281.47,579.61 289.45,579.61 297.43,579.61 305.41,579.61 313.39,579.61 321.37,579.61 329.35,579.61 337.33,579.61 345.31,579.61 353.28,579.61 361.26,579.61 369.24,579.61 377.22,579.61 385.20,579.61 393.18,579.61 401.16,579.61 409.14,173.99 417.12,106.39 425.09,106.39 433.07,106.39 441.05,106.39 449.03,106.39 457.01,106.39 464.99,106.39 472.97,106.39 480.95,106.39 488.93,106.39 496.91,106.39 504.88,106.39 512.86,579.61 520.84,579.61 528.82,579.61 536.80,579.61 544.78,579.61 552.76,579.61 560.74,579.61 568.72,579.61 576.69,579.61 584.67,579.61 592.65,579.61 600.63,579.61 608.61,579.61 616.59,579.61 624.57,410.60 632.55,173.99 640.53,106.39 648.51,106.39 656.48,106.39 664.46,106.39 672.44,106.39 680.42,106.39 688.40,106.39 696.38,106.39 704.36,106.39 712.34,106.39 720.32,106.39 728.29,579.61 736.27,579.61 744.25,579.61 752.23,579.61 760.21,579.61 768.19,579.61 776.17,579.61 784.15,579.61 792.13,579.61 800.11,579.61 808.08,579.61 816.06,579.61 824.04,579.61 832.02,579.61 840.00,579.61" fill="none" stroke="#7755a6" stroke-width="2.4" stroke-linejoin="round" stroke-linecap="round"/><line x1="860" y1="150.0" x2="888.0" y2="150.0" stroke="#7755a6" stroke-width="3"/><text class="legend" x="896.00" y="155.00" text-anchor="start">shifted schedule: the family&#x27;s range</text><polyline points="82.00,579.61 89.98,579.61 97.96,579.61 105.94,579.61 113.92,579.61 121.89,579.61 129.87,579.61 137.85,579.61 145.83,579.61 153.81,579.61 161.79,579.61 169.77,579.61 177.75,579.61 185.73,579.61 193.71,579.61 201.68,579.61 209.66,579.61 217.64,579.61 225.62,579.61 233.60,579.61 241.58,579.61 249.56,579.61 257.54,579.61 265.52,579.61 273.49,579.61 281.47,579.61 289.45,579.61 297.43,579.61 305.41,579.61 313.39,579.61 321.37,579.61 329.35,579.61 337.33,579.61 345.31,579.61 353.28,579.61 361.26,579.61 369.24,579.61 377.22,579.61 385.20,579.61 393.18,579.61 401.16,579.61 409.14,376.80 417.12,106.39 425.09,106.39 433.07,106.39 441.05,106.39 449.03,106.39 457.01,106.39 464.99,106.39 472.97,106.39 480.95,106.39 488.93,106.39 496.91,106.39 504.88,309.20 512.86,579.61 520.84,579.61 528.82,579.61 536.80,579.61 544.78,579.61 552.76,579.61 560.74,579.61 568.72,579.61 576.69,579.61 584.67,579.61 592.65,579.61 600.63,579.61 608.61,579.61 616.59,579.61 624.57,495.10 632.55,376.80 640.53,343.00 648.51,343.00 656.48,224.70 664.46,106.39 672.44,106.39 680.42,106.39 688.40,106.39 696.38,207.80 704.36,326.10 712.34,343.00 720.32,343.00 728.29,579.61 736.27,579.61 744.25,579.61 752.23,579.61 760.21,579.61 768.19,579.61 776.17,579.61 784.15,579.61 792.13,579.61 800.11,579.61 808.08,579.61 816.06,579.61 824.04,579.61 832.02,579.61 840.00,579.61" fill="none" stroke="#657083" stroke-width="2.4" stroke-linejoin="round" stroke-linecap="round"/><line x1="860" y1="178.0" x2="888.0" y2="178.0" stroke="#657083" stroke-width="3"/><text class="legend" x="896.00" y="183.00" text-anchor="start">shifted schedule: model</text><text class="axis" x="461.00" y="658.00" text-anchor="middle">Clock hour</text><text class="axis" x="0.00" y="0.00" transform="translate(22.00 343.00) rotate(-90)" text-anchor="middle">Fraction of samples asleep</text><desc>Fitted, the search did not converge; the model classifies 2.8% of samples differently from the record. Fitted two-process model, not a measurement: sleep pressure against a circadian threshold, with the parameters the record could not separate reported as a range. The 2 independent searches disagree about how well this record can be fitted at all: their best mismatches spread by 0.028, wider than the 0.02 the record itself cannot resolve. The search has not converged, so the ranges below are the optimiser&amp;#x27;s scatter rather than the record&amp;#x27;s, and no identifiability verdict can be read off them. Raise two_process_max_iterations. This animal&amp;#x27;s days barely differ from each other (scatter 0.000), so beating that scatter is a bar almost nothing clears and fits_better_than_noise is not informative here. Read the mismatch instead. The model&amp;#x27;s error on the hourly sleep fraction (0.153) is not smaller than the measurement&amp;#x27;s own day-to-day scatter (0.000), so it has not been shown to describe this record any better than the record&amp;#x27;s noise does..</desc><rect x="0" y="680" width="1200" height="62" fill="#ffffff"/><text class="legend" x="82.00" y="711.00" text-anchor="start"><tspan x="82.00" dy="-1.10em">Fitted, the search did not converge; the model classifies 2.8% of samples differently from the record. Fitted two-process model, not a measurement:</tspan><tspan x="82.00" dy="1.1em">sleep pressure against a circadian threshold, with the parameters the record could not separate reported as a range. The 2 independent searches</tspan><tspan x="82.00" dy="1.1em">disagree about how well this record can be fitted at all: their best mismatches spread by 0.028, wider than the 0.02 the record itself cannot resolve ...</tspan></text></svg>